<?xml version="1.0" encoding="UTF-8" standalone="no"?>
<!-- Created with Inkscape (http://www.inkscape.org/) -->

<svg
   xmlns:dc="http://purl.org/dc/elements/1.1/"
   xmlns:cc="http://creativecommons.org/ns#"
   xmlns:rdf="http://www.w3.org/1999/02/22-rdf-syntax-ns#"
   xmlns:svg="http://www.w3.org/2000/svg"
   xmlns="http://www.w3.org/2000/svg"
   xmlns:xlink="http://www.w3.org/1999/xlink"
   xmlns:sodipodi="http://sodipodi.sourceforge.net/DTD/sodipodi-0.dtd"
   xmlns:inkscape="http://www.inkscape.org/namespaces/inkscape"
   width="150"
   height="150"
   id="svg5584"
   version="1.1"
   inkscape:version="0.48.4 r9939"
   sodipodi:docname="logo-site.svg">
  <defs
     id="defs5586">
    <linearGradient
       inkscape:collect="always"
       xlink:href="#SVGID_1_-9-4"
       id="linearGradient5645"
       gradientUnits="userSpaceOnUse"
       gradientTransform="matrix(0.2376,-0.9714,-0.9714,-0.2376,-1794.35,-1897.84)"
       x1="-1664.0215"
       y1="-3441.8408"
       x2="-1644.5204"
       y2="-3444.8438" />
    <linearGradient
       id="SVGID_1_-9-4"
       gradientUnits="userSpaceOnUse"
       x1="-1664.0215"
       y1="-3441.8408"
       x2="-1644.5204"
       y2="-3444.8438"
       gradientTransform="matrix(0.2376,-0.9714,-0.9714,-0.2376,-1794.35,-1897.84)">
      <stop
         offset="0"
         style="stop-color:#F7EC30"
         id="stop28-2-8" />
      <stop
         offset="1"
         style="stop-color:#FAAE40"
         id="stop30-00-1" />
    </linearGradient>
    <linearGradient
       inkscape:collect="always"
       xlink:href="#SVGID_2_-0-8"
       id="linearGradient5647"
       gradientUnits="userSpaceOnUse"
       gradientTransform="matrix(0.8559,-0.5171,-0.5171,-0.8559,-2252.52,-6984.25)"
       x1="-925.97803"
       y1="-8201.6367"
       x2="-905.17151"
       y2="-8204.8408" />
    <linearGradient
       id="SVGID_2_-0-8"
       gradientUnits="userSpaceOnUse"
       x1="-925.97803"
       y1="-8201.6367"
       x2="-905.17151"
       y2="-8204.8408"
       gradientTransform="matrix(0.8559,-0.5171,-0.5171,-0.8559,-2252.52,-6984.25)">
      <stop
         offset="0"
         style="stop-color:#F7EC30"
         id="stop35-87-9" />
      <stop
         offset="1"
         style="stop-color:#FAAE40"
         id="stop37-51-3" />
    </linearGradient>
    <linearGradient
       inkscape:collect="always"
       xlink:href="#SVGID_3_-4-8"
       id="linearGradient5649"
       gradientUnits="userSpaceOnUse"
       gradientTransform="matrix(0.9997,0.0244,0.0244,-0.9997,1562.12,-9766.4)"
       x1="-66.996101"
       y1="-10286.06"
       x2="-42.5634"
       y2="-10289.822" />
    <linearGradient
       id="SVGID_3_-4-8"
       gradientUnits="userSpaceOnUse"
       x1="-66.996101"
       y1="-10286.06"
       x2="-42.5634"
       y2="-10289.822"
       gradientTransform="matrix(0.9997,0.0244,0.0244,-0.9997,1562.12,-9766.4)">
      <stop
         offset="0"
         style="stop-color:#F7EC30"
         id="stop42-5-0" />
      <stop
         offset="1"
         style="stop-color:#FAAE40"
         id="stop44-04-2" />
    </linearGradient>
    <linearGradient
       inkscape:collect="always"
       xlink:href="#SVGID_4_-03-0"
       id="linearGradient5652"
       gradientUnits="userSpaceOnUse"
       gradientTransform="matrix(0.802,0.5973,0.5973,-0.802,6476.96,-8626.83)"
       x1="1313.8677"
       y1="-10460.59"
       x2="1338.9114"
       y2="-10464.446" />
    <linearGradient
       id="SVGID_4_-03-0"
       gradientUnits="userSpaceOnUse"
       x1="1313.8677"
       y1="-10460.59"
       x2="1338.9114"
       y2="-10464.446"
       gradientTransform="matrix(0.802,0.5973,0.5973,-0.802,6476.96,-8626.83)">
      <stop
         offset="0"
         style="stop-color:#F7EC30"
         id="stop49-7-5" />
      <stop
         offset="1"
         style="stop-color:#FAAE40"
         id="stop51-7-1" />
    </linearGradient>
    <linearGradient
       inkscape:collect="always"
       xlink:href="#SVGID_5_-8-0"
       id="linearGradient5654"
       gradientUnits="userSpaceOnUse"
       gradientTransform="matrix(-0.3327,-0.943,-0.943,0.3327,859.108,-1024.23)"
       x1="-1594.7344"
       y1="273.75201"
       x2="-1577.8234"
       y2="271.1478" />
    <linearGradient
       id="SVGID_5_-8-0"
       gradientUnits="userSpaceOnUse"
       x1="-1594.7344"
       y1="273.75201"
       x2="-1577.8234"
       y2="271.1478"
       gradientTransform="matrix(-0.3327,-0.943,-0.943,0.3327,859.108,-1024.23)">
      <stop
         offset="0"
         style="stop-color:#F7EC30"
         id="stop56-7-8" />
      <stop
         offset="1"
         style="stop-color:#FAAE40"
         id="stop58-7-5" />
    </linearGradient>
    <linearGradient
       inkscape:collect="always"
       xlink:href="#SVGID_6_-431-6"
       id="linearGradient5656"
       gradientUnits="userSpaceOnUse"
       gradientTransform="matrix(-0.6493,-0.7605,-0.7605,0.6493,1703.57,-2306.63)"
       x1="-1839.7549"
       y1="2328.082"
       x2="-1826.1986"
       y2="2325.9944" />
    <linearGradient
       id="SVGID_6_-431-6"
       gradientUnits="userSpaceOnUse"
       x1="-1839.7549"
       y1="2328.082"
       x2="-1826.1986"
       y2="2325.9944"
       gradientTransform="matrix(-0.6493,-0.7605,-0.7605,0.6493,1703.57,-2306.63)">
      <stop
         offset="0"
         style="stop-color:#F7EC30"
         id="stop63-30-4" />
      <stop
         offset="1"
         style="stop-color:#FAAE40"
         id="stop65-7-6" />
    </linearGradient>
    <linearGradient
       inkscape:collect="always"
       xlink:href="#SVGID_7_-1-5"
       id="linearGradient5659"
       gradientUnits="userSpaceOnUse"
       gradientTransform="matrix(-0.9803,-0.1975,-0.1975,0.9803,1031.18,-2761.68)"
       x1="-776.59668"
       y1="3306.3516"
       x2="-765.99219"
       y2="3304.7185" />
    <linearGradient
       id="SVGID_7_-1-5"
       gradientUnits="userSpaceOnUse"
       x1="-776.59668"
       y1="3306.3516"
       x2="-765.99219"
       y2="3304.7185"
       gradientTransform="matrix(-0.9803,-0.1975,-0.1975,0.9803,1031.18,-2761.68)">
      <stop
         offset="0"
         style="stop-color:#F7EC30"
         id="stop70-78-8" />
      <stop
         offset="1"
         style="stop-color:#FAAE40"
         id="stop72-6-6" />
    </linearGradient>
    <linearGradient
       inkscape:collect="always"
       xlink:href="#SVGID_8_-1-4"
       id="linearGradient5661"
       gradientUnits="userSpaceOnUse"
       gradientTransform="matrix(0.15945269,0,0,0.15945269,-103.08847,1318.5805)"
       x1="1344.7505"
       y1="512.69678"
       x2="1344.7505"
       y2="598.70697" />
    <linearGradient
       id="SVGID_8_-1-4"
       gradientUnits="userSpaceOnUse"
       x1="1344.7505"
       y1="512.69678"
       x2="1344.7505"
       y2="598.70697">
      <stop
         offset="0"
         style="stop-color:#F7EC30"
         id="stop79-0-7" />
      <stop
         offset="1"
         style="stop-color:#FAAE40"
         id="stop81-8-7" />
    </linearGradient>
    <linearGradient
       inkscape:collect="always"
       xlink:href="#SVGID_9_-3-6"
       id="linearGradient5663"
       gradientUnits="userSpaceOnUse"
       gradientTransform="matrix(0.15945269,0,0,0.15945269,-103.08847,1318.5805)"
       x1="1384.2378"
       y1="512.69678"
       x2="1384.2378"
       y2="598.70697" />
    <linearGradient
       id="SVGID_9_-3-6"
       gradientUnits="userSpaceOnUse"
       x1="1384.2378"
       y1="512.69678"
       x2="1384.2378"
       y2="598.70697">
      <stop
         offset="0"
         style="stop-color:#F7EC30"
         id="stop86-0-9" />
      <stop
         offset="1"
         style="stop-color:#FAAE40"
         id="stop88-0-2" />
    </linearGradient>
    <linearGradient
       inkscape:collect="always"
       xlink:href="#SVGID_10_-2-0"
       id="linearGradient5666"
       gradientUnits="userSpaceOnUse"
       gradientTransform="matrix(0.15945269,0,0,0.15945269,-103.08847,1318.5805)"
       x1="1450.354"
       y1="512.69678"
       x2="1450.354"
       y2="598.70721" />
    <linearGradient
       id="SVGID_10_-2-0"
       gradientUnits="userSpaceOnUse"
       x1="1450.354"
       y1="512.69678"
       x2="1450.354"
       y2="598.70721">
      <stop
         offset="0"
         style="stop-color:#F7EC30"
         id="stop93-9-5" />
      <stop
         offset="1"
         style="stop-color:#FAAE40"
         id="stop95-6-9" />
    </linearGradient>
    <linearGradient
       inkscape:collect="always"
       xlink:href="#SVGID_11_-5-9"
       id="linearGradient5668"
       gradientUnits="userSpaceOnUse"
       gradientTransform="matrix(0.15945269,0,0,0.15945269,-103.08847,1318.5805)"
       x1="1492.2622"
       y1="512.69678"
       x2="1492.2622"
       y2="598.70697" />
    <linearGradient
       id="SVGID_11_-5-9"
       gradientUnits="userSpaceOnUse"
       x1="1492.2622"
       y1="512.69678"
       x2="1492.2622"
       y2="598.70697">
      <stop
         offset="0"
         style="stop-color:#F7EC30"
         id="stop100-4-2" />
      <stop
         offset="1"
         style="stop-color:#FAAE40"
         id="stop102-3-5" />
    </linearGradient>
    <linearGradient
       inkscape:collect="always"
       xlink:href="#SVGID_12_-7-3"
       id="linearGradient5670"
       gradientUnits="userSpaceOnUse"
       gradientTransform="matrix(0.15945269,0,0,0.15945269,-103.08847,1318.5805)"
       x1="1537.4175"
       y1="512.69678"
       x2="1537.4175"
       y2="598.70728" />
    <linearGradient
       id="SVGID_12_-7-3"
       gradientUnits="userSpaceOnUse"
       x1="1537.4175"
       y1="512.69678"
       x2="1537.4175"
       y2="598.70728">
      <stop
         offset="0"
         style="stop-color:#F7EC30"
         id="stop107-05-0" />
      <stop
         offset="1"
         style="stop-color:#FAAE40"
         id="stop109-0-3" />
    </linearGradient>
    <linearGradient
       inkscape:collect="always"
       xlink:href="#SVGID_13_-7-7"
       id="linearGradient5673"
       gradientUnits="userSpaceOnUse"
       gradientTransform="matrix(0.15945269,0,0,0.15945269,-103.08847,1318.5805)"
       x1="1573.0542"
       y1="512.69678"
       x2="1573.0542"
       y2="598.70721" />
    <linearGradient
       id="SVGID_13_-7-7"
       gradientUnits="userSpaceOnUse"
       x1="1573.0542"
       y1="512.69678"
       x2="1573.0542"
       y2="598.70721">
      <stop
         offset="0"
         style="stop-color:#F7EC30"
         id="stop114-2-7" />
      <stop
         offset="1"
         style="stop-color:#FAAE40"
         id="stop116-8-6" />
    </linearGradient>
    <linearGradient
       inkscape:collect="always"
       xlink:href="#SVGID_14_-42-8"
       id="linearGradient5675"
       gradientUnits="userSpaceOnUse"
       gradientTransform="matrix(0.15945269,0,0,0.15945269,-103.08847,1318.5805)"
       x1="1604.2378"
       y1="512.69678"
       x2="1604.2378"
       y2="598.70697" />
    <linearGradient
       id="SVGID_14_-42-8"
       gradientUnits="userSpaceOnUse"
       x1="1604.2378"
       y1="512.69678"
       x2="1604.2378"
       y2="598.70697">
      <stop
         offset="0"
         style="stop-color:#F7EC30"
         id="stop121-57-8" />
      <stop
         offset="1"
         style="stop-color:#FAAE40"
         id="stop123-3-8" />
    </linearGradient>
    <linearGradient
       inkscape:collect="always"
       xlink:href="#SVGID_15_-89-8"
       id="linearGradient5677"
       gradientUnits="userSpaceOnUse"
       x1="1421.5991"
       y1="512.69678"
       x2="1421.5991"
       y2="598.70709" />
    <linearGradient
       id="SVGID_15_-89-8"
       gradientUnits="userSpaceOnUse"
       x1="1421.5991"
       y1="512.69678"
       x2="1421.5991"
       y2="598.70709">
      <stop
         offset="0"
         style="stop-color:#F7EC30"
         id="stop130-1-6" />
      <stop
         offset="1"
         style="stop-color:#FAAE40"
         id="stop132-19-0" />
    </linearGradient>
    <linearGradient
       inkscape:collect="always"
       xlink:href="#SVGID_16_-9-8"
       id="linearGradient5680"
       gradientUnits="userSpaceOnUse"
       x1="1427.314"
       y1="537.75677"
       x2="1435.064"
       y2="548.25677" />
    <linearGradient
       id="SVGID_16_-9-8"
       gradientUnits="userSpaceOnUse"
       x1="1427.314"
       y1="537.75677"
       x2="1435.064"
       y2="548.25677">
      <stop
         offset="0"
         style="stop-color:#F69220"
         id="stop137-7-96" />
      <stop
         offset="0.4724"
         style="stop-color:#F05A29"
         id="stop139-09-4" />
      <stop
         offset="0.4785"
         style="stop-color:#EE4037"
         id="stop141-66-3" />
      <stop
         offset="1"
         style="stop-color:#F05A29"
         id="stop143-2-3" />
    </linearGradient>
    <linearGradient
       inkscape:collect="always"
       xlink:href="#SVGID_17_-88-8"
       id="linearGradient5682"
       gradientUnits="userSpaceOnUse"
       gradientTransform="matrix(0.15945269,0,0,0.15945269,-103.08847,1318.5805)"
       x1="1422.7798"
       y1="512.69678"
       x2="1422.7798"
       y2="598.70752" />
    <linearGradient
       id="SVGID_17_-88-8"
       gradientUnits="userSpaceOnUse"
       x1="1422.7798"
       y1="512.69678"
       x2="1422.7798"
       y2="598.70752">
      <stop
         offset="0"
         style="stop-color:#F7EC30"
         id="stop148-16-8" />
      <stop
         offset="1"
         style="stop-color:#FAAE40"
         id="stop150-57-3" />
    </linearGradient>
    <linearGradient
       inkscape:collect="always"
       xlink:href="#SVGID_18_-93-9"
       id="linearGradient5684"
       gradientUnits="userSpaceOnUse"
       gradientTransform="matrix(0.15945269,0,0,0.15945269,-103.08847,1318.5805)"
       x1="1386.8247"
       y1="595.18701"
       x2="1386.8247"
       y2="661.90637" />
    <linearGradient
       id="SVGID_18_-93-9"
       gradientUnits="userSpaceOnUse"
       x1="1386.8247"
       y1="595.18701"
       x2="1386.8247"
       y2="661.90637">
      <stop
         offset="0"
         style="stop-color:#F7EC30"
         id="stop157-74-7" />
      <stop
         offset="1"
         style="stop-color:#FAAE40"
         id="stop159-5-5" />
    </linearGradient>
    <linearGradient
       inkscape:collect="always"
       xlink:href="#SVGID_19_-5-4"
       id="linearGradient5687"
       gradientUnits="userSpaceOnUse"
       gradientTransform="matrix(0.15945269,0,0,0.15945269,-103.08847,1318.5805)"
       x1="1418.7251"
       y1="595.18701"
       x2="1418.7251"
       y2="661.90637" />
    <linearGradient
       id="SVGID_19_-5-4"
       gradientUnits="userSpaceOnUse"
       x1="1418.7251"
       y1="595.18701"
       x2="1418.7251"
       y2="661.90637">
      <stop
         offset="0"
         style="stop-color:#F7EC30"
         id="stop164-7-1" />
      <stop
         offset="1"
         style="stop-color:#FAAE40"
         id="stop166-49-8" />
    </linearGradient>
    <linearGradient
       inkscape:collect="always"
       xlink:href="#SVGID_20_-1-7"
       id="linearGradient5689"
       gradientUnits="userSpaceOnUse"
       gradientTransform="matrix(0.15945269,0,0,0.15945269,-103.08847,1318.5805)"
       x1="1449.9087"
       y1="595.18701"
       x2="1449.9087"
       y2="661.90637" />
    <linearGradient
       id="SVGID_20_-1-7"
       gradientUnits="userSpaceOnUse"
       x1="1449.9087"
       y1="595.18701"
       x2="1449.9087"
       y2="661.90637">
      <stop
         offset="0"
         style="stop-color:#F7EC30"
         id="stop171-99-8" />
      <stop
         offset="1"
         style="stop-color:#FAAE40"
         id="stop173-49-5" />
    </linearGradient>
    <linearGradient
       inkscape:collect="always"
       xlink:href="#SVGID_21_-0-9"
       id="linearGradient5691"
       gradientUnits="userSpaceOnUse"
       gradientTransform="matrix(0.15945269,0,0,0.15945269,-103.08847,1318.5805)"
       x1="1486.3628"
       y1="595.18701"
       x2="1486.3628"
       y2="661.90637" />
    <linearGradient
       id="SVGID_21_-0-9"
       gradientUnits="userSpaceOnUse"
       x1="1486.3628"
       y1="595.18701"
       x2="1486.3628"
       y2="661.90637">
      <stop
         offset="0"
         style="stop-color:#F7EC30"
         id="stop178-5-6" />
      <stop
         offset="1"
         style="stop-color:#FAAE40"
         id="stop180-1-2" />
    </linearGradient>
    <linearGradient
       inkscape:collect="always"
       xlink:href="#SVGID_22_-1-3"
       id="linearGradient5694"
       gradientUnits="userSpaceOnUse"
       gradientTransform="matrix(0.15945269,0,0,0.15945269,-103.08847,1318.5805)"
       x1="1564.644"
       y1="595.18701"
       x2="1564.644"
       y2="661.90637" />
    <linearGradient
       id="SVGID_22_-1-3"
       gradientUnits="userSpaceOnUse"
       x1="1564.644"
       y1="595.18701"
       x2="1564.644"
       y2="661.90637">
      <stop
         offset="0"
         style="stop-color:#F7EC30"
         id="stop185-7-1" />
      <stop
         offset="1"
         style="stop-color:#FAAE40"
         id="stop187-82-7" />
    </linearGradient>
    <linearGradient
       inkscape:collect="always"
       xlink:href="#SVGID_23_-8-4"
       id="linearGradient5696"
       gradientUnits="userSpaceOnUse"
       gradientTransform="matrix(0.15945269,0,0,0.15945269,-103.08847,1318.5805)"
       x1="1613.4438"
       y1="595.18701"
       x2="1613.4438"
       y2="661.90619" />
    <linearGradient
       id="SVGID_23_-8-4"
       gradientUnits="userSpaceOnUse"
       x1="1613.4438"
       y1="595.18701"
       x2="1613.4438"
       y2="661.90619">
      <stop
         offset="0"
         style="stop-color:#F7EC30"
         id="stop192-6-4" />
      <stop
         offset="1"
         style="stop-color:#FAAE40"
         id="stop194-8-7" />
    </linearGradient>
    <linearGradient
       inkscape:collect="always"
       xlink:href="#SVGID_24_-05-3"
       id="linearGradient5698"
       gradientUnits="userSpaceOnUse"
       gradientTransform="matrix(0.15945269,0,0,0.15945269,-103.08847,1318.5805)"
       x1="1686.064"
       y1="595.18701"
       x2="1686.064"
       y2="661.90637" />
    <linearGradient
       id="SVGID_24_-05-3"
       gradientUnits="userSpaceOnUse"
       x1="1686.064"
       y1="595.18701"
       x2="1686.064"
       y2="661.90637">
      <stop
         offset="0"
         style="stop-color:#F7EC30"
         id="stop199-84-0" />
      <stop
         offset="1"
         style="stop-color:#FAAE40"
         id="stop201-15-4" />
    </linearGradient>
    <linearGradient
       inkscape:collect="always"
       xlink:href="#SVGID_25_-1-4"
       id="linearGradient5701"
       gradientUnits="userSpaceOnUse"
       gradientTransform="matrix(0.15945269,0,0,0.15945269,-103.08847,1318.5805)"
       x1="1733.1841"
       y1="595.18701"
       x2="1733.1841"
       y2="661.90619" />
    <linearGradient
       id="SVGID_25_-1-4"
       gradientUnits="userSpaceOnUse"
       x1="1733.1841"
       y1="595.18701"
       x2="1733.1841"
       y2="661.90619">
      <stop
         offset="0"
         style="stop-color:#F7EC30"
         id="stop206-1-8" />
      <stop
         offset="1"
         style="stop-color:#FAAE40"
         id="stop208-0-1" />
    </linearGradient>
    <linearGradient
       inkscape:collect="always"
       xlink:href="#SVGID_26_-95-1"
       id="linearGradient5703"
       gradientUnits="userSpaceOnUse"
       gradientTransform="matrix(0.15945269,0,0,0.15945269,-103.08847,1318.5805)"
       x1="1773.27"
       y1="595.18701"
       x2="1773.27"
       y2="661.90662" />
    <linearGradient
       id="SVGID_26_-95-1"
       gradientUnits="userSpaceOnUse"
       x1="1773.27"
       y1="595.18701"
       x2="1773.27"
       y2="661.90662">
      <stop
         offset="0"
         style="stop-color:#F7EC30"
         id="stop213-6-5" />
      <stop
         offset="1"
         style="stop-color:#FAAE40"
         id="stop215-6-9" />
    </linearGradient>
    <linearGradient
       inkscape:collect="always"
       xlink:href="#SVGID_27_-4-8"
       id="linearGradient5705"
       gradientUnits="userSpaceOnUse"
       gradientTransform="matrix(0.15945269,0,0,0.15945269,-103.08847,1318.5805)"
       x1="1526.7856"
       y1="595.18701"
       x2="1526.7856"
       y2="661.90649" />
    <linearGradient
       id="SVGID_27_-4-8"
       gradientUnits="userSpaceOnUse"
       x1="1526.7856"
       y1="595.18701"
       x2="1526.7856"
       y2="661.90649">
      <stop
         offset="0"
         style="stop-color:#F7EC30"
         id="stop224-2-5" />
      <stop
         offset="1"
         style="stop-color:#FAAE40"
         id="stop226-5-6" />
    </linearGradient>
    <linearGradient
       inkscape:collect="always"
       xlink:href="#SVGID_28_-516-0"
       id="linearGradient5708"
       gradientUnits="userSpaceOnUse"
       gradientTransform="matrix(0.15945269,0,0,0.15945269,-103.08847,1318.5805)"
       x1="1150.4614"
       y1="634.6167"
       x2="1270.4927"
       y2="634.6167" />
    <linearGradient
       id="SVGID_28_-516-0"
       gradientUnits="userSpaceOnUse"
       x1="1150.4614"
       y1="634.6167"
       x2="1270.4927"
       y2="634.6167">
      <stop
         offset="0"
         style="stop-color:#F7EC30"
         id="stop239-0-9" />
      <stop
         offset="1"
         style="stop-color:#FAAE40"
         id="stop241-09-6" />
    </linearGradient>
    <linearGradient
       inkscape:collect="always"
       xlink:href="#SVGID_29_-73-0"
       id="linearGradient5710"
       gradientUnits="userSpaceOnUse"
       gradientTransform="matrix(0.15945269,0,0,0.15945269,-103.08847,1318.5805)"
       x1="1150.4614"
       y1="585.56201"
       x2="1270.4922"
       y2="585.56201" />
    <linearGradient
       id="SVGID_29_-73-0"
       gradientUnits="userSpaceOnUse"
       x1="1150.4614"
       y1="585.56201"
       x2="1270.4922"
       y2="585.56201">
      <stop
         offset="0"
         style="stop-color:#F7EC30"
         id="stop246-0-8" />
      <stop
         offset="1"
         style="stop-color:#FAAE40"
         id="stop248-62-8" />
    </linearGradient>
    <linearGradient
       inkscape:collect="always"
       xlink:href="#SVGID_30_-4-2"
       id="linearGradient5712"
       gradientUnits="userSpaceOnUse"
       gradientTransform="matrix(0.15945269,0,0,0.15945269,-103.08847,1318.5805)"
       x1="1150.4614"
       y1="594.37207"
       x2="1270.4927"
       y2="594.37207" />
    <linearGradient
       id="SVGID_30_-4-2"
       gradientUnits="userSpaceOnUse"
       x1="1150.4614"
       y1="594.37207"
       x2="1270.4927"
       y2="594.37207">
      <stop
         offset="0"
         style="stop-color:#F7EC30"
         id="stop253-5-9" />
      <stop
         offset="1"
         style="stop-color:#FAAE40"
         id="stop255-02-3" />
    </linearGradient>
    <linearGradient
       inkscape:collect="always"
       xlink:href="#SVGID_31_-75-9"
       id="linearGradient5714"
       gradientUnits="userSpaceOnUse"
       gradientTransform="matrix(-1,0,0,1,1789.39,0)"
       x1="458.2778"
       y1="621.23633"
       x2="654.18433"
       y2="621.23633" />
    <linearGradient
       id="SVGID_31_-75-9"
       gradientUnits="userSpaceOnUse"
       x1="458.2778"
       y1="621.23633"
       x2="654.18433"
       y2="621.23633"
       gradientTransform="matrix(-1,0,0,1,1789.39,0)">
      <stop
         offset="0"
         style="stop-color:#8BC541"
         id="stop262-23-4" />
      <stop
         offset="1"
         style="stop-color:#39B24A"
         id="stop264-90-8" />
    </linearGradient>
    <linearGradient
       inkscape:collect="always"
       xlink:href="#SVGID_32_-70-6"
       id="linearGradient5716"
       gradientUnits="userSpaceOnUse"
       gradientTransform="matrix(-0.15945269,0,0,0.15945269,182.4897,1318.5805)"
       x1="462.67139"
       y1="637.58978"
       x2="647.41541"
       y2="637.58978" />
    <linearGradient
       id="SVGID_32_-70-6"
       gradientUnits="userSpaceOnUse"
       x1="462.67139"
       y1="637.58978"
       x2="647.41541"
       y2="637.58978"
       gradientTransform="matrix(-1,0,0,1,1790.99,0)">
      <stop
         offset="0"
         style="stop-color:#FFFFFF"
         id="stop271-06-5" />
      <stop
         offset="1"
         style="stop-color:#FFFFFF;stop-opacity:0"
         id="stop273-7-6" />
    </linearGradient>
    <radialGradient
       inkscape:collect="always"
       xlink:href="#linearGradient11011-8"
       id="radialGradient5637"
       gradientUnits="userSpaceOnUse"
       gradientTransform="matrix(6.0570444,0,0,4.0658247,32.631222,72.236241)"
       cx="15.285574"
       cy="33.370087"
       fx="15.285574"
       fy="33.370087"
       r="16" />
    <linearGradient
       id="linearGradient11011-8">
      <stop
         style="stop-color:#473f39;stop-opacity:1;"
         offset="0"
         id="stop11013-4" />
      <stop
         id="stop11015-7"
         offset="1"
         style="stop-color:#333333;stop-opacity:1" />
    </linearGradient>
    <linearGradient
       inkscape:collect="always"
       xlink:href="#linearGradient2798-4"
       id="linearGradient5640"
       gradientUnits="userSpaceOnUse"
       gradientTransform="matrix(4.3415262,-0.03904629,0.0469036,3.9548752,60.025849,82.891374)"
       x1="28.211048"
       y1="28.798056"
       x2="7.2296562"
       y2="4.2325583" />
    <linearGradient
       id="linearGradient2798-4">
      <stop
         id="stop2800-0"
         offset="0"
         style="stop-color:white;stop-opacity:0.19417475;" />
      <stop
         id="stop2802-6"
         offset="1"
         style="stop-color:white;stop-opacity:0;" />
    </linearGradient>
    <linearGradient
       inkscape:collect="always"
       xlink:href="#linearGradient2780-9"
       id="linearGradient5642"
       gradientUnits="userSpaceOnUse"
       gradientTransform="matrix(4.337074,0,0,3.5813187,58.456389,80.397522)"
       x1="20.539745"
       y1="5.9130735"
       x2="20.539745"
       y2="2.5" />
    <linearGradient
       id="linearGradient2780-9">
      <stop
         id="stop2782-9"
         offset="0"
         style="stop-color:black;stop-opacity:0;" />
      <stop
         id="stop2784-0"
         offset="1"
         style="stop-color:white;stop-opacity:0.23300971;" />
    </linearGradient>
  </defs>
  <sodipodi:namedview
     id="base"
     pagecolor="#ffffff"
     bordercolor="#666666"
     borderopacity="1.0"
     inkscape:pageopacity="0.0"
     inkscape:pageshadow="2"
     inkscape:zoom="2.8"
     inkscape:cx="184.72505"
     inkscape:cy="62.857143"
     inkscape:document-units="px"
     inkscape:current-layer="layer1"
     showgrid="false"
     inkscape:window-width="1280"
     inkscape:window-height="724"
     inkscape:window-x="0"
     inkscape:window-y="24"
     inkscape:window-maximized="1" />
  <metadata
     id="metadata5589">
    <rdf:RDF>
      <cc:Work
         rdf:about="">
        <dc:format>image/svg+xml</dc:format>
        <dc:type
           rdf:resource="http://purl.org/dc/dcmitype/StillImage" />
        <dc:title></dc:title>
      </cc:Work>
    </rdf:RDF>
  </metadata>
  <g
     inkscape:label="Camada 1"
     inkscape:groupmode="layer"
     id="layer1"
     transform="translate(0,-902.36218)">
    <g
       id="g5474"
       inkscape:label="Layer 1"
       transform="matrix(1.1754726,0,0,1.2560182,-110.59563,831.45019)"
       inkscape:export-filename="/home/phls/phls/eventos/sfd/2013/copiados/more.png"
       inkscape:export-xdpi="89.399742"
       inkscape:export-ydpi="89.399742">
      <g
         id="g5477"
         transform="translate(33.896361,-29.725923)">
        <g
           transform="translate(-3.8948346,-0.8103693)"
           id="g5479">
          <rect
             style="fill:#473f39;fill-opacity:1;stroke:#473f39;stroke-width:3.67841911;stroke-linecap:square;stroke-miterlimit:4;stroke-opacity:1;stroke-dasharray:none;stroke-dashoffset:0"
             id="rect5481"
             width="122.88433"
             height="113.27802"
             x="66.614555"
             y="89.626717"
             rx="3.7660799"
             ry="3.2878892" />
          <rect
             ry="8.6601305"
             rx="11.183187"
             y="89.783852"
             x="66.599976"
             height="113.27802"
             width="122.88433"
             id="rect5483"
             style="fill:url(#radialGradient5637);fill-opacity:1;stroke:#473f39;stroke-width:3.67841911;stroke-linecap:square;stroke-miterlimit:4;stroke-opacity:1;stroke-dasharray:none;stroke-dashoffset:0" />
          <path
             inkscape:connector-curvature="0"
             sodipodi:nodetypes="cccc"
             id="path5485"
             d="M 65.72758,197.5437 65.283339,92.360217 188.05925,92.984629 C 189.32244,199.49565 64.481225,92.452076 65.72758,197.5437 z"
             style="fill:url(#linearGradient5640);fill-opacity:1;fill-rule:evenodd;stroke:none" />
          <rect
             ry="5.2048764"
             rx="5.7716174"
             y="91.141487"
             x="67.130569"
             height="14.325252"
             width="121.85107"
             id="rect5487"
             style="fill:none;stroke:url(#linearGradient5642);stroke-width:3.94112182;stroke-linecap:square;stroke-miterlimit:4;stroke-opacity:1;stroke-dasharray:none;stroke-dashoffset:0" />
        </g>
      </g>
    </g>
    <g
       transform="matrix(1.2298113,0,0,1.2393396,-81.462359,-819.64185)"
       id="g5489"
       inkscape:export-filename="/home/phls/phls/eventos/sfd/2013/copiados/more.png"
       inkscape:export-xdpi="89.399742"
       inkscape:export-ydpi="89.399742">
      <g
         style="opacity:0.9"
         transform="matrix(0.15945269,0,0,0.15945269,-103.08847,1318.5805)"
         id="g5491">
        <linearGradient
           id="linearGradient5493"
           gradientUnits="userSpaceOnUse"
           x1="-1664.0215"
           y1="-3441.8408"
           x2="-1644.5204"
           y2="-3444.8438"
           gradientTransform="matrix(0.2376,-0.9714,-0.9714,-0.2376,-1794.35,-1897.84)">
          <stop
             offset="0"
             style="stop-color:#F7EC30"
             id="stop5495" />
          <stop
             offset="1"
             style="stop-color:#FAAE40"
             id="stop5498" />
        </linearGradient>
        <path
           d="m 1164.118,538.513 c 0,0 7.496,9.435 5.707,-0.229 -1.791,-9.665 -16.127,-28.551 -23.35,-23.98 -7.227,4.57 -3.574,8.335 0.963,10.764 4.541,2.428 13.486,8.582 16.68,13.445 z"
           id="path5500"
           inkscape:connector-curvature="0"
           style="fill:url(#linearGradient5645)" />
        <linearGradient
           id="linearGradient5502"
           gradientUnits="userSpaceOnUse"
           x1="-925.97803"
           y1="-8201.6367"
           x2="-905.17151"
           y2="-8204.8408"
           gradientTransform="matrix(0.8559,-0.5171,-0.5171,-0.8559,-2252.52,-6984.25)">
          <stop
             offset="0"
             style="stop-color:#F7EC30"
             id="stop5504" />
          <stop
             offset="1"
             style="stop-color:#FAAE40"
             id="stop5506" />
        </linearGradient>
        <path
           d="m 1202.237,523.854 c 0,0 -1.49,12.77 4.471,4.14 5.955,-8.629 9.438,-33.689 0.545,-35.706 -8.895,-2.019 -8.99,3.573 -7.408,8.831 1.583,5.257 3.665,16.658 2.392,22.735 z"
           id="path5508"
           inkscape:connector-curvature="0"
           style="fill:url(#linearGradient5647)" />
        <linearGradient
           id="linearGradient5510"
           gradientUnits="userSpaceOnUse"
           x1="-66.996101"
           y1="-10286.06"
           x2="-42.5634"
           y2="-10289.822"
           gradientTransform="matrix(0.9997,0.0244,0.0244,-0.9997,1562.12,-9766.4)">
          <stop
             offset="0"
             style="stop-color:#F7EC30"
             id="stop5512" />
          <stop
             offset="1"
             style="stop-color:#FAAE40"
             id="stop5514" />
        </linearGradient>
        <path
           d="m 1244.338,528.282 c 0,0 -9.543,11.699 1.805,6.922 11.348,-4.782 30.627,-27.39 23.094,-35.007 -7.531,-7.614 -11.16,-2.137 -12.91,4.068 -1.756,6.207 -6.895,18.804 -11.989,24.017 z"
           id="path5516"
           inkscape:connector-curvature="0"
           style="fill:url(#linearGradient5649)" />
        <linearGradient
           id="linearGradient5518"
           gradientUnits="userSpaceOnUse"
           x1="1313.8677"
           y1="-10460.59"
           x2="1338.9114"
           y2="-10464.446"
           gradientTransform="matrix(0.802,0.5973,0.5973,-0.802,6476.96,-8626.83)">
          <stop
             offset="0"
             style="stop-color:#F7EC30"
             id="stop5520" />
          <stop
             offset="1"
             style="stop-color:#FAAE40"
             id="stop5526" />
        </linearGradient>
        <path
           d="m 1274.813,558.616 c 0,0 -14.912,4.14 -2.586,6.859 12.326,2.715 41.84,-4.787 40.049,-15.621 -1.789,-10.833 -8.07,-8.397 -13.213,-4.241 -5.143,4.154 -16.9,11.656 -24.25,13.003 z"
           id="path5528"
           inkscape:connector-curvature="0"
           style="fill:url(#linearGradient5652)" />
        <linearGradient
           id="linearGradient5530"
           gradientUnits="userSpaceOnUse"
           x1="-1594.7344"
           y1="273.75201"
           x2="-1577.8234"
           y2="271.1478"
           gradientTransform="matrix(-0.3327,-0.943,-0.943,0.3327,859.108,-1024.23)">
          <stop
             offset="0"
             style="stop-color:#F7EC30"
             id="stop5533" />
          <stop
             offset="1"
             style="stop-color:#FAAE40"
             id="stop5535" />
        </linearGradient>
        <path
           d="m 1140.122,567.282 c 0,0 9.912,3.295 4.027,-2.868 -5.883,-6.168 -25.25,-13.072 -28.322,-6.325 -3.074,6.745 1.359,7.741 5.809,7.349 4.443,-0.392 13.859,-0.167 18.486,1.844 z"
           id="path5537"
           inkscape:connector-curvature="0"
           style="fill:url(#linearGradient5654)" />
        <linearGradient
           id="linearGradient5539"
           gradientUnits="userSpaceOnUse"
           x1="-1839.7549"
           y1="2328.082"
           x2="-1826.1986"
           y2="2325.9944"
           gradientTransform="matrix(-0.6493,-0.7605,-0.7605,0.6493,1703.57,-2306.63)">
          <stop
             offset="0"
             style="stop-color:#F7EC30"
             id="stop5541" />
          <stop
             offset="1"
             style="stop-color:#FAAE40"
             id="stop5544" />
        </linearGradient>
        <path
           d="m 1133.073,599.112 c 0,0 8.361,-0.392 2.186,-3.31 -6.18,-2.914 -22.656,-2.503 -23.012,3.43 -0.355,5.931 3.252,5.398 6.463,3.826 3.21,-1.576 10.318,-4.12 14.363,-3.946 z"
           id="path5546"
           inkscape:connector-curvature="0"
           style="fill:url(#linearGradient5656)" />
        <linearGradient
           id="linearGradient5549"
           gradientUnits="userSpaceOnUse"
           x1="-776.59668"
           y1="3306.3516"
           x2="-765.99219"
           y2="3304.7185"
           gradientTransform="matrix(-0.9803,-0.1975,-0.1975,0.9803,1031.18,-2761.68)">
          <stop
             offset="0"
             style="stop-color:#F7EC30"
             id="stop5553" />
          <stop
             offset="1"
             style="stop-color:#FAAE40"
             id="stop5555" />
        </linearGradient>
        <path
           d="m 1140.409,627.192 c 0,0 4.957,-4.282 -0.254,-3.095 -5.207,1.188 -15.152,9.398 -12.506,13.225 2.639,3.823 4.607,1.756 5.824,-0.764 1.219,-2.522 4.361,-7.519 6.936,-9.366 z"
           id="path5558"
           inkscape:connector-curvature="0"
           style="fill:url(#linearGradient5659)" />
      </g>
      <path
         style="opacity:0.9;fill:none"
         inkscape:connector-curvature="0"
         id="path5560"
         d="m 84.626422,1412.0714 c 1.206098,-2.8811 4.547267,-4.2274 7.462862,-3.0064 0.680542,0.2842 1.275942,0.6855 1.776459,1.167 -0.590771,-0.656 -1.333186,-1.196 -2.203315,-1.5607 -3.115869,-1.3045 -6.686486,0.1346 -7.975504,3.2135 -0.916215,2.1889 -0.432282,4.6162 1.042979,6.3061 0.145743,-0.2585 0.295784,-0.5136 0.451253,-0.7646 -1.04282,-1.5328 -1.317881,-3.5324 -0.554734,-5.3549 z" />
      <path
         style="opacity:0.9;fill:url(#linearGradient5661)"
         inkscape:connector-curvature="0"
         id="path5562"
         d="m 110.54577,1409.7336 c 0.18465,0 0.36962,-0.015 0.5549,-0.046 0.18464,-0.03 0.34936,-0.086 0.4943,-0.1638 0.14494,-0.079 0.26342,-0.1899 0.3559,-0.3342 0.0922,-0.1441 0.13888,-0.3295 0.13888,-0.5568 0,-0.1748 -0.0444,-0.3255 -0.13298,-0.4523 -0.0888,-0.1264 -0.20123,-0.2423 -0.33757,-0.347 -0.13697,-0.1046 -0.28956,-0.201 -0.45842,-0.2885 -0.16918,-0.087 -0.33788,-0.1834 -0.50674,-0.2883 -0.21734,-0.1397 -0.42223,-0.2885 -0.61501,-0.4455 -0.1931,-0.1572 -0.35781,-0.3341 -0.49494,-0.5306 -0.13665,-0.1966 -0.24508,-0.415 -0.32544,-0.6553 -0.0807,-0.2403 -0.12055,-0.5176 -0.12055,-0.8319 0,-0.402 0.0703,-0.7752 0.2108,-1.1206 0.14079,-0.3449 0.35,-0.644 0.62729,-0.8975 0.27744,-0.2532 0.62537,-0.452 1.04361,-0.5961 0.41792,-0.1442 0.90872,-0.2161 1.47159,-0.2161 0.2572,0 0.50674,0.024 0.74799,0.071 0.24126,0.049 0.46592,0.1069 0.67513,0.1768 0.20904,0.07 0.40022,0.1507 0.57307,0.2426 0.17284,0.091 0.31986,0.1815 0.44009,0.2687 l -0.78387,1.5068 c -0.20091,-0.1659 -0.44599,-0.3059 -0.73555,-0.4194 -0.28957,-0.1129 -0.60322,-0.1702 -0.94078,-0.1702 -0.18528,0 -0.36195,0.018 -0.53098,0.052 -0.16885,0.036 -0.31763,0.094 -0.4463,0.1768 -0.12868,0.083 -0.23105,0.19 -0.30743,0.3212 -0.0765,0.1308 -0.11464,0.2928 -0.11464,0.4846 0,0.1751 0.03,0.3213 0.0903,0.4392 0.0605,0.1177 0.13888,0.2207 0.23519,0.3079 0.0965,0.087 0.2092,0.1662 0.33788,0.2359 0.12867,0.07 0.26533,0.1441 0.41012,0.2226 0.24906,0.1398 0.49047,0.2884 0.72375,0.4455 0.23296,0.1573 0.43785,0.3386 0.61533,0.5438 0.17651,0.2055 0.31731,0.4389 0.42191,0.7011 0.10428,0.2621 0.15658,0.572 0.15658,0.9301 0,0.498 -0.0843,0.9305 -0.25321,1.2974 -0.16886,0.3669 -0.40613,0.6728 -0.71164,0.9173 -0.30583,0.2446 -0.66954,0.4259 -1.09193,0.5438 -0.42192,0.1176 -0.89039,0.1768 -1.4051,0.1768 -0.33756,0 -0.65343,-0.03 -0.94699,-0.091 -0.29339,-0.062 -0.55872,-0.1331 -0.79566,-0.2161 -0.23759,-0.083 -0.44248,-0.1724 -0.61534,-0.2686 -0.17316,-0.096 -0.31172,-0.1834 -0.41601,-0.2622 l 0.79599,-1.5594 c 0.0965,0.07 0.21303,0.1441 0.34968,0.2228 0.13665,0.079 0.29148,0.1529 0.46433,0.2228 0.17284,0.07 0.35589,0.1289 0.549,0.1768 0.19309,0.049 0.39432,0.072 0.60352,0.072 z" />
      <path
         style="opacity:0.9;fill:url(#linearGradient5663)"
         inkscape:connector-curvature="0"
         id="path5564"
         d="m 117.10151,1411.4369 c -0.42638,0 -0.7963,-0.07 -1.10964,-0.2094 -0.31364,-0.1397 -0.57307,-0.3364 -0.77827,-0.5899 -0.20491,-0.253 -0.36005,-0.5522 -0.46402,-0.8976 -0.1046,-0.3449 -0.15721,-0.7272 -0.15721,-1.1463 0,-0.5242 0.0788,-1.0484 0.2355,-1.5723 0.15659,-0.5242 0.38811,-0.996 0.69363,-1.4154 0.3055,-0.4193 0.67958,-0.7618 1.12174,-1.0287 0.44216,-0.2663 0.94891,-0.3995 1.52006,-0.3995 0.41761,0 0.78578,0.07 1.10342,0.2096 0.31762,0.1398 0.57897,0.3363 0.78419,0.5896 0.2049,0.2536 0.35972,0.5526 0.46432,0.8976 0.10428,0.3454 0.15658,0.7273 0.15658,1.1467 0,0.5239 -0.0764,1.048 -0.22929,1.5723 -0.1526,0.5241 -0.37806,0.996 -0.67544,1.4152 -0.29738,0.4193 -0.66922,0.762 -1.11553,1.0285 -0.44631,0.2663 -0.96309,0.3996 -1.55004,0.3996 z m 0.89245,-5.6083 c -0.26532,0 -0.4986,0.083 -0.69951,0.249 -0.20155,0.1662 -0.37025,0.3756 -0.50674,0.629 -0.13665,0.2536 -0.2395,0.5306 -0.30743,0.8321 -0.0689,0.3015 -0.10284,0.5877 -0.10284,0.8584 0,0.4454 0.0641,0.7884 0.1931,1.0286 0.12867,0.2402 0.36195,0.3602 0.69983,0.3602 0.26501,0 0.4983,-0.083 0.69921,-0.249 0.20122,-0.1658 0.36993,-0.3753 0.50706,-0.6288 0.13633,-0.2534 0.23918,-0.5308 0.30742,-0.8322 0.0682,-0.3014 0.10253,-0.5875 0.10253,-0.8581 0,-0.4459 -0.0641,-0.7883 -0.19277,-1.0288 -0.12901,-0.2402 -0.36228,-0.3604 -0.69985,-0.3604 z" />
      <path
         style="opacity:0.9;fill:url(#linearGradient5666)"
         inkscape:connector-curvature="0"
         id="path5566"
         d="m 127.01501,1402.6445 1.86989,-0.3143 -0.45842,2.0308 h 2.26103 l -0.36195,1.5984 h -2.24892 l -0.53066,2.4113 c -0.0484,0.201 -0.0785,0.3887 -0.0906,0.5635 -0.0121,0.1747 0.008,0.3254 0.0605,0.452 0.0523,0.1267 0.14271,0.2249 0.27155,0.2949 0.12835,0.07 0.30518,0.1046 0.53066,0.1046 0.19277,0 0.37997,-0.019 0.56063,-0.059 0.1813,-0.039 0.36371,-0.094 0.549,-0.1637 l 0.13267,1.4939 c -0.24141,0.096 -0.5026,0.1791 -0.78388,0.2489 -0.28191,0.07 -0.61532,0.1046 -1.0012,0.1046 -0.55489,0 -0.98542,-0.089 -1.29093,-0.2686 -0.30551,-0.1791 -0.52252,-0.4237 -0.6512,-0.734 -0.12869,-0.3099 -0.18496,-0.6658 -0.16886,-1.0679 0.016,-0.4019 0.0722,-0.8256 0.16886,-1.2711 l 1.18186,-5.4248 z" />
      <path
         style="opacity:0.9;fill:url(#linearGradient5668)"
         inkscape:connector-curvature="0"
         id="path5568"
         d="m 134.36226,1407.2178 c -0.15323,0.3582 -0.32385,0.7227 -0.51265,1.0939 -0.1891,0.3715 -0.38236,0.7339 -0.57928,1.0876 -0.19708,0.3538 -0.38811,0.6902 -0.57276,1.0089 -0.18528,0.319 -0.34967,0.6007 -0.49461,0.8452 h -1.39952 c -0.0641,-0.3669 -0.13043,-0.8035 -0.19868,-1.3102 -0.0686,-0.5067 -0.1349,-1.0593 -0.19931,-1.6577 -0.0644,-0.5983 -0.12279,-1.2319 -0.17477,-1.9001 -0.0526,-0.6681 -0.0902,-1.3432 -0.11464,-2.0244 h 1.76115 c 0,0.3145 0.002,0.6551 0.006,1.022 0.004,0.3671 0.0121,0.747 0.0239,1.1401 0.0121,0.3931 0.0302,0.7947 0.0545,1.2055 0.0239,0.4107 0.0561,0.817 0.0963,1.2188 0.20122,-0.3669 0.40022,-0.749 0.5973,-1.1466 0.19677,-0.3974 0.38588,-0.7947 0.56687,-1.1925 0.18096,-0.3975 0.34967,-0.7882 0.50672,-1.1727 0.15659,-0.3843 0.29531,-0.7424 0.41634,-1.0743 h 1.49551 c 0,0.6288 0.01,1.3319 0.0301,2.1095 0.02,0.7776 0.0704,1.6032 0.15068,2.4766 0.21733,-0.3932 0.41792,-0.7972 0.60321,-1.2122 0.18497,-0.4149 0.35558,-0.8234 0.51263,-1.2253 0.15659,-0.4017 0.29738,-0.7861 0.42193,-1.153 0.12484,-0.3669 0.23518,-0.6989 0.33165,-0.9959 h 1.90627 c -0.16106,0.4368 -0.35192,0.9283 -0.57308,1.4742 -0.22116,0.546 -0.47644,1.1201 -0.76586,1.7232 -0.28956,0.6027 -0.61564,1.2187 -0.97728,1.8475 -0.36195,0.629 -0.76426,1.2449 -1.20642,1.8476 h -1.39888 c -0.0967,-0.716 -0.16918,-1.402 -0.21701,-2.0572 -0.0485,-0.6551 -0.0806,-1.3146 -0.0963,-1.9785 z" />
      <path
         style="opacity:0.9;fill:url(#linearGradient5670)"
         inkscape:connector-curvature="0"
         id="path5570"
         d="m 144.45721,1408.2791 c -0.11268,0.498 -0.14479,0.9982 -0.0965,1.5003 0.0484,0.5025 0.14048,0.9501 0.27745,1.3431 l -1.60426,0.2491 c -0.0484,-0.1046 -0.0928,-0.2051 -0.13266,-0.3014 -0.0405,-0.096 -0.0807,-0.2052 -0.12087,-0.3277 -0.22514,0.2011 -0.47468,0.3669 -0.74766,0.498 -0.27347,0.1309 -0.57898,0.1964 -0.91685,0.1964 -0.40199,0 -0.74594,-0.076 -1.03118,-0.2293 -0.28559,-0.1527 -0.51886,-0.3581 -0.69984,-0.6158 -0.18099,-0.2576 -0.31174,-0.5592 -0.3921,-0.9042 -0.0803,-0.345 -0.12054,-0.7142 -0.12054,-1.1071 0,-0.6028 0.0984,-1.1707 0.29562,-1.7036 0.19724,-0.5328 0.47054,-0.998 0.82039,-1.3955 0.34967,-0.3974 0.76169,-0.7097 1.23639,-0.937 0.47437,-0.2272 0.98908,-0.3407 1.54382,-0.3407 0.0723,0 0.19931,0.012 0.37997,0.013 0.18099,0.012 0.3881,0.029 0.62123,0.06 0.23327,0.031 0.47868,0.081 0.73556,0.1504 0.25752,0.07 0.50259,0.1662 0.7362,0.2887 l -0.7842,3.5642 z m -1.25442,-2.4111 c -0.10458,-0.017 -0.19931,-0.03 -0.28335,-0.039 -0.0846,-0.012 -0.18687,-0.013 -0.30773,-0.013 -0.27347,0 -0.52875,0.075 -0.76586,0.2226 -0.23758,0.1485 -0.44471,0.3427 -0.62123,0.5831 -0.17682,0.2404 -0.31571,0.5173 -0.41632,0.8319 -0.10067,0.3147 -0.15068,0.6422 -0.15068,0.9828 0,0.4193 0.0644,0.7515 0.19308,0.996 0.12868,0.2446 0.36563,0.3669 0.71165,0.3669 0.18496,0 0.35159,-0.039 0.50083,-0.1177 0.14862,-0.078 0.30776,-0.2095 0.47614,-0.3931 0.0163,-0.2183 0.0424,-0.4479 0.0784,-0.688 0.0365,-0.2399 0.0745,-0.4606 0.11493,-0.6615 l 0.47007,-2.0705 z" />
      <path
         style="opacity:0.9;fill:url(#linearGradient5673)"
         inkscape:connector-curvature="0"
         id="path5572"
         d="m 149.89853,1406.0384 c -0.16136,-0.043 -0.31986,-0.086 -0.47644,-0.1243 -0.15691,-0.039 -0.38843,-0.06 -0.69394,-0.06 -0.11279,0 -0.23694,0.012 -0.37375,0.033 -0.13666,0.023 -0.24908,0.046 -0.33789,0.071 l -1.16974,5.2941 h -1.79721 l 1.44752,-6.5256 c 0.34538,-0.1223 0.73349,-0.238 1.16385,-0.3473 0.42972,-0.1093 0.9143,-0.1638 1.45342,-0.1638 0.2009,0 0.42382,0.02 0.66954,0.06 0.24508,0.039 0.46035,0.1034 0.64498,0.1899 l -0.53034,1.5726 z" />
      <path
         style="opacity:0.9;fill:url(#linearGradient5675)"
         inkscape:connector-curvature="0"
         id="path5574"
         d="m 149.81674,1408.5542 c 0,-0.5589 0.0902,-1.1008 0.27123,-1.6249 0.18096,-0.524 0.43594,-0.9893 0.76585,-1.3954 0.3299,-0.4062 0.72997,-0.7338 1.20019,-0.9827 0.47054,-0.2491 0.99101,-0.3737 1.56248,-0.3737 0.28096,0 0.54245,0.044 0.78387,0.1311 0.2411,0.088 0.45222,0.2142 0.63319,0.38 0.18098,0.166 0.32145,0.3693 0.4219,0.6095 0.10067,0.2402 0.15102,0.5132 0.15102,0.8189 0,0.4894 -0.10091,0.9043 -0.30185,1.2448 -0.20091,0.3406 -0.48059,0.618 -0.83809,0.8321 -0.35781,0.2143 -0.78228,0.3693 -1.27276,0.4652 -0.49046,0.096 -1.02495,0.1441 -1.60424,0.1441 0.0565,0.3669 0.17906,0.6271 0.36786,0.7798 0.18911,0.153 0.48855,0.2293 0.89883,0.2293 0.2572,0 0.51886,-0.024 0.78388,-0.072 0.26563,-0.048 0.51454,-0.1198 0.74766,-0.216 l 0.13298,1.5331 c -0.22546,0.096 -0.51263,0.1834 -0.86264,0.2622 -0.34935,0.078 -0.72933,0.1177 -1.13976,0.1177 -0.49861,0 -0.91876,-0.076 -1.26032,-0.2293 -0.34202,-0.1527 -0.61947,-0.3604 -0.83218,-0.6223 -0.21335,-0.2622 -0.36818,-0.568 -0.46465,-0.9173 -0.0965,-0.3494 -0.14445,-0.721 -0.14445,-1.1141 z m 3.50971,-2.8303 c -0.40981,0 -0.76984,0.1595 -1.0795,0.4781 -0.30982,0.319 -0.51264,0.7404 -0.6091,1.2648 0.4986,-0.017 0.90057,-0.063 1.20609,-0.1377 0.30552,-0.074 0.54311,-0.1638 0.71164,-0.2686 0.16887,-0.1046 0.2816,-0.2183 0.33789,-0.3409 0.0561,-0.1222 0.0844,-0.2443 0.0844,-0.3668 1.5e-4,-0.4192 -0.21686,-0.6289 -0.65137,-0.6289 z" />
      <polygon
         transform="matrix(0.15945269,0,0,0.15945269,-103.08847,1318.5805)"
         points="1421.684,547.994 1421.512,548.777 1421.686,547.994 "
         id="polygon5576"
         style="opacity:0.9;fill:url(#linearGradient5677)" />
      <polygon
         transform="matrix(0.15945269,0,0,0.15945269,-103.08847,1318.5805)"
         points="1437.192,537.969 1427.333,537.969 1425.147,547.994 1434.922,547.994 "
         id="polygon5578"
         style="opacity:0.9;fill:url(#linearGradient5680)" />
      <path
         d="m 126.46776,1401.2097 c -0.26964,-0.083 -0.5852,-0.1245 -0.94699,-0.1245 -0.94891,0 -1.68478,0.2537 -2.20747,0.76 -0.52283,0.507 -0.8848,1.2232 -1.0857,2.1492 l -1.2541,5.7132 c -0.0647,0.3059 -0.14702,0.6355 -0.24763,0.9893 -0.0713,0.2505 -0.15611,0.4963 -0.24731,0.7403 h 1.80564 c 0.2049,-0.5879 0.39959,-1.2981 0.58296,-2.1357 l 0.69952,-3.178 0.009,-0.039 0.0274,-0.1248 h 0 l 0.35319,-1.5983 h -0.003 l 0.0722,-0.341 c 0.0804,-0.3669 0.22738,-0.6724 0.44041,-0.9172 0.21271,-0.2445 0.54103,-0.3669 0.98287,-0.3669 0.16105,0 0.33564,0.019 0.52476,0.059 0.18911,0.039 0.35589,0.099 0.50084,0.1767 l 0.60289,-1.533 c -0.13682,-0.07 -0.33964,-0.1463 -0.60895,-0.2294 z"
         id="path5580"
         inkscape:connector-curvature="0"
         style="opacity:0.9;fill:url(#linearGradient5682)" />
      <path
         d="m 114.33532,1422.4901 2.00225,-9.0808 h 5.41613 l -0.38587,1.6906 h -3.53459 l -0.42223,1.9393 h 3.12431 l -0.37376,1.6903 h -3.12431 l -0.8325,3.7607 h -1.86943 z"
         id="path5582"
         inkscape:connector-curvature="0"
         style="opacity:0.9;fill:url(#linearGradient5684)" />
      <path
         d="m 125.2902,1417.2748 c -0.16105,-0.043 -0.31954,-0.084 -0.47644,-0.1242 -0.1569,-0.039 -0.38811,-0.059 -0.69362,-0.059 -0.11273,0 -0.23726,0.012 -0.37408,0.032 -0.13665,0.023 -0.24906,0.046 -0.33788,0.072 l -1.16974,5.2939 h -1.7972 l 1.44752,-6.5254 c 0.34569,-0.1223 0.73348,-0.238 1.16384,-0.3474 0.43005,-0.1094 0.91463,-0.1638 1.45341,-0.1638 0.20091,0 0.42415,0.019 0.66955,0.058 0.24508,0.039 0.46033,0.1034 0.6453,0.19 l -0.53066,1.5726 z"
         id="path5584"
         inkscape:connector-curvature="0"
         style="opacity:0.9;fill:url(#linearGradient5687)" />
      <path
         d="m 125.20825,1419.7909 c 0,-0.5591 0.0902,-1.101 0.27122,-1.625 0.18098,-0.5242 0.43595,-0.9893 0.76617,-1.3955 0.32943,-0.4063 0.72966,-0.7338 1.19988,-0.9827 0.47055,-0.249 0.99101,-0.3736 1.56248,-0.3736 0.28127,0 0.54246,0.043 0.78387,0.131 0.24141,0.088 0.45253,0.2143 0.63383,0.3801 0.18065,0.166 0.32113,0.3692 0.42191,0.6092 0.1003,0.2406 0.15068,0.5134 0.15068,0.8192 0,0.4892 -0.10061,0.9041 -0.30185,1.2448 -0.20091,0.3407 -0.48059,0.6181 -0.8384,0.8321 -0.35781,0.2141 -0.78195,0.369 -1.27243,0.4652 -0.49079,0.096 -1.0256,0.144 -1.60441,0.144 0.0565,0.3669 0.17906,0.627 0.36818,0.7799 0.18879,0.1529 0.48824,0.2293 0.89851,0.2293 0.25751,0 0.51886,-0.024 0.78387,-0.072 0.26565,-0.049 0.51487,-0.1199 0.74799,-0.2162 l 0.13267,1.5331 c -0.22515,0.096 -0.51264,0.1834 -0.86233,0.2623 -0.34967,0.078 -0.72965,0.1177 -1.13976,0.1177 -0.4986,0 -0.91877,-0.076 -1.26064,-0.2293 -0.34186,-0.1528 -0.61915,-0.3604 -0.83218,-0.6222 -0.21335,-0.2623 -0.36785,-0.568 -0.46433,-0.9174 -0.0969,-0.3496 -0.14493,-0.721 -0.14493,-1.114 z m 3.50986,-2.8304 c -0.40979,0 -0.77015,0.1595 -1.07916,0.478 -0.30983,0.3192 -0.51265,0.7406 -0.60944,1.2649 0.49861,-0.017 0.90059,-0.063 1.20642,-0.1377 0.30519,-0.074 0.54278,-0.1637 0.71131,-0.2688 0.16919,-0.1046 0.2816,-0.2182 0.33788,-0.3406 0.0561,-0.1222 0.0844,-0.2445 0.0844,-0.367 1.5e-4,-0.4192 -0.21654,-0.6288 -0.65138,-0.6288 z"
         id="path5586"
         inkscape:connector-curvature="0"
         style="opacity:0.9;fill:url(#linearGradient5689)" />
      <path
         d="m 131.02125,1419.7909 c 0,-0.5591 0.0902,-1.101 0.27123,-1.625 0.18097,-0.5242 0.43595,-0.9893 0.76584,-1.3955 0.32975,-0.4063 0.7303,-0.7338 1.20021,-0.9827 0.47054,-0.249 0.99132,-0.3736 1.56247,-0.3736 0.28128,0 0.54247,0.043 0.78387,0.131 0.24142,0.088 0.4522,0.2143 0.63351,0.3801 0.18066,0.166 0.32114,0.3692 0.42191,0.6092 0.10032,0.2406 0.15068,0.5134 0.15068,0.8192 0,0.4892 -0.10066,0.9041 -0.30184,1.2448 -0.20091,0.3407 -0.48027,0.6181 -0.83809,0.8321 -0.3578,0.2141 -0.78195,0.369 -1.27243,0.4652 -0.4908,0.096 -1.02527,0.144 -1.60441,0.144 0.0564,0.3669 0.17907,0.627 0.36818,0.7799 0.18879,0.1529 0.48824,0.2293 0.89852,0.2293 0.25719,0 0.51886,-0.024 0.78418,-0.072 0.26534,-0.049 0.51456,-0.1199 0.74767,-0.2162 l 0.13268,1.5331 c -0.22515,0.096 -0.51265,0.1834 -0.86233,0.2623 -0.34969,0.078 -0.72966,0.1177 -1.13977,0.1177 -0.4986,0 -0.91876,-0.076 -1.26032,-0.2293 -0.34218,-0.1526 -0.61946,-0.3604 -0.83249,-0.6222 -0.21335,-0.2623 -0.36817,-0.568 -0.46464,-0.9174 -0.0965,-0.3493 -0.14463,-0.721 -0.14463,-1.114 z m 3.51003,-2.8304 c -0.41011,0 -0.77016,0.1595 -1.07965,0.478 -0.30951,0.3192 -0.51265,0.7406 -0.60911,1.2649 0.49861,-0.017 0.90058,-0.063 1.20642,-0.1377 0.30519,-0.074 0.54277,-0.1637 0.7113,-0.2688 0.1692,-0.1046 0.2816,-0.2182 0.3379,-0.3406 0.0561,-0.1222 0.0846,-0.2445 0.0846,-0.367 0,-0.4192 -0.21733,-0.6288 -0.65152,-0.6288 z"
         id="path5588"
         inkscape:connector-curvature="0"
         style="opacity:0.9;fill:url(#linearGradient5691)" />
      <path
         d="m 145.86773,1422.6735 c -0.42669,0 -0.79631,-0.07 -1.10996,-0.2095 -0.31364,-0.1397 -0.57306,-0.3363 -0.77797,-0.5898 -0.20521,-0.253 -0.36036,-0.5523 -0.46432,-0.8974 -0.10459,-0.3449 -0.15691,-0.7275 -0.15691,-1.1466 0,-0.5241 0.0785,-1.0483 0.2352,-1.5724 0.15691,-0.524 0.38811,-0.9959 0.69394,-1.4151 0.3052,-0.4194 0.67926,-0.762 1.12175,-1.0287 0.44184,-0.2664 0.94859,-0.3997 1.51975,-0.3997 0.41792,0 0.78577,0.07 1.10373,0.2097 0.31731,0.1399 0.57865,0.3364 0.78418,0.5895 0.2049,0.2536 0.35941,0.5527 0.46401,0.8976 0.10423,0.3453 0.1569,0.7273 0.1569,1.1466 0,0.5241 -0.0765,1.0482 -0.22929,1.5724 -0.15292,0.5241 -0.37806,0.9958 -0.67545,1.415 -0.29738,0.4196 -0.66953,0.7625 -1.11584,1.0288 -0.44631,0.2662 -0.96294,0.3996 -1.54972,0.3996 z m 0.89261,-5.6084 c -0.26564,0 -0.49893,0.083 -0.69983,0.2491 -0.20123,0.1662 -0.36993,0.3757 -0.50674,0.6289 -0.13666,0.2535 -0.23919,0.5306 -0.30744,0.8322 -0.0686,0.3015 -0.1028,0.5877 -0.1028,0.8583 0,0.4455 0.0644,0.7885 0.1931,1.0286 0.12868,0.2404 0.36195,0.3604 0.69983,0.3604 0.26534,0 0.4983,-0.083 0.69952,-0.2491 0.20092,-0.1656 0.36961,-0.3753 0.50675,-0.6287 0.13633,-0.2534 0.23917,-0.5308 0.30742,-0.8322 0.0682,-0.3015 0.10257,-0.5874 0.10257,-0.8583 0,-0.4456 -0.0641,-0.7882 -0.19278,-1.0286 -0.12868,-0.2403 -0.36228,-0.3606 -0.69953,-0.3606 z"
         id="path5590"
         inkscape:connector-curvature="0"
         style="opacity:0.9;fill:url(#linearGradient5694)" />
      <path
         d="m 150.80789,1415.912 c 0.13666,-0.043 0.28334,-0.094 0.44041,-0.1507 0.15689,-0.056 0.33358,-0.1093 0.53066,-0.1569 0.19677,-0.049 0.41793,-0.087 0.66331,-0.1176 0.24541,-0.03 0.52844,-0.045 0.85053,-0.045 0.38588,0 0.70574,0.052 0.95896,0.1572 0.2532,0.1046 0.48425,0.262 0.69362,0.4715 0.29738,-0.1834 0.593,-0.3342 0.8867,-0.4519 0.2934,-0.1176 0.63718,-0.1768 1.03119,-0.1768 0.37806,0 0.70159,0.055 0.97106,0.1638 0.26948,0.1093 0.49272,0.2662 0.66954,0.4715 0.17684,0.2056 0.30551,0.4499 0.38588,0.734 0.0803,0.2839 0.12086,0.5962 0.12086,0.9369 0,0.1572 -0.0107,0.3232 -0.0301,0.498 -0.0202,0.1747 -0.0504,0.3493 -0.0906,0.524 l -0.82039,3.7214 h -1.7972 l 0.79632,-3.6428 c 0.0239,-0.1222 0.05,-0.2598 0.0781,-0.4127 0.0284,-0.1526 0.0424,-0.3035 0.0424,-0.4523 0,-0.244 -0.0523,-0.4562 -0.15658,-0.6352 -0.10459,-0.1791 -0.30982,-0.2688 -0.61533,-0.2688 -0.16886,0 -0.32975,0.032 -0.48235,0.099 -0.15291,0.065 -0.28956,0.1335 -0.41011,0.203 0.0163,0.07 0.0243,0.1358 0.0243,0.1966 0,0.061 0,0.1177 0,0.1703 0,0.1573 -0.0107,0.3232 -0.0301,0.498 -0.0202,0.1748 -0.0504,0.3493 -0.0906,0.5241 l -0.82006,3.7213 h -1.7972 l 0.79599,-3.6428 c 0.0242,-0.1221 0.05,-0.2598 0.0781,-0.4127 0.0284,-0.1526 0.0427,-0.3034 0.0427,-0.4522 0,-0.2441 -0.0526,-0.4562 -0.15689,-0.6353 -0.10459,-0.1791 -0.30982,-0.2688 -0.61532,-0.2688 -0.1287,0 -0.23696,0.012 -0.32577,0.02 -0.0885,0.013 -0.19277,0.033 -0.31365,0.059 l -1.16975,5.3328 h -1.79718 l 1.45851,-6.5777 z"
         id="path5592"
         inkscape:connector-curvature="0"
         style="opacity:0.9;fill:url(#linearGradient5696)" />
      <path
         d="m 169.8542,1416.9471 c 0,0.8826 -0.13267,1.6731 -0.398,2.3719 -0.26533,0.6989 -0.64531,1.2908 -1.13977,1.7756 -0.49463,0.4849 -1.09592,0.8583 -1.80325,1.1204 -0.70781,0.262 -1.50794,0.393 -2.40055,0.393 -0.33789,0 -0.72775,-0.021 -1.17007,-0.065 -0.44248,-0.043 -0.86854,-0.1141 -1.27881,-0.2096 l 1.94213,-8.7662 c 0.45843,-0.096 0.89852,-0.1638 1.32075,-0.203 0.42222,-0.039 0.8022,-0.059 1.14009,-0.059 0.59476,0 1.12764,0.088 1.59788,0.2622 0.47053,0.1747 0.86853,0.4237 1.19429,0.7469 0.32544,0.3231 0.57307,0.7076 0.74178,1.1532 0.16902,0.4451 0.25353,0.9388 0.25353,1.4803 z m -5.99479,3.905 c 0.0882,0.012 0.17874,0.015 0.27091,0.02 0.0925,0.012 0.21925,0.012 0.38029,0.012 0.52252,0 0.995,-0.087 1.41706,-0.2623 0.42255,-0.1744 0.78021,-0.4258 1.07376,-0.7534 0.29371,-0.3276 0.52077,-0.7293 0.68134,-1.2057 0.16057,-0.4762 0.24141,-1.0108 0.24141,-1.6051 0,-0.3058 -0.0365,-0.5832 -0.10875,-0.832 -0.0723,-0.249 -0.19086,-0.4627 -0.35558,-0.6422 -0.16471,-0.1787 -0.37805,-0.3164 -0.6394,-0.4126 -0.26134,-0.096 -0.57706,-0.1442 -0.94699,-0.1442 -0.24109,0 -0.48649,0.013 -0.73556,0.039 l -1.27849,5.7919 z"
         id="path5594"
         inkscape:connector-curvature="0"
         style="opacity:0.9;fill:url(#linearGradient5698)" />
      <path
         d="m 175.67263,1419.5155 c -0.11279,0.498 -0.14447,0.9981 -0.0965,1.5004 0.0486,0.5022 0.14079,0.9498 0.27777,1.343 l -1.60442,0.2491 c -0.0484,-0.1046 -0.0925,-0.2051 -0.13266,-0.3015 -0.0405,-0.096 -0.0807,-0.2052 -0.12086,-0.3276 -0.22484,0.2011 -0.4747,0.367 -0.74768,0.4979 -0.27346,0.1311 -0.57897,0.1965 -0.91686,0.1965 -0.40197,0 -0.74559,-0.076 -1.03117,-0.2293 -0.28559,-0.1528 -0.51854,-0.3582 -0.69983,-0.6157 -0.18067,-0.2579 -0.31174,-0.5592 -0.39211,-0.9044 -0.0801,-0.3449 -0.12022,-0.7142 -0.12022,-1.107 0,-0.6029 0.0984,-1.1708 0.2953,-1.7036 0.19708,-0.533 0.47055,-0.9979 0.82039,-1.3956 0.35,-0.3973 0.76171,-0.7095 1.23639,-0.9368 0.4747,-0.2272 0.98941,-0.3407 1.54415,-0.3407 0.0723,0 0.199,0.012 0.37997,0.013 0.18098,0.012 0.38779,0.029 0.62107,0.06 0.23327,0.031 0.47868,0.081 0.73588,0.1506 0.25719,0.07 0.50228,0.166 0.73587,0.2884 l -0.78451,3.5643 z m -1.25441,-2.4112 c -0.10459,-0.017 -0.199,-0.03 -0.28336,-0.039 -0.0844,-0.012 -0.18688,-0.013 -0.30774,-0.013 -0.27347,0 -0.52875,0.075 -0.76585,0.2226 -0.23727,0.1487 -0.44472,0.3429 -0.62123,0.5834 -0.17684,0.2404 -0.31571,0.5173 -0.41601,0.8318 -0.10091,0.3146 -0.151,0.6422 -0.151,0.9829 0,0.4193 0.0644,0.7515 0.19309,0.9959 0.12869,0.2445 0.36594,0.3669 0.71196,0.3669 0.18465,0 0.35127,-0.039 0.50052,-0.1177 0.14862,-0.078 0.30775,-0.2096 0.47645,-0.3931 0.0163,-0.2181 0.0421,-0.4479 0.0781,-0.688 0.0365,-0.2402 0.0744,-0.4606 0.11493,-0.6617 l 0.47007,-2.0705 z"
         id="path5596"
         inkscape:connector-curvature="0"
         style="opacity:0.9;fill:url(#linearGradient5701)" />
      <path
         d="m 181.10454,1415.5976 h -0.004 -0.13489 c -0.25752,0.926 -0.5329,1.7734 -0.8263,2.5419 -0.2937,0.7689 -0.63318,1.4679 -1.01937,2.0966 -0.0484,-0.3145 -0.0925,-0.6682 -0.13267,-1.0614 -0.0405,-0.393 -0.0765,-0.7969 -0.10839,-1.2121 -0.01,-0.12 -0.0159,-0.2382 -0.0246,-0.3579 -0.0213,-0.2942 -0.0427,-0.5883 -0.0601,-0.8803 -0.0239,-0.4104 -0.0405,-0.7862 -0.048,-1.1268 h -1.84582 c 0.0644,1.3629 0.18274,2.5859 0.35589,3.6691 0.16822,1.0535 0.35351,2.0059 0.55618,2.8609 -0.0239,0.077 -0.0478,0.1556 -0.0735,0.2325 -0.0692,0.2071 -1.07343,2.148 -1.28248,2.3575 l 0.57611,0.089 1.02798,0.1596 c 0.38588,-0.3144 2.37409,-3.9048 2.63943,-4.3766 0.26533,-0.4717 0.52252,-0.9673 0.77206,-1.4871 0.24907,-0.5198 0.48857,-1.0679 0.71786,-1.6445 0.22898,-0.5765 0.45588,-1.1969 0.68134,-1.8606 h -1.76673 z"
         id="path5598"
         inkscape:connector-curvature="0"
         style="opacity:0.9;fill:url(#linearGradient5703)" />
      <path
         d="m 140.9231,1417.1109 c -0.0365,-0.012 -0.0826,-0.012 -0.13856,-0.012 -0.0565,0 -0.129,0 -0.21733,0 -0.2816,0 -0.54279,0.072 -0.78388,0.2161 -0.24141,0.1441 -0.44838,0.3388 -0.62123,0.5833 -0.17316,0.2446 -0.30774,0.5219 -0.40421,0.8322 -0.0963,0.3101 -0.14478,0.6269 -0.14478,0.9499 0,0.4193 0.0663,0.7492 0.19932,0.9892 0.13266,0.2406 0.37153,0.3604 0.71753,0.3604 0.18496,0 0.35382,-0.039 0.50674,-0.1176 0.15259,-0.078 0.31365,-0.2097 0.48235,-0.3932 0.0159,-0.2182 0.0424,-0.4478 0.0784,-0.6879 0.0363,-0.2402 0.0742,-0.4607 0.11469,-0.6618 l 0.44633,-2.0176 c -0.0484,-0.012 -0.0902,-0.017 -0.12677,-0.026 -0.0364,-0.012 -0.0724,-0.015 -0.10863,-0.02 z"
         id="path5600"
         inkscape:connector-curvature="0"
         style="opacity:0.9;fill:none" />
      <path
         d="m 143.89545,1412.926 h -1.80005 l -0.58742,2.6716 c -0.12868,-0.034 -0.25545,-0.061 -0.37998,-0.078 -0.12486,-0.017 -0.25943,-0.026 -0.4039,-0.026 -0.56302,0 -1.08188,0.1141 -1.55626,0.3407 -0.47469,0.2274 -0.88448,0.5372 -1.23049,0.9303 -0.3457,0.3934 -0.61693,0.8538 -0.81401,1.3824 -0.19708,0.5287 -0.29562,1.09 -0.29562,1.6841 0,0.393 0.0424,0.762 0.12676,1.1069 0.0844,0.3454 0.21701,0.647 0.398,0.9043 0.18097,0.2576 0.41425,0.4609 0.69951,0.6093 0.28558,0.1486 0.62937,0.2226 1.0315,0.2226 0.33789,0 0.64531,-0.065 0.92276,-0.1964 0.27745,-0.131 0.52843,-0.2968 0.75404,-0.4979 0.0402,0.1223 0.0803,0.2315 0.12055,0.3276 0.0402,0.096 0.0844,0.1964 0.13299,0.3015 l 1.60393,-0.2491 c -0.13665,-0.3932 -0.22929,-0.8407 -0.27713,-1.3431 -0.0484,-0.5022 -0.0163,-1.0025 0.0965,-1.5005 l 1.45835,-6.5896 z m -3.18347,6.2489 c -0.0405,0.2012 -0.0784,0.4218 -0.11469,0.6617 -0.0361,0.2403 -0.0626,0.4697 -0.0784,0.6878 -0.16886,0.1834 -0.32975,0.3146 -0.48234,0.3933 -0.15292,0.078 -0.32178,0.1177 -0.50674,0.1177 -0.34601,0 -0.58488,-0.1198 -0.71754,-0.3605 -0.13299,-0.24 -0.19932,-0.5699 -0.19932,-0.9892 0,-0.3229 0.0486,-0.6398 0.14479,-0.9499 0.0965,-0.3102 0.23105,-0.5876 0.40421,-0.8322 0.17284,-0.2445 0.37997,-0.4391 0.62123,-0.5833 0.24109,-0.1439 0.50227,-0.2161 0.78386,-0.2161 0.0886,0 0.16106,0 0.21734,0 0.0561,0 0.10221,0 0.13857,0.012 0.0361,0.012 0.0723,0.012 0.10839,0.02 0.0365,0.012 0.0784,0.017 0.12675,0.026 l -0.44614,2.0178 z"
         id="path5602"
         inkscape:connector-curvature="0"
         style="opacity:0.9;fill:url(#linearGradient5705)" />
      <path
         d="m 84.626422,1412.0714 c 1.206098,-2.8811 4.547267,-4.2274 7.462862,-3.0064 0.680542,0.2842 1.275942,0.6855 1.776459,1.167 -0.590771,-0.656 -1.333186,-1.196 -2.203315,-1.5607 -3.115869,-1.3045 -6.686486,0.1346 -7.975504,3.2135 -0.689471,1.6471 -0.728857,3.6904 -0.07781,5.3212 0.334847,-0.2507 0.682289,-0.5017 1.042023,-0.7512 -0.579771,-1.3549 -0.635103,-2.9255 -0.0247,-4.3834 z"
         id="path5604"
         inkscape:connector-curvature="0"
         style="opacity:0.9;fill:none" />
      <path
         d="m 89.932846,1409.768 c -2.620126,0 -4.751531,2.1313 -4.751531,4.7514 0,0.4979 0.07845,0.9773 0.221641,1.4285 2.410921,-1.5787 5.315035,-3.0363 8.608687,-3.8676 -0.0014,-10e-5 -0.0027,-10e-5 -0.0034,-2e-4 -0.831547,-1.3838 -2.346986,-2.3121 -4.075454,-2.3121 z"
         id="path5606"
         inkscape:connector-curvature="0"
         style="opacity:0.9;fill:none" />
      <path
         d="m 99.367978,1412.8874 c 0.06231,0.3632 0.106824,0.7327 0.127081,1.1084 -1.022405,0.077 -1.580173,-0.1022 -1.580173,-0.1022 -0.450614,-0.5067 -0.961022,-0.8749 -1.478288,-1.1428 -0.341224,0.036 -0.686603,0.088 -1.033729,0.1576 -4.557797,0.9125 -8.405551,3.1244 -11.2682,5.292 0.106194,0.1575 0.217974,0.3103 0.341705,0.452 -0.576745,1.0239 -0.826601,1.6349 -1.261269,2.6907 -0.438976,-0.4323 -0.836328,-0.9066 -1.186013,-1.4162 -1.191267,1.0555 -2.10158,2.0026 -2.689489,2.6552 h 29.165167 c -0.89022,-2.4576 -3.61957,-8.5365 -9.136792,-9.6946 z"
         id="path5608"
         inkscape:connector-curvature="0"
         style="opacity:0.9;fill:none" />
      <path
         d="m 84.476209,1418.6525 c -0.123566,-0.1418 -0.235508,-0.2946 -0.341705,-0.452 -0.776532,0.5878 -1.479562,1.1719 -2.10557,1.7264 0.34952,0.5096 0.747036,0.9839 1.186011,1.4163 0.434828,-1.0559 0.684525,-1.6669 1.261264,-2.6907 z"
         id="path5610"
         inkscape:connector-curvature="0"
         style="opacity:0.9;fill:url(#linearGradient5708)" />
      <path
         d="m 83.686766,1411.8848 c 1.289011,-3.0791 4.859635,-4.518 7.975504,-3.2135 0.870129,0.3647 1.612537,0.9047 2.203314,1.5607 -0.500524,-0.4817 -1.095917,-0.8828 -1.776465,-1.167 -2.915588,-1.2209 -6.256599,0.1253 -7.462862,3.0064 -0.610381,1.4581 -0.554891,3.0285 0.02455,4.3834 0.245075,-0.1698 0.495578,-0.339 0.751976,-0.5069 -0.143026,-0.4512 -0.221641,-0.9306 -0.221641,-1.4285 0,-2.6201 2.131406,-4.7514 4.751532,-4.7514 1.728468,0 3.243907,0.9281 4.075453,2.312 0.0014,2e-4 0.0027,2e-4 0.0034,2e-4 0.385556,-0.097 0.7759,-0.1869 1.172138,-0.2663 0.781795,-0.1567 1.557529,-0.2359 2.305206,-0.2359 0.554575,0 1.086666,0.043 1.598037,0.1229 -1.203395,-3.9137 -4.846566,-6.7584 -9.154185,-6.7584 -5.289358,0 -9.577042,4.2878 -9.577042,9.5769 0,1.6025 0.396245,3.1111 1.09225,4.438 0.645944,-0.5652 1.367627,-1.1574 2.16106,-1.7514 -0.651047,-1.6311 -0.611661,-3.6742 0.07781,-5.3212 z"
         id="path5612"
         inkscape:connector-curvature="0"
         style="opacity:0.9;fill:url(#linearGradient5710)" />
      <path
         d="m 97.914886,1413.8934 c 0,0 0.557768,0.18 1.580173,0.1022 -0.02023,-0.3756 -0.06473,-0.7452 -0.127081,-1.1084 -0.593962,-0.1246 -1.219497,-0.1931 -1.87899,-0.1931 -0.344417,0 -0.696171,0.019 -1.05239,0.057 0.517108,0.2679 1.027516,0.6363 1.478288,1.1428 z"
         id="path5614"
         inkscape:connector-curvature="0"
         style="opacity:0.9;fill:url(#linearGradient5712)" />
      <g
         style="opacity:0.9"
         transform="matrix(0.15945269,0,0,0.15945269,-103.08847,1318.5805)"
         id="g5616">
        <linearGradient
           id="linearGradient5618"
           gradientUnits="userSpaceOnUse"
           x1="458.2778"
           y1="621.23633"
           x2="654.18433"
           y2="621.23633"
           gradientTransform="matrix(-1,0,0,1,1789.39,0)">
          <stop
             offset="0"
             style="stop-color:#8BC541"
             id="stop5620" />
          <stop
             offset="1"
             style="stop-color:#39B24A"
             id="stop5622" />
        </linearGradient>
        <path
           d="m 1269.696,591.441 c -3.725,-0.782 -7.648,-1.211 -11.784,-1.211 -2.16,0 -4.366,0.121 -6.6,0.354 -2.14,0.225 -4.306,0.552 -6.483,0.988 -28.584,5.723 -52.715,19.595 -70.668,33.189 -4.87,3.687 -9.279,7.35 -13.205,10.828 -7.471,6.619 -13.18,12.559 -16.867,16.652 h 182.908 c -5.583,-15.413 -22.7,-53.537 -57.301,-60.8 z"
           id="path5624"
           inkscape:connector-curvature="0"
           style="fill:url(#linearGradient5714)" />
      </g>
      <path
         d="m 95.454692,1417.8094 c 9.041118,-0.8863 12.671228,4.1647 13.193268,4.9769 H 79.268169 c 0.277446,-0.1725 6.580935,-4.0353 16.186523,-4.9769 z"
         id="path5626"
         inkscape:connector-curvature="0"
         style="opacity:0.18900003;fill:url(#linearGradient5716)" />
    </g>
    <text
       xml:space="preserve"
       style="font-size:75.56533051px;font-style:italic;font-variant:normal;font-weight:normal;font-stretch:normal;line-height:125%;letter-spacing:0px;word-spacing:0px;fill:#e6e6e6;fill-opacity:1;stroke:none;font-family:AR PL SungtiL GB;-inkscape-font-specification:Sans Italic"
       x="75.768028"
       y="1023.5236"
       id="text5629"
       sodipodi:linespacing="125%"
       inkscape:export-filename="/home/phls/phls/eventos/sfd/2013/copiados/more.png"
       inkscape:export-xdpi="89.399742"
       inkscape:export-ydpi="89.399742"
       transform="scale(1.0179556,0.98236111)"><tspan
         sodipodi:role="line"
         id="tspan5631"
         x="75.768028"
         y="1023.5236"
         style="font-size:26.20064735px;font-style:normal;font-variant:normal;font-weight:bold;font-stretch:normal;text-align:center;letter-spacing:0px;text-anchor:middle;fill:#e6e6e6;fill-opacity:1;stroke:none;font-family:VDS;-inkscape-font-specification:VDS">Curitiba</tspan></text>
    <text
       transform="scale(0.93906096,1.0648936)"
       xml:space="preserve"
       style="font-size:36.47613907px;font-style:italic;font-variant:normal;font-weight:normal;font-stretch:normal;line-height:125%;letter-spacing:0px;word-spacing:0px;fill:#e6e6e6;fill-opacity:1;stroke:none;font-family:AR PL SungtiL GB;-inkscape-font-specification:Sans Italic"
       x="7.8695922"
       y="974.31543"
       id="text5633"
       sodipodi:linespacing="125%"
       inkscape:export-filename="/home/phls/phls/eventos/sfd/2013/copiados/more.png"
       inkscape:export-xdpi="89.399742"
       inkscape:export-ydpi="89.399742"><tspan
         sodipodi:role="line"
         id="tspan5635"
         x="7.8695922"
         y="974.31543"
         style="font-size:17.5344944px;font-style:normal;font-variant:normal;font-weight:bold;font-stretch:normal;fill:#e6e6e6;fill-opacity:1;stroke:none;font-family:Averia;-inkscape-font-specification:Averia Bold">21 Setembro 2013</tspan></text>
  </g>
</svg>
