<svg xmlns="http://www.w3.org/2000/svg">
<defs>
<font id="FontID1-3" font-variant="normal" font-style="normal" font-weight="400" horiz-origin-x="0" horiz-origin-y="0" horiz-adv-x="90" vert-origin-x="45" vert-origin-y="90" vert-adv-y="90" style="font-style:normal;font-variant:normal;font-weight:400">
	<font-face font-family="Arial" id="font-face2880-7">
	</font-face>
   <missing-glyph id="missing-glyph2882-8"><path d="M0 0z" id="path2884-8"/></missing-glyph>
   <glyph unicode="-" horiz-adv-x="332" id="glyph2886-6"><path d="M31.7732 214.735l-0.0462492 88.3822 269.864 0.0462492 0.0462492 -88.3822 -269.864 -0.0462492z" id="path2888-0"/></glyph>
   <glyph unicode="." horiz-adv-x="277" id="glyph2890-4"><path d="M90.6947 0l0.138748 100.037 99.9908 0 0 -99.9908 -100.129 -0.0462492z" id="path2892-6"/></glyph>
   <glyph unicode="," horiz-adv-x="277" id="glyph2894-7"><path d="M88.8478 0.0462749l-0.0462749 100.093 100 -0.0925497 0.0925497 -100.093c-0.0462749,-36.7885 -6.47848,-66.4044 -19.4354,-88.9866 -13.1421,-22.5821 -33.7807,-40.2129 -62.1472,-52.5683l-24.3406 37.714c18.5099,8.00555 32.2536,19.9907 41.0458,35.7242 8.8385,15.8723 13.5585,38.547 14.6229,68.1629l-49.7918 0.0462749z" id="path2896-6"/></glyph>
   <glyph unicode=" " horiz-adv-x="277" id="glyph2898-0"/>
   <glyph unicode="@" horiz-adv-x="1014" id="glyph2900-9"><path d="M566.738 79.5486c-21.0896,-24.4658 -44.8617,-43.9367 -71.0388,-58.8752 -26.2233,-14.7997 -52.4003,-22.1534 -78.7624,-22.1534 -28.9982,0 -57.164,8.50985 -84.451,25.3446 -27.3333,17.0197 -49.6254,42.9655 -66.6913,78.2536 -17.1584,35.0569 -25.5758,73.5362 -25.6221,115.623 -0.0924984,51.7528 13.3198,103.459 39.7743,155.444 26.4545,51.9378 59.5227,90.8334 98.7883,116.872 39.4043,26.0845 77.6986,39.1268 114.79,39.0343 28.3045,0 55.2678,-7.26112 80.9823,-22.1071 25.7608,-14.846 47.8217,-37.4156 66.4601,-67.6163l16.6035 75.7099 87.3647 -0.0462492 -70.2988 -327.537c-9.71233,-45.5555 -14.661,-70.8538 -14.5685,-75.6637 -0.0924984,-8.8336 3.19119,-16.4185 9.85108,-22.7546 6.70613,-6.28989 14.7997,-9.48108 24.3271,-9.52733 17.2509,-0.0462492 39.7743,9.98983 67.7551,29.7382 36.9994,26.1308 66.5063,60.9564 88.1047,104.708 21.7371,43.7517 32.5594,88.9372 32.5132,135.51 -0.0924984,54.3428 -14.0135,105.124 -41.8555,152.345 -27.7958,47.0817 -69.1425,84.8673 -124.364,113.172 -55.2215,28.3508 -116.132,42.5955 -182.869,42.4568 -76.1262,0 -145.731,-17.8059 -208.676,-53.3253 -62.8989,-35.6581 -111.784,-86.9022 -146.471,-153.27 -34.5944,-66.5988 -51.8916,-137.961 -52.0303,-214.134 0.138748,-79.6411 17.3434,-148.367 52.1228,-205.994 34.5481,-57.534 84.7748,-100.129 150.31,-127.648 65.4889,-27.472 138.239,-41.3005 217.926,-41.3005 85.2373,0.0462492 156.646,14.3372 214.365,42.9192 57.534,28.7207 100.638,63.5464 129.359,104.569l88.336 0c-16.7422,-34.1319 -45.1855,-69.05 -85.5148,-104.523 -40.3755,-35.4731 -88.2435,-63.5001 -143.974,-84.1273 -55.684,-20.7659 -122.653,-30.987 -201.138,-31.1257 -72.1487,0.184997 -138.84,9.38859 -199.843,27.8883 -61.0489,18.4997 -113.079,46.5267 -155.999,83.6648 -42.9192,37.3231 -75.2937,80.2423 -97.1233,128.758 -27.3333,61.5114 -40.9768,127.925 -40.9305,199.195 -0.0462492,79.3636 16.2797,154.981 48.7929,226.852 39.6356,88.2435 96.1058,155.86 169.133,202.664 73.0275,46.8504 161.641,70.2525 265.702,70.16 80.7511,0.0924984 153.316,-16.3722 217.556,-49.3941 64.2401,-33.1607 114.883,-82.3698 152.067,-147.674 31.4957,-56.424 47.3592,-117.565 47.3129,-183.656 0.0924984,-94.3483 -33.2069,-178.152 -99.5283,-251.318 -59.3377,-65.7663 -124.04,-98.6495 -194.247,-98.6495 -22.6159,0 -40.6068,3.46869 -54.5278,10.2673 -13.736,6.84488 -23.9571,16.696 -30.432,29.2757 -4.25493,8.18611 -7.30737,22.1996 -9.34234,41.9943zm-236.333 132.365c0.0924984,-44.6767 10.7298,-79.2711 31.8194,-103.968 21.1359,-24.7433 45.3705,-37.2306 72.75,-37.1381 18.1759,-0.138748 37.4156,5.36491 57.5802,16.326 20.2109,10.9148 39.4968,27.1483 57.904,48.6079 18.2222,21.4596 33.3919,48.6541 45.0467,81.8148 11.701,32.9757 17.6209,66.1363 17.5747,99.2508 0.0462492,44.168 -10.8686,78.5311 -32.9757,102.997 -21.9221,24.4658 -48.6079,36.6294 -80.1961,36.6294 -20.8584,-0.0462492 -40.5143,-5.31866 -58.8752,-15.956 -18.4534,-10.4523 -36.1206,-27.4258 -53.5103,-50.9204 -17.1584,-23.4021 -30.9407,-51.9378 -41.4393,-85.4685 -10.3598,-33.4844 -15.586,-64.1939 -15.6785,-92.1746z" id="path2902-7"/></glyph>
   <glyph unicode="A" horiz-adv-x="666" id="glyph2904-5"><path d="M-1.52622 -0.0462492l274.951 715.752 102.026 -0.0462492 292.942 -715.567 -107.946 -0.0924984 -83.5723 216.77 -299.14 0.0462492 -78.6699 -216.77 -100.592 -0.0924984zm206.595 293.96l242.577 0 -74.6924 198.132c-22.8009,60.2164 -39.7281,109.703 -50.7354,148.46 -9.20359,-45.8792 -22.0609,-91.3884 -38.5718,-136.666l-78.5774 -209.925z" id="path2906-9"/></glyph>
   <glyph unicode="J" horiz-adv-x="500" id="glyph2908-7"><path d="M28.8132 203.08l85.376 11.6548c2.31246,-54.6665 12.5798,-92.0821 30.7557,-112.247 18.3147,-20.2109 43.4742,-30.247 75.7562,-30.247 23.6796,-0.0462492 44.3067,5.4574 61.4189,16.2797 17.3434,11.0073 29.0907,25.7608 35.6581,44.538 6.56739,18.6384 9.89733,48.5617 9.80483,89.6309l-0.0462492 493.016 94.8108 0.0462492 0 -487.836c0.0462492,-59.754 -7.26112,-106.234 -21.7834,-139.025 -14.3835,-32.9757 -37.4618,-57.9965 -68.9113,-75.2012 -31.2645,-17.2972 -68.1251,-25.992 -110.536,-25.8995 -62.7139,0 -110.952,18.0372 -144.159,54.1578 -33.4382,36.1669 -49.4404,89.8159 -48.1454,161.132z" id="path2910-8"/></glyph>
   <glyph unicode="D" horiz-adv-x="722" id="glyph2912-5"><path d="M77.0974 0.0924984l0.138748 715.66 246.416 0.0462492c55.684,-0.0462492 98.2333,-3.51494 127.417,-10.3136 41.023,-9.38859 76.0337,-26.6395 104.986,-51.3366 37.7856,-31.8194 65.9976,-72.565 84.7748,-122.283 18.6384,-49.5329 28.027,-106.327 28.027,-170.151 0.0924984,-54.2965 -6.38239,-102.396 -19.0084,-144.482 -12.7185,-41.9018 -28.9982,-76.7737 -48.9779,-104.246 -19.7484,-27.3795 -41.4393,-49.0704 -65.0264,-64.9339 -23.7258,-15.771 -52.1228,-27.7495 -85.5148,-35.8894 -33.3457,-8.00111 -71.6862,-12.1635 -114.929,-12.256l-258.302 0.184997zm94.7183 84.4048l152.854 0.0462492c47.1742,-0.138748 84.1735,4.30117 111.091,13.0885 26.917,8.78735 48.2842,21.0896 64.1476,37.0456 22.4309,22.4771 40.0518,52.6778 52.5853,90.6022 12.5335,37.9243 18.7309,83.9423 18.7309,138.008 -0.0462492,74.8774 -12.256,132.226 -36.8606,172.602 -24.6508,40.1905 -54.389,67.1076 -89.5847,80.7511 -25.3908,9.80483 -66.2288,14.5222 -122.607,14.7072l-150.31 -0.184997 -0.0462492 -546.665z" id="path2914-3"/></glyph>
   <glyph unicode="I" horiz-adv-x="277" id="glyph2916-3"><path d="M93.1513 -0.0462749l0.0925497 715.502 94.6784 0.0462749 0.0462749 -715.548 -94.8172 0z" id="path2918-8"/></glyph>
   <glyph unicode="H" horiz-adv-x="721" id="glyph2920-3"><path d="M80.0555 -0.0462749l0.0462749 715.687 94.5858 0.0462749 0.0925497 -293.892 372.004 -0.0925497 -0.0925497 294.031 94.7247 -0.0462749 -0.0462749 -715.687 -94.5858 0 0 337.298 -372.05 -0.0462749 0.0462749 -337.344 -94.7247 0.0462749z" id="path2922-7"/></glyph>
   <glyph unicode="F" horiz-adv-x="610" id="glyph2924-9"><path d="M81.9528 0l0 715.733 482.832 0 0.138825 -84.4979 -388.246 0.0925497 0 -221.749 335.956 0.0925497 -0.0925497 -84.4979 -335.77 -0.0925497 0 -325.174 -94.8172 0.0925497z" id="path2926-3"/></glyph>
   <glyph unicode="R" horiz-adv-x="721" id="glyph2928-7"><path d="M78.5285 0l0.0925497 715.502 317.168 0.138825c63.813,0 112.217,-6.57103 145.534,-19.3892 33.1328,-12.8181 59.6946,-35.5391 79.5465,-68.1629 19.8519,-32.4387 29.7085,-68.4405 29.6622,-107.774 0.0925497,-50.8098 -16.2888,-93.5678 -49.1439,-128.413 -32.994,-34.7987 -83.7575,-56.9181 -152.337,-66.4044 25.1273,-11.9852 44.1,-23.8778 57.1495,-35.5854 27.6724,-25.4049 53.864,-57.1032 78.621,-95.1411l124.341 -194.817 -119.065 -0.0462749 -94.7247 148.959c-27.5798,42.9894 -50.4396,75.7982 -68.2554,98.5655 -18.0009,22.8135 -33.9658,38.8246 -48.1259,47.8945 -14.1601,9.06988 -28.5979,15.5021 -43.1745,19.019 -10.7358,2.31374 -28.2739,3.47062 -52.7534,3.47062l-109.81 0 0.0462749 -317.816 -94.7709 0zm94.6784 399.769l203.563 0.0462749c43.267,-0.0462749 77.1402,4.44239 101.573,13.3272 24.3406,8.93105 42.8505,23.2763 55.6224,42.9431 12.7719,19.8056 19.0652,41.0921 19.0652,64.1832 -0.0462749,33.8732 -12.2628,61.6844 -36.8348,83.4336 -24.5257,21.888 -63.3966,32.7626 -116.428,32.8552l-226.469 -0.0462749 -0.0925497 -236.742z" id="path2930-8"/></glyph>
   <glyph unicode="l" horiz-adv-x="222" id="glyph2932-7"><path d="M63.8701 0.0462492l0.138748 715.429 87.781 0.138748 -0.0462492 -715.567 -87.8735 0z" id="path2934-4"/></glyph>
   <glyph unicode="j" horiz-adv-x="222" id="glyph2936-1"><path d="M65.4889 613.588l-0.138748 101.979 87.8735 0.0462492 0.0924984 -102.026 -87.8272 0zm-111.322 -814.772l16.511 74.8312c17.6209,-4.71742 31.4957,-6.98363 41.4855,-6.93738 17.9909,-0.0462492 31.2182,6.01239 40.0055,17.8522 8.8336,11.8398 13.3198,41.578 13.3198,89.0759l-0.0462492 544.769 87.8735 0 -0.138748 -546.758c0.138748,-63.8239 -8.27861,-108.131 -24.8358,-133.29 -21.0896,-32.5132 -56.3315,-48.7929 -105.356,-48.6541 -23.8183,-0.0924984 -46.7117,3.0062 -68.8188,9.11109z" id="path2938-9"/></glyph>
   <glyph unicode="b" horiz-adv-x="556" id="glyph2940-0"><path d="M146.841 0l-81.4911 0 0.138748 715.66 87.8735 -0.0462492 -0.0462492 -255.388c37.0919,46.5729 84.3585,69.975 142.078,69.8825 31.9119,0.0462492 61.9739,-6.33614 90.5559,-19.1934 28.3508,-12.996 51.7991,-30.987 70.2525,-54.2965 18.2684,-23.2633 32.7907,-51.3829 43.1505,-84.1735 10.4986,-32.8369 15.6785,-67.9401 15.7247,-105.402 -0.0462492,-88.9372 -22.1071,-157.525 -65.9976,-205.948 -43.9367,-48.6079 -96.6608,-72.8425 -158.172,-72.75 -61.0952,-0.138748 -109.241,25.4371 -144.02,76.4962l-0.0462492 -64.8414zm-0.832485 263.112c-0.138748,-62.2052 8.4636,-107.159 25.3446,-134.724 27.6108,-45.1855 64.9801,-67.8476 112.293,-67.8938 38.3406,0.0924984 71.5937,16.7422 99.482,49.9954 27.9808,33.4382 42.0405,83.156 42.0868,149.2 -0.0462492,67.6163 -13.4585,117.612 -40.2368,149.894 -26.8245,32.1432 -59.3377,48.2379 -97.4933,48.2379 -38.2943,0.0462492 -71.5012,-16.6035 -99.6208,-49.9491 -27.9808,-33.4382 -41.948,-81.6298 -41.8555,-144.76z" id="path2942-9"/></glyph>
   <glyph unicode="n" horiz-adv-x="556" id="glyph2944-8"><path d="M65.9513 0.0462492l-0.0462492 518.407 79.0861 -0.0924984 0 -73.675c38.1556,57.0253 93.0996,85.5148 164.971,85.4223 31.2182,0.0462492 59.9852,-5.4574 86.2547,-16.7885 26.1308,-11.1461 45.6942,-25.992 58.7827,-44.2142 12.9498,-18.2222 22.0609,-39.8668 27.3795,-64.9801 3.19119,-16.2335 4.85617,-44.6767 4.76367,-85.376l0.0924984 -318.703 -87.966 -0.0462492 0 315.373c-0.0462492,35.7969 -3.32994,62.4827 -10.2211,80.3811 -6.79863,17.6672 -18.8234,31.8657 -36.3519,42.4568 -17.3434,10.5448 -37.8781,15.8635 -61.1877,15.771 -37.5081,0.0462492 -69.8363,-11.886 -96.9846,-35.5194 -27.102,-23.8183 -40.6993,-69.0038 -40.7918,-135.233l-0.0462492 -283.276 -87.7347 0.0924984z" id="path2946-8"/></glyph>
   <glyph unicode="f" horiz-adv-x="277" id="glyph2948-5"><path d="M86.8117 0.0925497l0 450.023 -77.5104 -0.0462749 0.0462749 68.348 77.5104 0.0462749 0.0925497 55.1596c0,34.7062 3.05414,60.5738 9.25497,77.5567 8.42203,22.721 23.3688,41.2309 44.6553,55.4373 21.2864,14.1601 51.0875,21.1013 89.5419,21.2864 24.6645,-0.138825 52.0592,-3.10042 82.0453,-8.88478l-13.1883 -76.7237c-18.186,3.37807 -35.5391,4.90514 -51.7816,4.90514 -26.7006,0.138825 -45.5345,-5.69181 -56.6404,-17.0754 -10.9671,-11.2911 -16.6127,-32.6238 -16.5201,-63.9519l0.0462749 -47.7557 101.018 -0.0462749 -0.0462749 -68.348 -101.018 0.0462749 0 -450.023 -87.5058 0.0462749z" id="path2950-8"/></glyph>
   <glyph unicode="k" horiz-adv-x="499" id="glyph2952-4"><path d="M66.3582 0.0925497l0 715.502 87.8297 -0.0462749 0.0925497 -408.052 207.913 210.875 113.697 0 -198.103 -192.318 218.093 -326.006 -108.329 -0.0925497 -171.31 265.016 -62.0546 -59.4169 0.138825 -205.507 -87.9685 0.0462749z" id="path2954-3"/></glyph>
   <glyph unicode="m" horiz-adv-x="832" id="glyph2956-7"><path d="M65.8126 0.0462492l0 518.361 78.5774 0 0.0462492 -72.75c16.2797,25.2983 38.0168,45.7404 64.9801,61.1414 27.0095,15.6322 57.719,23.2633 92.1746,23.2171 38.4331,0.138748 69.8825,-7.95486 94.4408,-23.8646 24.6046,-15.9097 41.9943,-38.2943 52.0303,-66.8301 40.9768,60.4939 94.4408,90.7409 160.115,90.6947 51.4291,0.0462492 91.0184,-14.1985 118.583,-42.5955 27.657,-28.582 41.578,-72.38 41.393,-131.579l0.0924984 -355.888 -87.3647 0 0.0924984 326.612c-0.138748,35.1031 -2.9137,60.4477 -8.5561,75.8949 -5.78115,15.401 -16.0947,27.8883 -30.987,37.3231 -15.0772,9.34234 -32.6057,14.0598 -52.8166,14.0598 -36.3981,0.184997 -66.6451,-12.0248 -90.7409,-36.3056 -24.0958,-24.2808 -36.2131,-62.9451 -36.0744,-116.409l-0.0924984 -301.221 -87.8272 0.184997 0 336.694c0.0462492,39.1268 -7.16862,68.3563 -21.4134,87.8272 -14.476,19.6097 -37.7856,29.4145 -70.2988,29.322 -24.8821,0 -47.5442,-6.47489 -68.6338,-19.4709 -20.9971,-13.1348 -36.2131,-32.0969 -45.6942,-57.164 -9.29609,-25.1133 -14.0598,-61.2339 -14.0135,-108.316l-0.0462492 -269.032 -87.966 0.0924984z" id="path2958-1"/></glyph>
   <glyph unicode="a" horiz-adv-x="556" id="glyph2960-3"><path d="M404.125 63.9164c-32.6057,-27.7033 -63.8701,-47.1742 -93.9321,-58.5515 -30.1082,-11.3773 -62.3902,-17.0197 -96.8458,-17.0197 -56.9328,-0.0462492 -100.823,13.7823 -131.348,41.7168 -30.617,27.7033 -45.8792,63.2689 -45.9254,106.604 0.0924984,25.3908 5.87365,48.4692 17.4359,69.5125 11.5623,21.0434 26.6858,37.9243 45.3705,50.6429 18.7309,12.5335 39.6818,22.1996 63.2226,28.7207 17.2047,4.48617 43.1967,8.92609 77.9761,13.181 70.9925,8.50985 123.208,18.5459 156.739,30.1545 0.369994,12.1173 0.462492,19.7947 0.462492,23.0321 0.0462492,35.7044 -8.23236,60.9564 -24.9283,75.5712 -22.4771,19.9797 -55.7303,29.877 -99.9908,29.8307 -41.393,0 -71.825,-7.21487 -91.4346,-21.6909 -19.7947,-14.5685 -34.4094,-40.1905 -43.7517,-76.7737l-85.8847 11.6548c7.72361,36.6756 20.5809,66.4138 38.4793,89.0297 17.9447,22.5696 43.7517,40.0055 77.6061,52.2616 33.9007,12.1173 73.12,18.2684 117.612,18.2222 44.2605,0 80.2423,-5.27241 107.899,-15.5397 27.6108,-10.4986 47.9604,-23.5408 61.0027,-39.4043 12.996,-15.7247 22.0609,-35.6581 27.3795,-59.6615 2.86745,-14.9847 4.34742,-42.0868 4.30117,-81.0286l0.0462492 -117.288c0.0462492,-81.5373 1.84997,-133.151 5.5499,-154.935 3.83868,-21.5521 11.2386,-42.2718 22.2921,-62.1589l-91.7584 -0.0462492c-9.15734,18.2684 -15.031,39.5893 -17.5747,63.9626zm-7.35362 196.235c-31.9582,-12.996 -79.6874,-24.0033 -143.465,-33.1144 -36.1669,-5.31866 -61.6039,-11.1461 -76.6349,-17.6209 -14.9847,-6.47489 -26.5008,-16.0947 -34.7331,-28.5358 -8.04736,-12.5335 -12.1635,-26.4545 -12.1635,-41.8093 0.0462492,-23.3558 9.01859,-42.9655 26.5933,-58.5052 17.7597,-15.6785 43.7517,-23.4021 77.8836,-23.4946 33.9469,0 63.9626,7.39987 90.4172,22.1996 26.2233,14.8922 45.648,35.0106 58.0427,60.8639 9.34234,19.8409 13.9673,49.1166 14.106,87.8735l-0.0462492 32.1432z" id="path2962-8"/></glyph>
   <glyph unicode="d" horiz-adv-x="555" id="glyph2964-0"><path d="M402.221 0.0462749l0.0925497 65.3864c-32.9477,-51.4114 -81.2124,-77.0939 -145.072,-77.0939 -41.2772,-0.138825 -79.2689,11.2448 -114.021,34.1971 -34.6599,22.721 -61.453,54.6043 -80.5646,95.4188 -18.9264,40.8144 -28.4128,87.6909 -28.5516,140.676 0.0462749,51.7816 8.69968,98.7969 25.8677,140.953 17.3068,42.1101 43.2207,74.3637 77.6955,96.8533 34.5211,22.5359 73.068,33.7344 115.687,33.7344 31.1893,-0.0925497 59.093,-6.70986 83.3873,-19.7594 24.3869,-13.2809 44.3313,-30.3563 59.6946,-51.5502l-0.0462749 256.779 87.3207 0.0462749 0.0925497 -715.733 -81.5826 0.0925497zm-277.696 258.723c0,-66.4507 13.975,-116.104 41.925,-148.913 27.95,-32.8552 60.944,-49.329 99.0745,-49.3753 38.5007,0.0462749 71.0319,15.826 97.8714,47.1078 26.8857,31.4669 40.2129,79.3151 40.2591,143.822 0.0462749,70.9394 -13.6048,123.045 -40.9533,156.27 -27.3947,33.0403 -61.0366,49.6529 -101.064,49.6992 -38.9634,0.0925497 -71.7723,-15.9648 -97.8714,-47.8019 -26.1916,-31.9759 -39.2874,-82.1379 -39.2411,-150.81z" id="path2966-9"/></glyph>
   <glyph unicode="e" horiz-adv-x="556" id="glyph2968-7"><path d="M420.729 166.913l90.8334 -11.1923c-14.4297,-53.0941 -40.838,-94.2559 -79.5486,-123.532 -38.7568,-29.322 -88.2435,-43.8442 -148.46,-43.8905 -75.7562,0 -135.88,23.4021 -180.372,70.0675 -44.3067,46.7579 -66.5988,112.062 -66.5526,196.42 0.0462492,87.226 22.4309,154.842 67.3851,203.034 44.8155,48.1454 103.089,72.195 174.729,72.2875 69.2813,-0.0462492 125.844,-23.6333 169.781,-70.7613 43.8905,-47.1742 65.9051,-113.588 65.9513,-199.103 0.0462492,-5.31866 -0.231246,-13.0423 -0.55499,-23.5871l-386.551 0.0462492c3.19119,-56.8865 19.4247,-100.546 48.3304,-130.793 29.0445,-30.247 65.0264,-45.3705 108.316,-45.463 32.3282,0.0924984 59.8002,8.50985 82.5548,25.3908 22.7546,17.066 40.838,43.983 54.1578,81.0748zm-288.502 142.078l289.427 -0.0462492c-3.93118,43.5667 -14.8922,76.2649 -33.0682,98.0483 -28.027,33.9007 -64.2864,50.8741 -108.917,50.8279 -40.3755,0.0924984 -74.1837,-13.551 -101.841,-40.468 -27.4258,-27.0095 -42.688,-63.2226 -45.6017,-108.362z" id="path2970-9"/></glyph>
   <glyph unicode="h" horiz-adv-x="555" id="glyph2972-9"><path d="M65.8954 0l0.0925497 715.595 87.7372 0 0.0925497 -256.733c40.9995,47.4317 92.7811,71.3096 155.16,71.3559 38.3619,-0.0925497 71.7261,-7.68163 100.185,-22.7672 28.2739,-15.1319 48.4498,-36.0481 60.6201,-62.7487 12.3091,-26.6081 18.4174,-65.4327 18.4174,-116.242l-0.138825 -328.413 -87.7372 -0.0462749 -0.0462749 328.552c0.0925497,43.9149 -9.44007,75.8445 -28.5053,95.8353 -19.1115,20.037 -46.0435,29.9861 -80.7497,30.0787 -26.1916,-0.0462749 -50.6247,-6.70986 -73.6233,-20.2221 -22.8598,-13.466 -39.2411,-31.8834 -48.9125,-54.9283 -9.85655,-23.1374 -14.7617,-55.0208 -14.6691,-95.789l-0.0462749 -283.48 -87.876 -0.0462749z" id="path2974-3"/></glyph>
   <glyph unicode="g" horiz-adv-x="556" id="glyph2976-2"><path d="M49.6716 -42.9192l85.4685 -12.7185c3.65369,-26.3158 13.551,-45.5092 29.7382,-57.6265 21.9221,-16.1872 51.6141,-24.4196 89.4459,-24.3733 40.6068,0.0462492 72.01,8.13986 94.2096,24.4658 22.0609,16.2797 37.0919,39.0343 44.9542,68.2176 4.48617,17.9447 6.61363,55.6378 6.28989,112.802 -38.4331,-45.2317 -86.301,-67.8013 -143.557,-67.8476 -71.1775,0 -126.307,25.7145 -165.433,77.1436 -38.9418,51.3366 -58.6902,113.079 -58.5515,184.997 -0.0924984,49.3941 8.87984,95.0421 26.8708,136.805 17.7597,41.9018 43.7517,74.1375 77.8374,96.9846 33.9469,22.7546 73.9062,34.1782 119.785,34.1782 61.2339,-0.0924984 111.646,-24.6971 151.374,-74.1837l-0.138748 62.3439 81.1211 0.0924984 0 -448.108c-0.0924984,-80.6586 -8.18611,-137.776 -24.7433,-171.538 -16.3722,-33.7157 -42.4568,-60.2627 -77.9761,-79.8261 -35.7044,-19.5172 -79.5486,-29.1832 -131.533,-29.2757 -61.8814,0.0462492 -111.784,13.9673 -149.894,41.7168 -38.1556,27.9345 -56.5165,69.79 -55.2678,125.752zm72.8425 311.442c0,-68.0326 13.551,-117.75 40.5143,-148.969 26.9633,-31.172 60.7714,-46.8504 101.424,-46.7579 40.468,0 74.3224,15.5397 101.609,46.4804 27.3795,31.172 40.9768,79.9186 40.9768,146.194 0.0924984,63.4539 -14.106,111.414 -42.2718,143.604 -28.1658,32.1894 -61.9277,48.2379 -101.702,48.2842 -39.0806,-0.0924984 -72.1487,-15.9097 -99.5283,-47.5904 -27.3795,-31.6807 -40.9768,-78.8549 -41.023,-141.245z" id="path2978-4"/></glyph>
   <glyph unicode="i" horiz-adv-x="222" id="glyph2980-3"><path d="M66.3676 614.42l-0.0462492 101.054 87.8735 -0.0462492 0.0462492 -101.008 -87.8735 0zm0.0462492 -614.467l-0.0924984 518.407 87.8272 -0.0462492 0.138748 -518.361 -87.8735 0z" id="path2982-7"/></glyph>
   <glyph unicode="o" horiz-adv-x="556" id="glyph2984-1"><path d="M33.1144 259.227c0.0924984,96.0133 26.732,166.96 80.1961,213.209 44.538,38.4331 98.742,57.6265 162.982,57.6265 71.1775,-0.0924984 129.544,-23.3558 174.729,-70.0213 45.2317,-46.6192 67.7551,-111.183 67.7551,-193.507 0,-66.7838 -9.89733,-119.138 -29.877,-157.432 -20.0259,-38.2481 -49.3016,-67.8938 -87.5035,-89.1222 -38.1556,-21.1821 -79.8261,-31.6807 -125.104,-31.5882 -72.6112,-0.0462492 -131.255,23.0783 -175.932,69.79 -44.7692,46.4804 -67.1538,113.496 -67.2463,201.045zm90.3247 -0.0924984c0,-66.4138 14.4297,-115.993 43.5667,-149.015 28.952,-33.1144 65.3039,-49.5791 109.241,-49.5329 43.613,-0.0924984 79.8261,16.5572 108.824,49.7641 29.0445,33.1607 43.5205,83.7573 43.5205,151.79 -0.0462492,64.0551 -14.5685,112.663 -43.7055,145.685 -29.0907,33.0219 -65.4426,49.4866 -108.686,49.5329 -43.983,-0.0462492 -80.2886,-16.3722 -109.241,-49.3479 -28.9982,-32.7907 -43.5205,-82.5086 -43.5205,-148.876z" id="path2986-2"/></glyph>
   <glyph unicode="c" horiz-adv-x="499" id="glyph2988-2"><path d="M404.079 189.76l86.486 -11.0998c-9.43483,-59.4765 -33.6694,-106.234 -72.565,-139.765 -38.8031,-33.7157 -86.5785,-50.5966 -143.141,-50.5966 -70.9463,-0.0462492 -128.018,23.2633 -171.076,69.5588 -43.243,46.2492 -64.6564,112.802 -64.7026,199.427 -0.0462492,55.8228 9.29609,104.893 27.842,146.887 18.4997,41.9943 46.6654,73.305 84.5435,94.3946 37.8781,21.0434 79.2249,31.4494 123.717,31.5419 56.424,-0.0924984 102.488,-14.2448 138.193,-42.8268 35.7969,-28.397 58.7827,-68.9113 68.9113,-121.127l-85.5148 -13.2735c-8.04736,34.9181 -22.4309,61.0027 -43.1967,78.5774 -20.6271,17.6209 -45.648,26.362 -74.8312,26.3158 -44.3067,0 -80.3348,-15.8635 -107.992,-47.5442 -27.6108,-31.8194 -41.4393,-81.9073 -41.393,-150.495 0.0462492,-69.6975 13.2735,-120.34 40.0518,-151.836 26.6395,-31.5419 61.4652,-47.4517 104.431,-47.2667 34.5481,-0.138748 63.2226,10.4523 86.2547,31.6344 23.2633,21.1359 37.7856,53.6953 43.983,97.4933z" id="path2990-0"/></glyph>
   <glyph unicode="s" horiz-adv-x="499" id="glyph2992-2"><path d="M30.802 154.75l86.8097 13.6898c4.94866,-34.7794 18.4997,-61.6039 40.7455,-80.0573 22.2459,-18.6384 53.4641,-27.842 93.4696,-27.842 40.3755,-0.0924984 70.2988,8.18611 89.7697,24.6508 19.6097,16.511 29.3682,35.7044 29.4145,57.7652 -0.138748,19.7947 -8.69485,35.4731 -25.8533,46.8967 -12.071,7.81611 -42.0868,17.8059 -89.8622,29.877 -64.4714,16.2335 -109.102,30.247 -133.938,42.133 -24.9746,11.8398 -43.798,28.3508 -56.7015,49.3016 -12.9035,20.9971 -19.2397,44.168 -19.2859,69.4663 -0.0462492,23.2633 5.27241,44.4917 15.956,64.2401 10.4986,19.7022 24.8821,36.0281 43.058,49.1166 13.7823,9.98983 32.3282,18.5459 56.0078,25.5758 23.5408,6.98363 48.8854,10.5911 75.9412,10.4986 40.5143,-0.0462492 76.2649,-5.8274 107.021,-17.5284 30.7557,-11.701 53.4178,-27.7033 68.0788,-47.5442 14.7535,-20.0721 24.6971,-46.8504 30.3857,-80.4273l-85.931 -11.6085c-3.93118,26.6395 -15.216,47.4517 -33.9007,62.4827 -18.8697,14.9385 -45.2317,22.3846 -79.4099,22.3846 -40.3755,0.0462492 -69.1425,-6.56739 -86.3935,-19.9797 -17.2509,-13.366 -25.807,-29.0445 -25.807,-46.8042 -0.0924984,-11.516 3.51494,-21.7834 10.6836,-30.7557 7.16862,-9.43483 18.3609,-17.2972 33.6694,-23.4946 8.78735,-3.28369 34.5944,-10.6836 77.6986,-22.4309 62.0202,-16.6497 105.494,-30.247 130.006,-40.838 24.5121,-10.5911 43.798,-25.9458 57.8115,-45.9717 13.921,-20.2109 21.0896,-45.278 20.9971,-75.2012 0.0462492,-29.2757 -8.60235,-56.9328 -25.5758,-82.7398 -17.066,-25.992 -41.763,-45.8792 -73.9987,-60.1702 -32.1894,-14.106 -68.68,-21.1821 -109.379,-21.1359 -67.2463,0.0462492 -118.722,13.9673 -153.917,41.948 -35.3344,27.9345 -57.904,69.42 -67.5701,124.503z" id="path2994-1"/></glyph>
   <glyph unicode="t" horiz-adv-x="277" id="glyph2996-7"><path d="M257.705 78.5285l12.6793 -77.5104c-24.7108,-5.32161 -46.9227,-7.913 -66.3582,-7.913 -31.8834,0.0462749 -56.6867,5.13651 -74.2712,15.2244 -17.5845,10.0879 -29.8936,23.3688 -37.0199,39.7038 -7.08006,16.4739 -10.782,50.9949 -10.8283,103.748l0.185099 298.195 -64.4609 0.0925497 -0.0925497 68.2092 64.5072 0.0925497 -0.0462749 128.274 87.4132 52.7534 -0.0925497 -181.027 88.3387 0.0462749 0.0462749 -68.348 -88.3387 -0.0462749 -0.0462749 -303.147c0.0925497,-25.081 1.52707,-41.1846 4.67376,-48.311 3.10042,-7.12633 8.0981,-12.8181 15.1319,-17.0292 7.03378,-4.21101 17.0292,-6.38593 29.9861,-6.38593 9.81027,-0.0462749 22.6747,1.20315 38.5932,3.37807z" id="path2998-5"/></glyph>
   <glyph unicode="r" horiz-adv-x="332" id="glyph3000-1"><path d="M65.0264 -0.0462492l-0.138748 518.407 79.0399 -0.0462492 0 -78.4849c20.2571,36.6294 38.9418,60.9564 55.9153,72.6112 17.1122,11.7935 35.9356,17.6672 56.4703,17.6209 29.5995,0 59.6615,-9.48108 90.1859,-28.2583l-30.247 -81.5836c-21.4134,12.7185 -42.873,19.0084 -64.4251,19.0084 -19.1934,0.0462492 -36.4906,-5.68865 -51.7991,-17.2509 -15.2622,-11.5623 -26.1308,-27.5645 -32.6982,-48.0992 -9.66608,-31.3107 -14.6147,-65.4426 -14.6147,-102.581l0.0462492 -271.252 -87.7347 -0.0924984z" id="path3002-7"/></glyph>
   <glyph unicode="y" horiz-adv-x="499" id="glyph3004-4"><path d="M61.9277 -199.612l-9.61983 82.4161c19.1934,-5.08741 35.8894,-7.72361 50.1341,-7.76986 19.6097,-0.0924984 35.2881,3.19119 46.9892,9.85108 11.701,6.42864 21.2746,15.586 28.7207,27.1945 5.5499,8.78735 14.5685,30.6632 26.8708,65.4889 1.66497,4.90241 4.30117,11.9323 7.90861,21.3671l-196.883 519.378 94.7646 0.138748 107.807 -300.342c14.1523,-37.9706 26.6395,-78.0686 37.5543,-119.97 10.1748,40.3755 22.1534,79.7336 36.2131,118.074l110.906 302.192 87.8272 -0.0924984 -197.299 -527.102c-21.0896,-57.0253 -37.5543,-96.1521 -49.3016,-117.658 -15.5397,-28.9982 -33.4844,-50.2729 -53.6028,-63.6389 -20.3034,-13.551 -44.3067,-20.3034 -72.2412,-20.3496 -16.9272,0.0924984 -35.8431,3.65369 -56.7478,10.8223z" id="path3006-1"/></glyph>
   <glyph unicode="p" horiz-adv-x="555" id="glyph3008-7"><path d="M65.9417 -198.704l0 717.261 80.0555 -0.0925497 -0.0925497 -67.3762c18.9264,26.423 40.2129,46.0898 64.0444,59.2318 23.6465,13.2809 52.5683,19.8519 86.3952,19.8982 44.2851,-0.0925497 83.2948,-11.5224 117.214,-34.2434 33.7344,-22.721 59.2318,-54.8357 76.5849,-96.4831 17.2605,-41.4623 25.8677,-86.9505 25.7751,-136.326 0.138825,-53.031 -9.48635,-100.925 -28.5516,-143.313 -18.8801,-42.4341 -46.5988,-75.0578 -82.8783,-97.64 -36.2795,-22.6747 -74.5488,-33.9195 -114.53,-33.9658 -29.2457,0 -55.5761,6.24711 -78.8061,18.5099 -23.3225,12.4479 -42.4803,28.0426 -57.4271,46.8764l0.0462749 -252.383 -87.8297 0.0462749zm79.5465 455.021c0.0462749,-66.7746 13.5123,-116.057 40.4905,-147.848 27.0245,-31.9297 59.7409,-48.0333 98.149,-47.987 39.1023,0.0462749 72.559,16.5201 100.278,49.6529 27.7649,33.0403 41.6937,84.174 41.8325,153.494 -0.0462749,66.0805 -13.6974,115.502 -40.907,148.45 -27.1634,32.7626 -59.602,49.2827 -97.3623,49.329 -37.3438,0 -70.4304,-17.5845 -99.3059,-52.522 -28.8755,-34.9838 -43.2207,-85.9324 -43.1745,-152.568z" id="path3010-1"/></glyph>
   <glyph unicode="" horiz-adv-x="736" id="glyph3012-1"><path d="M370.06 727.904c61.777,-0.0462749 122.119,-15.8723 181.074,-47.5706 58.9079,-31.7446 104.859,-77.0477 137.807,-136.187 32.9014,-59.1393 49.2365,-120.685 49.1902,-184.868 0,-63.4429 -16.1962,-124.526 -48.5423,-182.971 -32.3924,-58.7228 -77.7418,-104.165 -136.233,-136.557 -58.4452,-32.3924 -119.482,-48.5423 -183.295,-48.4961 -63.8593,0 -124.896,16.1962 -183.387,48.5423 -58.3063,32.3924 -103.841,77.9269 -136.465,136.418 -32.4387,58.6303 -48.7737,119.621 -48.7274,183.063 0.0462749,64.1832 16.5664,125.775 49.5604,184.776 33.0865,59.1856 79.0375,104.535 137.853,136.187 58.8616,31.8371 119.343,47.7094 181.166,47.6631zm-0.0462749 -61.0366c-51.689,0 -102.129,-13.2346 -151.041,-39.7501 -49.0514,-26.5155 -87.2744,-64.4146 -115.039,-113.744 -27.5798,-49.2827 -41.5086,-100.648 -41.416,-154.142 -0.0925497,-52.9847 13.5123,-103.841 40.8144,-152.522 27.0708,-48.6349 65.2013,-86.5803 113.882,-113.697 48.9125,-27.2096 99.7686,-40.8144 152.846,-40.7219 53.031,-0.0925497 104.026,13.5585 152.8,40.7219 48.9125,27.2096 86.7654,65.1087 113.744,113.744 26.9783,48.6349 40.5831,99.4447 40.4905,152.568 0.0925497,53.3549 -13.6974,104.674 -41.1384,154.049 -27.5798,49.2827 -65.8491,87.1819 -114.993,113.697 -49.1439,26.5618 -99.491,39.8889 -150.949,39.7964zm118.232 -367.099l60.0648 -17.6307c-9.764,-40.5831 -30.634,-73.1143 -62.3323,-97.4549 -31.7446,-24.2018 -70.2453,-36.2332 -115.456,-36.372 -57.242,0.138825 -103.795,18.7413 -139.611,55.7149 -35.7705,37.205 -53.6789,88.6164 -53.7251,154.234 0,43.0356 8.14438,80.3332 24.3869,112.17 16.2888,31.6983 39.565,55.5761 69.5974,71.6335 30.1249,16.2425 64.646,24.248 103.239,24.248 43.4058,0 79.2689,-10.3193 107.867,-31.0042 28.7367,-20.5923 48.2647,-48.6812 58.6303,-84.2665l-58.0287 -14.0213c-9.71772,23.9704 -24.2018,42.4341 -43.3133,55.391 -19.019,12.8181 -41.2772,19.1578 -67.0986,19.2966 -37.4826,-0.0462749 -68.2092,-13.4197 -92.5497,-40.074 -24.1555,-26.7006 -36.3258,-64.9236 -36.2795,-114.715 -0.0925497,-49.8843 11.4299,-87.5521 34.3822,-113.096 22.9061,-25.5437 52.6145,-38.3156 89.1717,-38.223 29.292,-0.138825 54.9283,8.32948 77.0477,25.2661 22.2119,16.9829 36.696,39.9352 44.0074,68.9033z" id="path3014-1"/></glyph>
  </font>
  <font id="FontID0-7" font-variant="normal" font-style="normal,italic" font-weight="400" horiz-origin-x="0" horiz-origin-y="0" horiz-adv-x="90" vert-origin-x="45" vert-origin-y="90" vert-adv-y="90" style="font-variant:normal;font-weight:400">
	<font-face font-family="Myriad Condensed Web" id="font-face3017-0">
	</font-face>
   <missing-glyph id="missing-glyph3019-4"><path d="M0 0z" id="path3021-0"/></missing-glyph>
   <glyph unicode="." horiz-adv-x="203" id="glyph3023-8"><path d="M132.001 57.9978c0,-18.6687 -5.83097,-34.5059 -17.4929,-47.4876 -11.6859,-13.0057 -26.1794,-19.5086 -43.5043,-19.5086 -16.0052,0 -28.8429,5.49503 -38.5132,16.3411 -9.6463,10.8221 -14.4934,24.6677 -14.4934,41.6567 0,18.3328 5.83097,34.17 17.4929,47.3437 11.6859,13.1497 25.8435,19.6525 42.5205,19.6525 16.3171,0 29.4908,-5.32706 39.3291,-16.1732 9.83827,-10.8221 14.6614,-24.8116 14.6614,-41.8246z" id="path3025-5"/></glyph>
   <glyph unicode="/" horiz-adv-x="304" id="glyph3027-1"><path d="M13.9895 -40.001l-65.9884 0 375.99 722.993 67.0202 0 -377.022 -722.993z" id="path3029-6"/></glyph>
   <glyph unicode=":" horiz-adv-x="203" id="glyph3031-6"><path d="M200.005 413.999c0,-18.3328 -5.83097,-33.834 -17.6609,-46.6718 -11.8539,-12.8377 -26.3474,-19.3166 -43.3364,-19.3166 -15.3333,0 -27.8351,5.32706 -37.5054,15.9812 -9.6703,10.6781 -14.4934,24.3317 -14.4934,41.0088 0,17.6609 5.83097,33.1622 17.4929,46.3358 11.6619,13.1737 25.8435,19.6525 42.4965,19.6525 16.0052,0 28.8429,-5.32706 38.5132,-15.9812 9.6463,-10.6781 14.4934,-24.3317 14.4934,-41.0088zm-69.0119 -357.009c0,-18.3328 -5.83097,-33.834 -17.4929,-46.6478 -11.6619,-12.8377 -26.1554,-19.3406 -43.5043,-19.3406 -15.3333,0 -27.8351,5.32706 -37.5054,16.0052 -9.6463,10.6541 -14.4934,24.3317 -14.4934,40.9848 0,17.6849 5.83097,33.1862 17.4929,46.3358 11.6859,13.1737 25.8435,19.6765 42.5205,19.6765 15.9812,0 28.8189,-5.32706 38.4892,-16.0052 9.6703,-10.6541 14.4934,-24.3317 14.4934,-41.0088z" id="path3033-2"/></glyph>
   <glyph unicode="g" horiz-adv-x="455" id="glyph3035-1"><path d="M1.00782 -176.009l22.0041 64.0207c29.9947,-17.3489 64.6446,-26.0114 103.998,-26.0114 26.6593,0 49.6473,5.83097 68.9879,17.4929 19.3406,11.6619 35.5137,29.1789 48.3275,52.3348 12.8377,23.1799 22.676,51.6629 29.6828,85.6649l14.9974 71.5074 -2.01565 0c-37.0015,-60.6613 -83.6493,-90.992 -139.991,-90.992 -36.6655,0 -65.9884,14.1575 -87.9925,42.4965 -22.0041,28.339 -32.9942,65.4845 -32.9942,111.484 0,88.3524 26.1554,167.347 78.4902,236.838 52.3348,69.5158 119.163,104.166 200.509,104.166 45.9999,0 89.6482,-9.6703 130.993,-28.9869l-75.9946 -409.008c-19.6765,-103.662 -48.9994,-172.674 -88.1845,-207.156 -39.1611,-34.5059 -89.1683,-51.8309 -149.83,-51.8309 -49.6713,0 -89.9842,9.31036 -120.987,27.9791zm310.001 406.009l35.9937 185.007c-14.9974,7.99059 -35.0098,11.9979 -60.0134,11.9979 -48.6634,0 -90.3201,-26.9952 -124.994,-81.0097 -34.6739,-53.9905 -51.9988,-111.988 -51.9988,-173.993 0,-72.0113 23.0119,-108.005 69.0119,-108.005 28.0031,0 54.9983,16.845 80.8178,50.5111 25.8435,33.6661 42.8325,72.1553 51.183,115.492z" id="path3037-9"/></glyph>
   <glyph unicode="a" horiz-adv-x="454" id="glyph3039-6"><path d="M363.992 0l-74.003 0c0,20.6604 2.99947,56.3421 9.02241,106.997l-2.99947 0c-42.6885,-77.3384 -94.6873,-115.996 -156.021,-115.996 -34.9858,0 -62.8209,13.5096 -83.6493,40.3369 -20.8523,26.8273 -31.3385,62.653 -31.3385,107.669 0,91.9998 27.8351,173.993 83.3373,245.981 55.5022,72.0113 127.658,108.005 216.658,108.005 38.3453,0 75.6587,-5.663 112.012,-16.989 -37.0015,-184.336 -57.1819,-285.67 -60.5173,-304.17 -3.33541,-18.5007 -6.16691,-43.6723 -8.66248,-75.3227 -2.49556,-31.6744 -3.83932,-63.8528 -3.83932,-96.511zm-49.9832 259.994l31.9864 163.003c-11.9979,3.33541 -26.3234,4.99112 -43.0004,4.99112 -52.3348,0 -97.8308,-28.651 -136.656,-86.1448 -38.8492,-57.5179 -58.3337,-118.851 -58.3337,-183.856 0,-65.9884 20.6604,-98.9826 62.0051,-98.9826 28.651,0 57.1579,19.6525 85.329,58.8376 28.171,39.1611 47.6556,86.4808 58.6697,142.151z" id="path3041-4"/></glyph>
   <glyph unicode="d" horiz-adv-x="455" id="glyph3043-8"><path d="M356.001 0l-72.0113 0 8.99842 84.993 -1.99165 0c-37.6734,-62.653 -86.0009,-93.9915 -145.006,-93.9915 -37.0015,0 -66.3243,14.6614 -88.1605,44.0083 -21.8362,29.3228 -32.8262,68.316 -32.8262,116.979 0,89.6722 25.6515,169.002 76.8345,237.846 51.159,68.8199 113.5,103.158 187.167,103.158 25.6515,0 47.9916,-5.663 66.9962,-16.989l43.0004 224.984 81.0097 0 -103.014 -538.993c-10.3422,-53.6546 -17.325,-107.669 -20.9963,-161.995zm-47.9916 216.01l34.002 190.982c-14.3495,14.0135 -34.338,20.9963 -60.0134,20.9963 -46.6718,0 -87.3206,-28.147 -121.995,-84.4891 -34.6739,-56.3421 -51.9988,-115.828 -51.9988,-178.505 0,-70.6676 23.6598,-105.989 71.0035,-105.989 26.6593,0 52.8147,14.6614 78.3222,43.9843 25.5075,29.3468 42.3286,67.0202 50.6791,113.02z" id="path3045-0"/></glyph>
   <glyph unicode="f" horiz-adv-x="258" id="glyph3047-8"><path d="M109.997 0l-80.9857 0 79.9779 421.006 -61.9811 0 11.9979 62.9889 62.0051 0c18.6447,92.6717 44.4882,153.501 77.4824,182.512 33.0182,28.9869 70.1637,43.5043 111.508,43.5043 25.9874,0 45.9999,-3.67135 59.9894,-11.0141l-17.9968 -63.9967c-13.6536,4.65518 -28.0031,7.00677 -43.0004,7.00677 -55.3343,0 -90.992,-52.6707 -106.997,-158.012l100.014 0 -12.0219 -62.9889 -99.9904 0 -80.0019 -421.006z" id="path3049-1"/></glyph>
   <glyph unicode="e" horiz-adv-x="399" id="glyph3051-0"><path d="M316 87.0087l10.9901 -60.9973c-42.3286,-22.676 -88.6644,-34.002 -138.984,-34.002 -51.9988,0 -91.8318,16.1492 -119.499,48.3275 -27.6671,32.1543 -41.5127,77.0024 -41.5127,134.664 0,78.9941 23.0119,151.821 69.0119,218.338 45.9999,66.4923 102.654,99.6545 169.986,99.6545 38.3453,0 68.5079,-10.9901 90.3441,-33.1622 21.8362,-22.1721 32.6583,-50.8231 32.6583,-85.8329 0,-108.005 -93.3196,-161.995 -280.007,-161.995 -0.983827,-7.67865 -1.48774,-17.013 -1.48774,-28.0031 0,-84.0092 33.1622,-126.002 99.5105,-126.002 36.3296,0 72.6592,9.6703 108.989,29.0109zm-197.005 187.983c128.665,-1.31977 192.998,30.6666 192.998,96.0071 0,17.6609 -4.99112,31.5065 -15.1653,41.3447 -10.1502,9.81427 -24.4997,14.6614 -42.8325,14.6614 -28.339,0 -54.6624,-13.5096 -79.1621,-40.5049 -24.4997,-26.9952 -43.1684,-64.1647 -55.8382,-111.508z" id="path3053-2"/></glyph>
   <glyph unicode="j" horiz-adv-x="206" id="glyph3055-2"><path d="M114.004 483.995l80.0019 0 -91.016 -480.995c-16.6531,-90.656 -39.3291,-147.838 -68.148,-171.498 -28.8429,-23.6598 -61.1652,-35.4898 -96.847,-35.4898 -21.3322,0 -37.6734,1.65571 -48.9994,4.99112l8.99842 63.9967c8.01459,-1.99165 19.3406,-2.99947 34.002,-2.99947 23.9958,0 42.6645,10.1742 55.8382,30.4986 13.1737,20.3244 23.4919,50.5111 31.1705,90.5121l94.9993 500.984zm117.003 148.51c0,-17.6609 -5.51903,-32.3463 -16.6771,-44.0083 -11.158,-11.6619 -25.0036,-17.4929 -41.3207,-17.4929 -14.3495,0 -25.6755,4.65518 -34.17,13.9895 -8.4945,9.33436 -12.8377,21.5002 -12.8377,36.4976 0,17.013 5.49503,31.5065 16.5091,43.5043 10.9901,11.9979 24.1637,17.9968 39.497,17.9968 14.9974,0 26.9952,-4.65518 35.8257,-13.9895 8.83045,-9.33436 13.1737,-21.5002 13.1737,-36.4976z" id="path3057-9"/></glyph>
   <glyph unicode="o" horiz-adv-x="449" id="glyph3059-7"><path d="M421.99 313.001c0,-80.3379 -22.484,-154.005 -67.6681,-221.169 -45.1601,-67.1642 -102.318,-100.83 -171.33,-100.83 -48.9994,0 -87.1527,16.6771 -114.652,49.8392 -27.4992,33.1622 -41.3447,76.8345 -41.3447,131.161 0,82.3295 23.3479,156.5 69.8277,222.321 46.5038,65.8444 104.166,98.6706 173.178,98.6706 48.9994,0 86.6727,-16.4851 112.828,-49.6713 26.1794,-33.1622 39.1611,-76.6665 39.1611,-130.321zm-313.001 -136.008c0,-37.6494 7.17474,-67.1642 21.3562,-88.6644 14.1575,-21.5002 34.314,-32.3223 60.6613,-32.3223 40.6488,0 75.3227,28.651 103.998,85.8329 28.651,57.1579 43.0004,115.156 43.0004,174.161 0,34.6739 -6.8388,62.0051 -20.5164,81.9936 -13.6536,20.0125 -33.4981,29.9947 -59.4855,29.9947 -40.6728,0 -75.6587,-26.9952 -105.006,-81.1537 -29.3228,-54.1585 -44.0083,-110.836 -44.0083,-169.842z" id="path3061-5"/></glyph>
   <glyph unicode="h" horiz-adv-x="465" id="glyph3063-6"><path d="M96.9909 0l-80.9857 0 132.985 700.989 81.0097 0 -56.0061 -291.981 2.01565 -1.00782c40.001,56.678 88.6644,84.993 145.99,84.993 30.6666,0 55.3343,-9.98224 74.003,-30.1627 18.6687,-20.1565 28.0031,-47.8236 28.0031,-82.8334 0,-23.3239 -3.33541,-52.5028 -10.0062,-87.4886l-54.9983 -292.509 -81.0097 0 57.014 302.011c3.33541,17.325 4.99112,37.3134 4.99112,59.9894 0,41.9926 -19.0047,62.9889 -56.99,62.9889 -28.0031,0 -55.6702,-16.1492 -83.0014,-48.6634 -27.3312,-32.4903 -45.328,-71.6514 -54.0145,-117.315l-48.9994 -259.01z" id="path3065-4"/></glyph>
   <glyph unicode="r" horiz-adv-x="286" id="glyph3067-6"><path d="M96.9909 0l-80.9857 0c42.3286,225.008 65.6524,351.01 69.9957,377.838 4.34324,26.8273 8.66248,62.1731 13.0057,106.157l71.0035 0c-2.01565,-28.651 -5.35106,-61.3332 -10.0062,-97.9988l2.99947 0c35.6577,71.3394 80.3379,106.997 133.992,106.997l19.0047 -0.983827 -16.0052 -83.0014c-2.32759,0.647886 -7.65465,0.983827 -16.0052,0.983827 -31.6504,0 -61.1652,-17.325 -88.6644,-52.1668 -27.4992,-34.8179 -45.9999,-77.1464 -55.3343,-126.818l-43.0004 -231.007z" id="path3069-3"/></glyph>
   <glyph unicode="w" horiz-adv-x="632" id="glyph3071-7"><path d="M57.9978 483.995l81.9936 0c6.67083,-199.333 10.0062,-305.994 10.0062,-319.984 0,-24.6677 -1.00782,-50.0072 -2.99947,-76.0186l2.99947 0c13.6776,39.665 29.3468,78.5142 47.0077,116.499l129.985 279.503 68.004 0c14.9974,-216.322 22.508,-333.829 22.508,-352.498 0,-14.9974 -0.503911,-29.4908 -1.51173,-43.5043l2.99947 0c18.0208,56.678 32.5143,97.9988 43.5043,124.01l116.499 271.992 82.0176 0 -224.001 -483.995 -73.0191 0 -15.5013 189.495c-4.31924,53.6786 -6.8148,88.1605 -7.48668,103.35 -0.671882,15.1653 -1.00782,29.8268 -1.00782,44.1522 0,15.3333 0.335941,30.6666 1.00782,45.9999l-2.99947 0c-21.3322,-59.3416 -37.5054,-100.494 -48.4955,-123.506l-123.506 -259.49 -74.003 0 -34.002 483.995z" id="path3073-9"/></glyph>
   <glyph unicode="p" horiz-adv-x="458" id="glyph3075-7"><path d="M56.0061 -194.99l-80.0019 0 96.0071 506.983c9.31036,50.3431 18.3328,107.669 26.9952,172.002l72.9952 0 -11.9979 -83.9852 1.99165 0c42.3286,61.9811 91.9998,92.9836 149.014,92.9836 38.6572,0 68.316,-13.9895 89.0003,-42.1606 20.6604,-28.171 30.9785,-66.4923 30.9785,-114.844 0,-87.6566 -24.6437,-166.987 -73.979,-238.158 -49.3353,-71.1715 -109.013,-106.829 -179.008,-106.829 -32.6583,0 -59.6775,6.33489 -81.0097,19.0047l-1.99165 0 -38.9931 -204.996zm81.9936 433.988l-29.9947 -160.988c17.9968,-14.6854 40.6728,-22.0041 68.004,-22.0041 46.9837,0 87.3206,30.3307 120.819,90.992 33.4981,60.6613 50.1752,121.011 50.1752,181 0,63.9967 -22.676,96.0071 -68.004,96.0071 -28.339,0 -56.3421,-17.181 -84.1772,-51.6629 -27.8111,-34.5059 -46.8158,-79.0181 -56.822,-133.345z" id="path3077-4"/></glyph>
   </font>
</defs>
</svg>
