<?xml version="1.0" encoding="UTF-8" standalone="no"?>
<!-- Creator: CorelDRAW X5 -->

<svg
   xmlns:dc="http://purl.org/dc/elements/1.1/"
   xmlns:cc="http://creativecommons.org/ns#"
   xmlns:rdf="http://www.w3.org/1999/02/22-rdf-syntax-ns#"
   xmlns:svg="http://www.w3.org/2000/svg"
   xmlns="http://www.w3.org/2000/svg"
   xmlns:sodipodi="http://sodipodi.sourceforge.net/DTD/sodipodi-0.dtd"
   xmlns:inkscape="http://www.inkscape.org/namespaces/inkscape"
   xml:space="preserve"
   width="440"
   height="160"
   style="fill-rule:evenodd"
   viewBox="0 0 12418.077 4515.7851"
   id="svg2"
   version="1.1"
   inkscape:version="0.48.4 r9939"
   sodipodi:docname="logo-utfpr.svg"
   inkscape:export-filename="/home/phls/phls/eventos/sfd/2014/logos/logo-utfpr.png"
   inkscape:export-xdpi="90"
   inkscape:export-ydpi="90"><metadata
     id="metadata62"><rdf:RDF><cc:Work
         rdf:about=""><dc:format>image/svg+xml</dc:format><dc:type
           rdf:resource="http://purl.org/dc/dcmitype/StillImage" /><dc:title></dc:title></cc:Work></rdf:RDF></metadata><sodipodi:namedview
     pagecolor="#ffffff"
     bordercolor="#666666"
     borderopacity="1"
     objecttolerance="10"
     gridtolerance="10"
     guidetolerance="10"
     inkscape:pageopacity="0"
     inkscape:pageshadow="2"
     inkscape:window-width="1920"
     inkscape:window-height="1052"
     id="namedview60"
     showgrid="false"
     inkscape:zoom="1.452566"
     inkscape:cx="302.05723"
     inkscape:cy="80.021523"
     inkscape:window-x="0"
     inkscape:window-y="0"
     inkscape:window-maximized="1"
     inkscape:current-layer="svg2" /><defs
     id="defs4"><style
       type="text/css"
       id="style6">
    .fil0 {fill:#373435}
    .fil2 {fill:#FFCC29}
    .fil1 {fill:#373435;fill-rule:nonzero}
   </style></defs><g
     id="Camada_x0020_1"
     transform="matrix(0.93550495,0,0,0.93550495,471.68233,173.65697)"><metadata
       id="CorelCorpID_0Corel-Layer" /><g
       id="_243006560"><polygon
         class="fil0"
         points="7983,2169 7983,1560 6027,1560 6027,3862 6756,3862 6756,2169 "
         id="polygon11"
         style="fill:#373435" /><path
         class="fil0"
         d="m 2465,0 0,2228 c 0,658 -210,1089 -802,1089 -592,0 -802,-431 -802,-1089 L 861,0 87,0 87,2466 c 0,1034 586,1460 1576,1460 990,0 1575,-426 1575,-1460 l 0,-1858 894,0 0,3251 774,0 0,-3251 3080,0 0,-608 -5522,0 z"
         id="path13"
         inkscape:connector-curvature="0"
         style="fill:#373435" /><path
         class="fil1"
         d="m 34,4181 68,0 0,179 c 0,28 1,47 3,55 3,14 10,24 21,32 11,8 26,12 45,12 19,0 34,-4 44,-12 10,-8 16,-17 18,-28 2,-11 3,-30 3,-56 l 0,-183 68,0 0,173 c 0,40 -2,68 -5,84 -4,16 -10,30 -20,41 -10,11 -23,20 -40,27 -17,7 -38,10 -65,10 -32,0 -57,-4 -73,-11 -17,-7 -30,-17 -39,-28 -10,-12 -16,-24 -19,-37 -4,-19 -7,-47 -7,-84 l 0,-176 z"
         id="path15"
         inkscape:connector-curvature="0"
         style="fill:#373435;fill-rule:nonzero" /><polygon
         id="1"
         class="fil1"
         points="375,4511 375,4181 441,4181 579,4401 579,4181 642,4181 642,4511 574,4511 438,4296 438,4511 "
         style="fill:#373435;fill-rule:nonzero" /><polygon
         id="12"
         class="fil1"
         points="780,4181 780,4511 712,4511 712,4181 "
         style="fill:#373435;fill-rule:nonzero" /><polygon
         id="123"
         class="fil1"
         points="969,4425 1052,4181 1124,4181 1003,4511 931,4511 810,4181 884,4181 "
         style="fill:#373435;fill-rule:nonzero" /><polygon
         id="1234"
         class="fil1"
         points="1415,4455 1415,4511 1159,4511 1159,4181 1408,4181 1408,4237 1227,4237 1227,4310 1396,4310 1396,4366 1227,4366 1227,4455 "
         style="fill:#373435;fill-rule:nonzero" /><path
         id="12345"
         class="fil1"
         d="m 1473,4511 0,-330 143,0 c 36,0 62,3 78,9 16,6 29,16 39,32 10,15 15,32 15,52 0,25 -7,45 -22,61 -15,16 -37,26 -67,30 15,8 27,18 36,28 10,10 22,28 39,54 l 41,64 -81,0 -49,-72 c -17,-26 -29,-42 -36,-48 -6,-7 -13,-11 -20,-14 -7,-2 -19,-4 -34,-4 l -14,0 0,138 -68,0 z m 68,-190 50,0 c 33,0 53,-1 61,-4 8,-3 14,-7 19,-14 5,-7 7,-15 7,-25 0,-11 -3,-20 -9,-27 -6,-7 -15,-11 -26,-13 -5,-1 -22,-1 -50,-1 l -53,0 0,84 z"
         inkscape:connector-curvature="0"
         style="fill:#373435;fill-rule:nonzero" /><path
         id="123456"
         class="fil1"
         d="m 1795,4404 66,-6 c 4,22 12,38 24,48 12,10 29,15 49,15 22,0 38,-5 49,-14 11,-9 17,-20 17,-32 0,-8 -2,-14 -7,-20 -5,-6 -13,-10 -24,-14 -8,-3 -26,-8 -54,-14 -36,-9 -62,-20 -77,-33 -21,-18 -31,-40 -31,-66 0,-17 5,-32 15,-47 10,-15 24,-26 42,-33 18,-8 40,-11 66,-11 42,0 74,9 96,27 21,18 33,42 34,73 l -68,3 c -3,-17 -9,-29 -19,-37 -10,-7 -24,-11 -43,-11 -20,0 -35,4 -46,12 -7,5 -11,12 -11,20 0,8 3,15 10,20 9,7 29,14 63,22 33,8 58,16 73,24 16,8 28,19 37,34 9,14 13,32 13,53 0,19 -5,37 -16,53 -11,17 -26,29 -45,37 -20,8 -44,12 -73,12 -43,0 -75,-10 -98,-29 -23,-19 -36,-47 -41,-84 z"
         inkscape:connector-curvature="0"
         style="fill:#373435;fill-rule:nonzero" /><polygon
         id="1234567"
         class="fil1"
         points="2192,4181 2192,4511 2124,4511 2124,4181 "
         style="fill:#373435;fill-rule:nonzero" /><path
         id="12345678"
         class="fil1"
         d="m 2257,4181 124,0 c 28,0 49,2 64,6 20,6 37,16 51,30 14,15 25,32 32,53 7,21 11,47 11,78 0,27 -3,51 -10,70 -8,24 -20,43 -36,58 -12,11 -28,20 -48,26 -15,5 -35,7 -60,7 l -128,0 0,-330 z m 68,56 0,218 51,0 c 19,0 33,-1 41,-3 11,-3 20,-7 27,-14 7,-6 13,-17 18,-32 5,-15 7,-35 7,-60 0,-25 -2,-45 -7,-59 -5,-14 -11,-24 -19,-32 -8,-8 -19,-13 -32,-16 -9,-2 -28,-3 -56,-3 l -31,0 z"
         inkscape:connector-curvature="0"
         style="fill:#373435;fill-rule:nonzero" /><path
         id="123456789"
         class="fil1"
         d="m 2901,4511 -74,0 -29,-75 -135,0 -28,75 -72,0 131,-330 72,0 135,330 z m -125,-130 -46,-122 -45,122 92,0 z"
         inkscape:connector-curvature="0"
         style="fill:#373435;fill-rule:nonzero" /><path
         id="12345678910"
         class="fil1"
         d="m 2936,4181 124,0 c 28,0 49,2 64,6 20,6 37,16 51,30 14,15 25,32 32,53 7,21 11,47 11,78 0,27 -3,51 -10,70 -8,24 -20,43 -36,58 -12,11 -28,20 -48,26 -15,5 -35,7 -60,7 l -128,0 0,-330 z m 68,56 0,218 51,0 c 19,0 33,-1 41,-3 11,-3 20,-7 27,-14 7,-6 13,-17 18,-32 5,-15 7,-35 7,-60 0,-25 -2,-45 -7,-59 -5,-14 -11,-24 -19,-32 -8,-8 -19,-13 -32,-16 -9,-2 -28,-3 -56,-3 l -31,0 z"
         inkscape:connector-curvature="0"
         style="fill:#373435;fill-rule:nonzero" /><polygon
         id="1234567891011"
         class="fil1"
         points="3533,4455 3533,4511 3276,4511 3276,4181 3526,4181 3526,4237 3344,4237 3344,4310 3514,4310 3514,4366 3344,4366 3344,4455 "
         style="fill:#373435;fill-rule:nonzero" /><polygon
         id="123456789101112"
         class="fil1"
         points="3697,4237 3697,4181 3965,4181 3965,4237 3865,4237 3865,4511 3797,4511 3797,4237 "
         style="fill:#373435;fill-rule:nonzero" /><polygon
         id="12345678910111213"
         class="fil1"
         points="4265,4455 4265,4511 4009,4511 4009,4181 4258,4181 4258,4237 4077,4237 4077,4310 4246,4310 4246,4366 4077,4366 4077,4455 "
         style="fill:#373435;fill-rule:nonzero" /><path
         id="1234567891011121314"
         class="fil1"
         d="m 4538,4390 66,20 c -10,36 -27,63 -50,80 -23,17 -53,26 -89,26 -45,0 -81,-15 -110,-45 -29,-30 -43,-71 -43,-123 0,-55 15,-98 43,-128 29,-30 67,-46 114,-46 41,0 75,12 100,36 15,14 27,34 35,61 l -67,16 c -4,-17 -12,-31 -25,-41 -13,-10 -28,-15 -46,-15 -25,0 -45,9 -61,26 -16,18 -23,46 -23,85 0,42 8,71 23,89 15,18 35,27 60,27 18,0 34,-6 47,-17 13,-11 22,-29 28,-53 z"
         inkscape:connector-curvature="0"
         style="fill:#373435;fill-rule:nonzero" /><polygon
         id="123456789101112131415"
         class="fil1"
         points="4663,4511 4663,4181 4729,4181 4867,4401 4867,4181 4930,4181 4930,4511 4862,4511 4726,4296 4726,4511 "
         style="fill:#373435;fill-rule:nonzero" /><path
         id="12345678910111213141516"
         class="fil1"
         d="m 4988,4348 c 0,-34 5,-62 15,-85 8,-17 18,-32 31,-45 13,-13 28,-23 44,-30 21,-9 45,-13 73,-13 50,0 89,15 119,45 30,30 45,72 45,126 0,53 -15,95 -44,125 -30,30 -69,45 -119,45 -50,0 -90,-15 -120,-45 -30,-30 -44,-71 -44,-124 z m 70,-2 c 0,37 9,66 26,85 18,19 40,29 67,29 27,0 49,-10 67,-29 17,-19 26,-48 26,-86 0,-38 -8,-66 -25,-85 -17,-19 -39,-28 -67,-28 -28,0 -51,9 -68,28 -17,19 -26,47 -26,85 z"
         inkscape:connector-curvature="0"
         style="fill:#373435;fill-rule:nonzero" /><polygon
         id="1234567891011121314151617"
         class="fil1"
         points="5607,4455 5607,4511 5370,4511 5370,4184 5438,4184 5438,4455 "
         style="fill:#373435;fill-rule:nonzero" /><path
         id="123456789101112131415161718"
         class="fil1"
         d="m 5642,4348 c 0,-34 5,-62 15,-85 8,-17 18,-32 31,-45 13,-13 28,-23 44,-30 21,-9 45,-13 73,-13 50,0 89,15 119,45 30,30 45,72 45,126 0,53 -15,95 -44,125 -30,30 -69,45 -119,45 -50,0 -90,-15 -120,-45 -30,-30 -44,-71 -44,-124 z m 70,-2 c 0,37 9,66 26,85 18,19 40,29 67,29 27,0 49,-10 67,-29 17,-19 26,-48 26,-86 0,-38 -8,-66 -25,-85 -17,-19 -39,-28 -67,-28 -28,0 -51,9 -68,28 -17,19 -26,47 -26,85 z m 52,-184 32,-67 72,0 -63,67 -41,0 z"
         inkscape:connector-curvature="0"
         style="fill:#373435;fill-rule:nonzero" /><path
         id="12345678910111213141516171819"
         class="fil1"
         d="m 6178,4390 0,-56 147,0 0,131 c -14,14 -35,25 -62,36 -27,10 -54,15 -82,15 -35,0 -66,-7 -92,-22 -26,-15 -46,-35 -59,-62 -13,-27 -20,-56 -20,-88 0,-34 7,-65 22,-92 15,-27 36,-47 65,-61 22,-11 48,-16 81,-16 42,0 75,9 98,26 24,17 39,41 45,71 l -68,12 c -5,-16 -14,-29 -27,-38 -13,-9 -29,-14 -49,-14 -30,0 -53,9 -71,28 -18,19 -26,46 -26,82 0,39 9,69 27,88 18,20 41,29 70,29 14,0 29,-3 43,-8 14,-5 27,-12 37,-20 l 0,-42 -78,0 z"
         inkscape:connector-curvature="0"
         style="fill:#373435;fill-rule:nonzero" /><polygon
         id="1234567891011121314151617181920"
         class="fil1"
         points="6454,4181 6454,4511 6386,4511 6386,4181 "
         style="fill:#373435;fill-rule:nonzero" /><path
         id="123456789101112131415161718192021"
         class="fil1"
         d="m 6734,4390 66,20 c -10,36 -27,63 -50,80 -23,17 -53,26 -89,26 -45,0 -81,-15 -110,-45 -29,-30 -43,-71 -43,-123 0,-55 15,-98 43,-128 29,-30 67,-46 114,-46 41,0 75,12 100,36 15,14 27,34 35,61 l -67,16 c -4,-17 -12,-31 -25,-41 -13,-10 -28,-15 -46,-15 -25,0 -45,9 -61,26 -16,18 -23,46 -23,85 0,42 8,71 23,89 15,18 35,27 60,27 18,0 34,-6 47,-17 13,-11 22,-29 28,-53 z"
         inkscape:connector-curvature="0"
         style="fill:#373435;fill-rule:nonzero" /><path
         id="12345678910111213141516171819202122"
         class="fil1"
         d="m 7162,4511 -74,0 -29,-75 -135,0 -28,75 -72,0 131,-330 72,0 135,330 z m -125,-130 -46,-122 -45,122 92,0 z"
         inkscape:connector-curvature="0"
         style="fill:#373435;fill-rule:nonzero" /><polygon
         id="1234567891011121314151617181920212223"
         class="fil1"
         points="7312,4511 7312,4181 7543,4181 7543,4237 7380,4237 7380,4315 7521,4315 7521,4371 7380,4371 7380,4511 "
         style="fill:#373435;fill-rule:nonzero" /><polygon
         id="123456789101112131415161718192021222324"
         class="fil1"
         points="7855,4455 7855,4511 7599,4511 7599,4181 7849,4181 7849,4237 7667,4237 7667,4310 7836,4310 7836,4366 7667,4366 7667,4455 "
         style="fill:#373435;fill-rule:nonzero" /><path
         id="12345678910111213141516171819202122232425"
         class="fil1"
         d="m 7913,4181 124,0 c 28,0 49,2 64,6 20,6 37,16 51,30 14,15 25,32 32,53 7,21 11,47 11,78 0,27 -3,51 -10,70 -8,24 -20,43 -36,58 -12,11 -28,20 -48,26 -15,5 -35,7 -60,7 l -128,0 0,-330 z m 68,56 0,218 51,0 c 19,0 33,-1 41,-3 11,-3 20,-7 27,-14 7,-6 13,-17 18,-32 5,-15 7,-35 7,-60 0,-25 -2,-45 -7,-59 -5,-14 -11,-24 -19,-32 -8,-8 -19,-13 -32,-16 -9,-2 -28,-3 -56,-3 l -31,0 z"
         inkscape:connector-curvature="0"
         style="fill:#373435;fill-rule:nonzero" /><polygon
         id="1234567891011121314151617181920212223242526"
         class="fil1"
         points="8509,4455 8509,4511 8253,4511 8253,4181 8502,4181 8502,4237 8321,4237 8321,4310 8490,4310 8490,4366 8321,4366 8321,4455 "
         style="fill:#373435;fill-rule:nonzero" /><path
         id="123456789101112131415161718192021222324252627"
         class="fil1"
         d="m 8567,4511 0,-330 143,0 c 36,0 62,3 78,9 16,6 29,16 39,32 10,15 15,32 15,52 0,25 -7,45 -22,61 -15,16 -37,26 -67,30 15,8 27,18 36,28 10,10 22,28 39,54 l 41,64 -81,0 -49,-72 c -17,-26 -29,-42 -36,-48 -6,-7 -13,-11 -20,-14 -7,-2 -19,-4 -34,-4 l -14,0 0,138 -68,0 z m 68,-190 50,0 c 33,0 53,-1 61,-4 8,-3 14,-7 19,-14 5,-7 7,-15 7,-25 0,-11 -3,-20 -9,-27 -6,-7 -15,-11 -26,-13 -5,-1 -22,-1 -50,-1 l -53,0 0,84 z"
         inkscape:connector-curvature="0"
         style="fill:#373435;fill-rule:nonzero" /><path
         id="12345678910111213141516171819202122232425262728"
         class="fil1"
         d="m 9210,4511 -74,0 -29,-75 -135,0 -28,75 -72,0 131,-330 72,0 135,330 z m -125,-130 -46,-122 -45,122 92,0 z"
         inkscape:connector-curvature="0"
         style="fill:#373435;fill-rule:nonzero" /><polygon
         id="1234567891011121314151617181920212223242526272829"
         class="fil1"
         points="9485,4455 9485,4511 9248,4511 9248,4184 9316,4184 9316,4455 "
         style="fill:#373435;fill-rule:nonzero" /><path
         id="123456789101112131415161718192021222324252627282930"
         class="fil1"
         d="m 9656,4181 124,0 c 28,0 49,2 64,6 20,6 37,16 51,30 14,15 25,32 32,53 7,21 11,47 11,78 0,27 -3,51 -10,70 -8,24 -20,43 -36,58 -12,11 -28,20 -48,26 -15,5 -35,7 -60,7 l -128,0 0,-330 z m 68,56 0,218 51,0 c 19,0 33,-1 41,-3 11,-3 20,-7 27,-14 7,-6 13,-17 18,-32 5,-15 7,-35 7,-60 0,-25 -2,-45 -7,-59 -5,-14 -11,-24 -19,-32 -8,-8 -19,-13 -32,-16 -9,-2 -28,-3 -56,-3 l -31,0 z"
         inkscape:connector-curvature="0"
         style="fill:#373435;fill-rule:nonzero" /><path
         id="12345678910111213141516171819202122232425262728293031"
         class="fil1"
         d="m 9982,4348 c 0,-34 5,-62 15,-85 8,-17 18,-32 31,-45 13,-13 28,-23 44,-30 21,-9 45,-13 73,-13 50,0 89,15 119,45 30,30 45,72 45,126 0,53 -15,95 -44,125 -30,30 -69,45 -119,45 -50,0 -90,-15 -120,-45 -30,-30 -44,-71 -44,-124 z m 70,-2 c 0,37 9,66 26,85 18,19 40,29 67,29 27,0 49,-10 67,-29 17,-19 26,-48 26,-86 0,-38 -8,-66 -25,-85 -17,-19 -39,-28 -67,-28 -28,0 -51,9 -68,28 -17,19 -26,47 -26,85 z"
         inkscape:connector-curvature="0"
         style="fill:#373435;fill-rule:nonzero" /><path
         id="1234567891011121314151617181920212223242526272829303132"
         class="fil1"
         d="m 10493,4511 0,-330 109,0 c 41,0 68,2 81,5 19,5 36,16 49,32 13,17 20,38 20,64 0,20 -4,37 -11,51 -8,14 -17,25 -29,33 -12,8 -23,13 -35,16 -16,3 -40,5 -71,5 l -44,0 0,124 -68,0 z m 68,-274 0,94 37,0 c 27,0 45,-2 54,-5 9,-3 16,-9 21,-16 5,-7 8,-16 8,-26 0,-12 -4,-22 -11,-30 -7,-8 -16,-13 -27,-15 -8,-2 -24,-2 -49,-2 l -33,0 z"
         inkscape:connector-curvature="0"
         style="fill:#373435;fill-rule:nonzero" /><path
         id="123456789101112131415161718192021222324252627282930313233"
         class="fil1"
         d="m 11075,4511 -74,0 -29,-75 -135,0 -28,75 -72,0 131,-330 72,0 135,330 z m -125,-130 -46,-122 -45,122 92,0 z"
         inkscape:connector-curvature="0"
         style="fill:#373435;fill-rule:nonzero" /><path
         id="12345678910111213141516171819202122232425262728293031323334"
         class="fil1"
         d="m 11112,4511 0,-330 143,0 c 36,0 62,3 78,9 16,6 29,16 39,32 10,15 15,32 15,52 0,25 -7,45 -22,61 -15,16 -37,26 -67,30 15,8 27,18 36,28 10,10 22,28 39,54 l 41,64 -81,0 -49,-72 c -17,-26 -29,-42 -36,-48 -6,-7 -13,-11 -20,-14 -7,-2 -19,-4 -34,-4 l -14,0 0,138 -68,0 z m 68,-190 50,0 c 33,0 53,-1 61,-4 8,-3 14,-7 19,-14 5,-7 7,-15 7,-25 0,-11 -3,-20 -9,-27 -6,-7 -15,-11 -26,-13 -5,-1 -22,-1 -50,-1 l -53,0 0,84 z"
         inkscape:connector-curvature="0"
         style="fill:#373435;fill-rule:nonzero" /><path
         id="1234567891011121314151617181920212223242526272829303132333435"
         class="fil1"
         d="m 11755,4511 -74,0 -29,-75 -135,0 -28,75 -72,0 131,-330 72,0 135,330 z m -125,-130 -46,-122 -45,122 92,0 z"
         inkscape:connector-curvature="0"
         style="fill:#373435;fill-rule:nonzero" /><polygon
         id="123456789101112131415161718192021222324252627282930313233343536"
         class="fil1"
         points="11792,4511 11792,4181 11858,4181 11996,4401 11996,4181 12059,4181 12059,4511 11991,4511 11855,4296 11855,4511 "
         style="fill:#373435;fill-rule:nonzero" /><path
         id="12345678910111213141516171819202122232425262728293031323334353637"
         class="fil1"
         d="m 12435,4511 -74,0 -29,-75 -135,0 -28,75 -72,0 131,-330 72,0 135,330 z m -125,-130 -46,-122 -45,122 92,0 z m -85,-218 32,-67 72,0 -63,67 -41,0 z"
         inkscape:connector-curvature="0"
         style="fill:#373435;fill-rule:nonzero" /><polygon
         class="fil2"
         points="5857,1378 5857,3862 5082,3862 5082,769 7983,769 7983,1378 "
         id="polygon54"
         style="fill:#ffcc29" /><path
         class="fil1"
         d="m 8295,3856 0,-2301 745,0 c 282,0 467,12 552,35 132,34 243,109 332,225 89,116 133,265 133,448 0,141 -26,260 -77,356 -51,96 -116,172 -196,227 -79,55 -159,91 -241,109 -111,22 -272,33 -482,33 l -303,0 0,868 -464,0 z m 464,-1911 0,652 254,0 c 183,0 306,-12 367,-36 62,-24 110,-62 145,-113 35,-51 52,-111 52,-179 0,-84 -25,-153 -74,-207 -49,-54 -111,-88 -186,-102 -56,-11 -167,-16 -334,-16 l -224,0 z"
         id="path56"
         inkscape:connector-curvature="0"
         style="fill:#373435;fill-rule:nonzero" /><path
         class="fil1"
         d="m 10182,3854 0,-2301 978,0 c 246,0 424,21 536,62 111,41 201,115 268,220 67,106 100,227 100,363 0,172 -51,316 -152,428 -101,112 -253,183 -455,212 101,59 184,123 249,193 65,70 153,194 264,373 l 281,449 -556,0 -336,-501 c -119,-179 -201,-291 -245,-338 -44,-47 -91,-78 -140,-96 -49,-17 -127,-26 -234,-26 l -94,0 0,960 -465,0 z m 465,-1328 343,0 c 223,0 362,-9 418,-28 55,-19 99,-51 130,-97 31,-46 47,-103 47,-172 0,-78 -21,-140 -62,-187 -41,-48 -100,-78 -175,-91 -37,-5 -151,-7 -339,-7 l -362,0 0,583 z"
         id="path58"
         inkscape:connector-curvature="0"
         style="fill:#373435;fill-rule:nonzero" /></g></g></svg>