<?xml version="1.0" encoding="UTF-8" standalone="no"?>
<!-- Created with Inkscape (http://www.inkscape.org/) -->

<svg
   xmlns:dc="http://purl.org/dc/elements/1.1/"
   xmlns:cc="http://creativecommons.org/ns#"
   xmlns:rdf="http://www.w3.org/1999/02/22-rdf-syntax-ns#"
   xmlns:svg="http://www.w3.org/2000/svg"
   xmlns="http://www.w3.org/2000/svg"
   xmlns:sodipodi="http://sodipodi.sourceforge.net/DTD/sodipodi-0.dtd"
   xmlns:inkscape="http://www.inkscape.org/namespaces/inkscape"
   version="1.1"
   width="1000"
   height="390"
   id="svg2"
   inkscape:version="0.48.4 r9939"
   sodipodi:docname="Serpro.svg"
   inkscape:export-filename="/home/phls/phls/eventos/sfd/2014/logos/logo-serpro-2.png"
   inkscape:export-xdpi="13.5"
   inkscape:export-ydpi="13.5">
  <sodipodi:namedview
     pagecolor="#ffffff"
     bordercolor="#666666"
     borderopacity="1"
     objecttolerance="10"
     gridtolerance="10"
     guidetolerance="10"
     inkscape:pageopacity="0"
     inkscape:pageshadow="2"
     inkscape:window-width="1920"
     inkscape:window-height="1052"
     id="namedview8"
     showgrid="false"
     inkscape:zoom="1.28"
     inkscape:cx="500"
     inkscape:cy="137.80215"
     inkscape:window-x="0"
     inkscape:window-y="0"
     inkscape:window-maximized="1"
     inkscape:current-layer="text2985" />
  <defs
     id="defs4" />
  <metadata
     id="metadata7">
    <rdf:RDF>
      <cc:Work
         rdf:about="">
        <dc:format>image/svg+xml</dc:format>
        <dc:type
           rdf:resource="http://purl.org/dc/dcmitype/StillImage" />
        <dc:title></dc:title>
      </cc:Work>
    </rdf:RDF>
  </metadata>
  <g
     transform="translate(281.81971,-198.27443)"
     id="layer1">
    <path
       d="m -281.81622,485.84651 c 0.0943,-0.23774 3.78022,-10.38042 8.19093,-22.53928 4.41072,-12.15887 8.45,-23.27414 8.97622,-24.7006 0.52621,-1.42646 6.41878,-17.65475 13.09457,-36.06286 6.67578,-18.40811 12.56671,-34.63641 13.091,-36.06286 0.52421,-1.42646 4.37935,-12.0633 8.56685,-23.63743 l 7.61372,-21.04385 33.31536,33.27065 c 18.3235,18.29885 33.222,33.10392 33.10786,32.90014 -0.11407,-0.20378 -0.99814,-1.42646 -1.96457,-2.71706 -9.39571,-12.54792 -14.50314,-25.89432 -14.79307,-38.65643 -0.509,-22.40712 10.68936,-43.52295 29.90835,-56.39547 10.89422,-7.29679 24.12936,-11.40178 36.76586,-11.40329 6.631785,-7.2e-4 16.989142,1.91536 25.318142,4.68396 13.458857,4.4738 23.360143,10.86631 31.570786,20.38277 l 1.065572,1.23503 -0.818572,-1.20495 c -2.104571,-3.098 -6.375214,-8.07415 -10.319929,-12.0247 -4.245285,-4.25165 -5.046071,-5.00048 -7.542,-7.05271 -21.102143,-17.35072 -49.495219,-25.38774 -77.930429,-22.05917 -27.35178,3.20175 -51.4745,17.13045 -68.41043,39.50096 -1.18279,1.56232 -2.57393,3.4797 -3.09136,4.26085 -0.5175,0.78116 -0.97914,1.42029 -1.02593,1.42029 -0.0464,0 0.12843,-0.58355 0.38936,-1.29678 1.35386,-3.70049 27.23307,-75.01754 30.7215,-84.66129 l 4.06543,-11.23877 105.868788,-0.062 c 58.227876,-0.0341 105.868847,0.01 105.868847,0.0976 0,0.18981 -0.489714,1.54486 -14.00185,38.74439 -5.773564,15.89482 -11.6643572,32.12312 -13.090643,36.06287 -1.4262857,3.93974 -7.3173857,20.16803 -13.091321,36.06286 -5.773936,15.89484 -11.662064,32.12312 -13.084743,36.06287 -1.422678,3.93975 -3.017328,8.33028 -3.543671,9.75673 -0.526343,1.42646 -4.153057,11.4086 -8.059407,22.18253 l -7.102426,19.58897 -33.339572,-33.2978 c -18.336857,-18.31378 -33.182072,-33.0583 -32.989432,-32.76558 0.19265,0.29272 1.36422,2.01558 2.60343,3.82859 7.362716,10.77151 11.190288,19.97738 12.975573,31.20805 0.419,2.63584 0.419072,12.42043 1.43e-4,15.31437 -0.903,6.23779 -2.066571,10.98211 -3.887571,15.85115 -7.479715,19.99969 -24.392575,35.37375 -44.934075,40.84579 -7.20178,1.9185 -14.91399,2.5908 -21.24256,1.85181 -12.29065,-1.43521 -22.9593,-4.50892 -32.58166,-9.38699 -7.72685,-3.91718 -13.62914,-8.52124 -19.66364,-15.33869 -1.30307,-1.47215 -1.173,-1.26518 1.19814,1.9062 3.92058,5.2439 10.54536,12.21381 15.60179,16.41482 10.96221,9.10753 22.96229,15.46545 36.49772,19.33725 4.9115,1.40492 8.32,2.12509 14.756,3.11773 2.83886,0.43782 9.70164,0.85938 14.00414,0.86022 24.98465,0.005 47.636931,-8.16658 66.415859,-23.95856 6.221715,-5.23213 13.845072,-13.6695 18.077286,-20.00749 0.680357,-1.0189 1.318572,-1.94372 1.418286,-2.05517 0.155071,-0.17328 -2.575071,7.47519 -5.935572,16.62853 -0.523714,1.42646 -4.543642,12.51197 -8.933142,24.63447 l -7.981,22.04088 -105.930207,0.004 c -100.78758,0.004 -105.92194,-0.0168 -105.75873,-0.42794 z m 239.230151,0.15443 c -6.191786,-1.00311 -10.868286,-6.45419 -10.868286,-12.66841 0,-3.03612 1.212572,-6.283 3.207072,-8.58731 3.970357,-4.58712 11.291921,-5.6592 16.42354,-2.40483 7.684528,4.87338 8.097328,15.86887 0.800128,21.31227 -1.591235,1.18698 -3.149843,1.85296 -5.323368,2.27455 -2.00035,0.388 -2.270229,0.39269 -4.239086,0.0737 z m 5.908057,-1.75236 c 2.895026,-1.07104 4.962569,-2.87589 6.388162,-5.57652 1.011564,-1.91628 1.376393,-3.76618 1.243207,-6.30377 -0.0951,-1.81186 -0.24125,-2.37807 -1.021222,-3.95624 -1.644542,-3.32749 -4.1315,-5.43591 -7.52019,-6.37557 -5.421085,-1.5032 -10.942014,1.06413 -13.521585,6.28783 -0.825358,1.67134 -0.967715,2.21238 -1.063858,4.04398 -0.179428,3.41979 0.742143,6.25842 2.820072,8.68604 1.485357,1.73524 4.306357,3.29948 6.767357,3.75241 1.588214,0.29233 4.302243,0.0359 5.908057,-0.55816 z m -9.3662,-11.06112 0,-8.1512 4.146786,0 c 3.813407,0 4.234207,0.0447 5.234428,0.55577 1.551098,0.79257 2.064205,1.61157 2.168169,3.46075 0.1028,1.82895 -0.383579,2.97916 -1.6045,3.79445 l -0.799926,0.53415 0.625683,0.40999 c 0.832214,0.54526 1.016679,1.10866 1.347543,4.11556 0.153907,1.3986 0.386864,2.74288 0.517679,2.98731 0.208121,0.38894 0.128807,0.44442 -0.635379,0.44442 -0.5296,0 -0.876371,-0.1215 -0.881243,-0.30876 -0.0325,-1.24951 -0.716986,-5.62198 -0.947483,-6.05268 -0.408157,-0.76261 -1.735935,-1.0458 -4.9109,-1.04736 l -2.778785,-0.002 0,3.70509 0,3.70509 -0.741,0 -0.741072,0 0,-8.15119 z m 8.510443,-0.8439 c 1.139069,-0.4759 1.64284,-1.3321 1.654297,-2.81149 0.01164,-1.48443 -0.309078,-2.14436 -1.350004,-2.77906 -0.6745,-0.41127 -1.254943,-0.48001 -4.059807,-0.4808 l -3.272857,0 0,3.21107 0,3.21108 3.0955,0 c 2.11165,0 3.36165,-0.1112 3.932871,-0.34988 z m 68.67894,-3.61557 c -13.762257,-1.281 -25.6443789,-4.74016 -38.656429,-11.25381 -2.784992,-1.39415 -5.270314,-2.68797 -5.522928,-2.8752 -0.4371,-0.32395 -0.351636,-0.6025 1.766486,-5.75807 1.224186,-2.97971 3.3619205,-8.19648 4.750492,-11.59282 1.3885714,-3.39633 3.54925,-8.67608 4.8015,-11.73278 1.25227145,-3.0567 2.4726786,-6.07585 2.7120286,-6.70924 l 0.4352,-1.15161 3.4945643,2.29783 c 8.8707211,5.83293 14.7235001,8.59142 22.1434861,10.43648 2.280628,0.5671 3.115114,0.64676 6.916164,0.6602 3.988829,0.0141 4.437043,-0.03 5.804643,-0.57109 3.154436,-1.24805 4.6158,-2.83598 4.953629,-5.38271 0.329135,-2.48104 -1.256493,-4.58606 -4.706622,-6.24836 -2.570964,-1.23872 -4.961636,-1.94346 -11.732786,-3.45874 -3.0567,-0.68404 -6.502428,-1.53164 -7.657185,-1.88356 -10.242565,-3.1215 -17.8773434,-8.6633 -22.3132791,-16.19632 -3.1799001,-5.40006 -4.6061144,-11.12086 -4.6089072,-18.48725 -0.00357,-9.82626 2.3583143,-18.12456 7.23883576,-25.43135 1.75742144,-2.63108 2.89717864,-3.99431 5.58810714,-6.68373 3.8777504,-3.87556 6.8232434,-6.04486 12.1192004,-8.92553 2.826293,-1.53734 8.149957,-3.53081 11.732778,-4.39341 3.320922,-0.79954 4.103486,-0.95294 6.792665,-1.33149 17.431457,-2.4538 35.363221,0.8336 52.694543,9.66038 2.010257,1.02382 2.648071,1.46245 2.564114,1.76342 -0.06143,0.22035 -2.530521,6.18057 -5.486843,13.24494 -2.956314,7.06437 -5.903021,14.12256 -6.548221,15.68488 -0.645229,1.56231 -1.381014,3.31386 -1.635107,3.89231 l -0.462,1.05176 -2.807693,-1.87704 c -6.404543,-4.28164 -13.084693,-7.05364 -19.326779,-8.01986 -2.537643,-0.39281 -8.57795,-0.18566 -10.260578,0.35188 -3.425501,1.09431 -4.991372,3.16417 -4.815258,6.36503 0.05571,1.01239 2.034786,3.01768 4.107365,4.16176 2.685028,1.48218 8.186271,3.33207 13.218971,4.44512 4.290193,0.94883 10.503107,2.51865 12.123143,3.06315 5.474836,1.8401 9.938014,4.62594 14.060422,8.77625 4.067935,4.0955 6.421235,7.85005 8.107278,12.93468 2.588322,7.80569 2.342307,19.22638 -0.605043,28.08847 -5.000064,15.03419 -18.944685,27.11174 -36.082228,31.25105 -2.857543,0.6902 -5.844636,1.22181 -9.08935,1.61763 -2.851536,0.34787 -12.917079,0.48589 -15.808379,0.21675 z M 641.4968,468.71139 C 628.249,467.59095 615.48871,462.8696 605.31043,455.32236 593.36322,446.46342 584.90357,434.47 580.986,420.83703 c -1.80978,-6.29815 -2.55171,-11.31738 -2.75885,-18.66392 -0.48965,-17.37092 4.41592,-32.83313 14.38021,-45.32558 2.441,-3.06035 7.94922,-8.43357 11.26793,-10.99177 12.06442,-9.29978 26.05128,-14.09296 42.43816,-14.54321 18.16293,-0.49905 34.84821,5.14378 48.44271,16.38295 2.08693,1.72533 6.84493,6.59725 8.69679,8.90502 5.9185,7.37548 10.523,16.75763 12.74107,25.96105 3.42771,14.22296 2.36843,30.80429 -2.78614,43.61001 -3.69515,9.1801 -8.00693,15.65077 -15.20229,22.8139 -11.56893,11.51716 -26.47579,18.21053 -43.98793,19.75115 -3.28,0.28856 -9.14836,0.27692 -12.72086,-0.0252 z m 10.45022,-44.06508 c 4.49421,-0.72888 7.87621,-2.34963 10.94643,-5.24593 5.19014,-4.89612 7.75214,-12.29767 7.28835,-21.05586 -0.62864,-11.87319 -6.37885,-19.90782 -16.20757,-22.64667 -2.16714,-0.6039 -8.12657,-0.7223 -10.65114,-0.2116 -8.18086,1.65493 -14.44709,8.00698 -16.52352,16.74986 -1.1265,4.74296 -1.09107,11.36598 0.0855,15.99148 2.99457,11.77311 13.05759,18.36561 25.06195,16.41872 z m -547.07058,-24.81966 0,-65.70358 43.72005,0 43.72005,0 0,17.78443 0,17.78443 -20.7485,0 -20.7485,0 0,6.42215 0,6.42216 18.89595,0 18.89596,0 0,16.7964 0,16.7964 -18.89596,0 -18.89595,0 0,6.91616 0,6.91617 21.36601,0 21.36601,0 0,17.78443 0,17.78443 -44.33756,0 -44.33756,0 0,-65.70358 z m 100.2844,-0.004 0,-65.70713 30.93748,0.0347 c 34.17577,0.0384 36.93415,0.12289 44.14794,1.35291 7.64073,1.30282 14.69537,3.96594 20.28378,7.65711 3.25914,2.15267 7.95043,6.75877 9.91484,9.73482 3.62889,5.49763 5.80126,11.727 6.62687,19.00284 0.44464,3.91828 0.16644,12.5581 -0.50557,15.70149 -1.4728,6.88916 -3.98206,11.90685 -8.12066,16.23869 -4.01677,4.20431 -8.23698,6.51079 -14.18906,7.75476 -1.11432,0.2329 -2.05877,0.44593 -2.09884,0.47343 -0.0401,0.0275 2.60957,4.14839 5.88803,9.15757 3.27847,5.00916 6.92368,10.57985 8.10049,12.37929 1.17683,1.79943 4.47389,6.82759 7.32681,11.17366 11.47894,17.48678 13.3417,20.33792 13.42102,20.54222 0.0461,0.11874 -11.57223,0.18516 -26.25636,0.15011 l -26.33911,-0.0629 -11.41204,-21.55993 -11.41202,-21.55992 -0.0631,21.62167 -0.0631,21.62168 -23.09372,0 -23.09368,0 0,-65.70713 z m 57.90124,-6.54188 c 5.19261,-1.10004 8.52573,-4.42888 9.41132,-9.39918 0.43649,-2.44974 0.43819,-3.44373 0.0101,-5.84492 -0.83812,-4.70033 -3.35656,-7.68627 -7.80877,-9.25831 -1.73472,-0.61251 -2.16051,-0.65511 -7.58083,-0.75849 l -5.74289,-0.10952 0,12.87035 0,12.87037 5.00187,-0.004 c 3.43504,-0.003 5.53671,-0.1176 6.70927,-0.366 z m 71.52988,6.54084 0,-65.70819 29.82596,0.0387 c 16.40428,0.0213 31.54883,0.13787 33.65456,0.2591 28.94181,1.66621 44.00225,11.93298 48.50929,33.06896 1.09071,5.1149 1.26255,7.12497 1.25554,14.68512 -0.007,7.68629 -0.23547,10.01109 -1.49701,15.24295 -0.80049,3.31974 -1.38209,4.97482 -2.80273,7.9756 -3.36085,7.09913 -7.89697,11.70425 -15.08712,15.31668 -2.98518,1.49979 -4.81463,2.18622 -8.58429,3.22092 -7.55302,2.07318 -12.47172,2.57653 -26.91905,2.75478 l -11.42403,0.14095 0,19.35629 0,19.35632 -23.46556,0 -23.46556,0 0,-65.70817 z m 60.51645,-7.89085 c 4.65038,-1.35056 7.27074,-4.15006 7.94519,-8.48829 0.73573,-4.73237 -1.41591,-9.06137 -5.50258,-11.07095 -2.99692,-1.47369 -4.36543,-1.69201 -10.60596,-1.69201 l -5.17497,0 0,11.02286 0,11.02285 5.74289,-0.12822 c 4.91794,-0.1098 6.00899,-0.2055 7.59543,-0.66624 z m 63.72753,7.89186 0,-65.70715 30.93749,0.0348 c 29.81095,0.0335 34.60319,0.12049 39.7062,0.7208 12.711,1.49528 22.48687,5.54552 29.66173,12.28914 6.063,5.69858 9.8195,13.2574 11.38143,22.90183 0.44343,2.73819 0.44064,13.50899 -0.007,15.80838 -1.618,8.36485 -3.99908,13.37664 -8.66543,18.2389 -3.75365,3.91125 -8.30293,6.34995 -13.95672,7.48165 -1.09507,0.2192 -2.03107,0.43437 -2.08007,0.47817 -0.0486,0.0438 1.17707,2.00324 2.72457,4.35435 1.5475,2.35112 3.69943,5.63578 4.78215,7.29926 1.08271,1.66347 3.96928,6.0785 6.41464,9.81117 11.21571,17.11997 14.55057,22.2077 17.61228,26.86932 l 3.286,5.00308 -26.24407,0.0629 c -14.4342,0.0346 -26.32388,-0.021 -26.42152,-0.1235 -0.0976,-0.10251 -4.64453,-8.63399 -10.10425,-18.95884 -5.45969,-10.32486 -10.57943,-19.99514 -11.37718,-21.48952 l -1.45045,-2.71707 -0.0217,1.11153 c -0.0119,0.61134 -0.0289,10.36499 -0.0376,21.67477 l -0.0158,20.56324 -23.06381,0 -23.0638,0 0,-65.70715 z m 59.49898,-6.97439 c 4.04796,-1.44807 6.56058,-4.06484 7.5799,-7.8941 0.45578,-1.71214 0.45283,-6.34658 -0.005,-8.06713 -1.11185,-4.1774 -3.7578,-6.87139 -8.19087,-8.33961 -0.91978,-0.30462 -2.57375,-0.428 -6.9499,-0.5184 -5.15253,-0.10645 -5.74452,-0.0779 -5.7588,0.27791 -0.009,0.21811 -0.0158,5.78747 -0.0158,12.37635 0,6.58888 0.007,12.21382 0.0158,12.49985 0.0158,0.51638 0.0566,0.51935 5.7588,0.41869 5.44752,-0.0962 5.83665,-0.13492 7.56599,-0.75356 z"
       id="path3068"
       style="fill:#0059aa;fill-opacity:1"
       inkscape:connector-curvature="0" />
    <path
       d="m -973.0696,817.65721 c 6.07895,-16.898 49.87875,-137.43788 97.33289,-267.86646 47.45414,-130.42857 95.04597,-261.57142 105.75962,-291.42857 10.71366,-29.85714 20.94115,-58.07365 22.72777,-62.70337 l 3.24839,-8.41766 134.14333,134.12055 c 73.77883,73.76628 134.14331,133.21105 134.14331,132.09948 0,-1.1116 -7.08517,-12.42631 -15.7448,-25.1438 -20.2052,-29.67325 -28.03388,-45.30731 -38.98262,-77.84923 -10.70326,-31.81231 -13.98652,-76.92362 -8.20889,-112.78848 10.15686,-63.0492 48.60274,-127.28317 99.24914,-165.82183 83.17677,-63.292246 173.08635,-75.029606 276.89717,-36.147915 42.3016,15.8438 67.458147,31.066143 95.935261,58.050829 13.912629,13.183516 25.981458,23.284256 26.8196,22.446086 2.563829,-2.5638 -39.762485,-51.0682 -60.608631,-69.455257 -31.80508,-28.053238 -50.17717,-40.6660147 -84.85623,-58.25542 -61.07765,-30.978903 -107.72062,-42.59246 -180.5,-44.942398 -41.4048,-1.3369 -53.81937,-0.671042 -84.13908,4.5128 -85.649,14.643635 -155.22212,49.9277576 -214.66363,108.867046 -15.0558,14.928572 -32.84174,33.571429 -39.52434,41.428572 -6.68261,7.857147 -11.59415,12.357147 -10.91454,9.999997 0.67961,-2.35714 31.20897,-86.892855 67.84302,-187.85714 l 66.60737,-183.57143 426.987,0 c 405.49495,0 426.88852,0.25167 425.03029,5 -1.0762,2.75 -15.88374,43.57143 -32.90566,90.71429 C 156.3998,60.321583 -13.464829,527.08247 -15.192886,530.04718 -16.400257,532.11855 -67.738829,483.56461 -150,402.55204 -223.07143,330.58975 -283.22163,272.07241 -283.66709,272.51347 c -0.44545,0.44106 5.87643,11.58031 14.04869,24.75388 21.54077,34.72352 32.9016,60.20389 41.26386,92.54772 6.53337,25.26988 7.2218,32.48314 5.99683,62.83283 -2.8572,70.78963 -28.98832,131.5546 -77.49552,180.20711 -62.9248,63.11329 -144.35751,89.10392 -231.44788,73.87054 -70.75435,-12.37594 -132.39906,-42.29822 -172.31569,-83.6418 -8.27495,-8.57077 -15.66111,-14.96748 -16.41368,-14.21491 -2.62256,2.62257 36.30422,46.79737 60.79585,68.99226 124.27834,112.62374 312.93477,136.53014 466.33554,59.09368 48.90203,-24.68565 106.80489,-72.81531 138.470947,-115.09894 4.445172,-5.93563 8.492172,-10.382 8.993343,-9.88083 0.501171,0.50117 -18.161743,53.57189 -41.473171,117.93492 l -42.384369,117.02368 -427.41497,0.7236 -427.41494,0.72357 11.05265,-30.72357 z"
       id="path3074"
       style="fill:none"
       inkscape:connector-curvature="0" />
  </g>
  <g
     style="font-size:81.63413239px;font-style:normal;font-variant:normal;font-weight:bold;font-stretch:normal;line-height:125%;letter-spacing:0px;word-spacing:0px;fill:#000000;fill-opacity:1;stroke:none;font-family:Futura LtCn BT;-inkscape-font-specification:Futura LtCn BT Bold"
     id="text2985">
    <path
       d="m 5.9112035,358.92154 c 1.4083963,1.56785 2.8832303,2.75038 4.4245065,3.54758 1.54126,0.79721 3.148961,1.19582 4.82311,1.19581 2.710493,10e-6 4.929387,-0.98322 6.65669,-2.94967 1.753837,-1.96644 2.630765,-4.50421 2.630787,-7.61334 -2.2e-5,-1.32866 -0.186037,-2.55105 -0.558046,-3.66716 -0.345478,-1.11607 -0.890236,-2.15244 -1.634277,-3.10911 -1.142684,-1.46152 -3.162276,-3.25524 -6.058783,-5.38115 -1.169252,-0.85033 -2.032893,-1.50139 -2.590927,-1.95317 -2.949679,-2.39159 -5.0755661,-4.74335 -6.3776668,-7.05529 -1.3021105,-2.33844 -1.9531634,-4.94265 -1.9531604,-7.81264 -3e-6,-4.35802 1.2888159,-7.97203 3.8664604,-10.84203 2.5776308,-2.89647 5.8063218,-4.34473 9.6860808,-4.34479 1.541252,6e-5 3.055946,0.2658 4.544088,0.79721 1.514673,0.53153 2.989507,1.32874 4.424506,2.39162 l 0,6.856 c -1.169263,-1.64752 -2.497942,-2.89648 -3.986042,-3.74688 -1.488142,-0.87688 -3.06927,-1.31534 -4.743389,-1.3154 -2.524507,6e-5 -4.570673,0.90356 -6.138504,2.71051 -1.567852,1.78048 -2.351773,4.11896 -2.351765,7.01543 -8e-6,2.44482 0.531464,4.55742 1.594417,6.33781 1.062933,1.7539 3.574137,4.10566 7.533618,7.05529 4.092315,3.00285 6.789534,5.62035 8.091665,7.85251 1.30208,2.20563 1.953133,4.83641 1.95316,7.89236 -2.7e-5,4.62382 -1.328706,8.42384 -3.986041,11.40008 -2.657382,2.94967 -6.032227,4.4245 -10.124546,4.4245 -1.780443,0 -3.467866,-0.22587 -5.062273,-0.67762 -1.5944232,-0.45175 -3.1489778,-1.14267 -4.6636685,-2.07274 l 0,-6.93572"
       style=""
       id="path2995" />
    <path
       d="m 52.109426,345.52844 c -0.02659,-4.14545 -0.558065,-7.36086 -1.594417,-9.64622 -1.009814,-2.28529 -2.431501,-3.42796 -4.265065,-3.42799 -1.939885,3e-5 -3.49444,1.12941 -4.663668,3.38813 -1.142674,2.25879 -1.793726,5.48748 -1.953161,9.68608 l 12.476311,0 m 4.583948,3.98604 -17.060259,0 0,1.3154 c -7e-6,4.33151 0.558038,7.69307 1.674138,10.08468 1.116081,2.36506 2.657349,3.54758 4.623808,3.54758 1.620975,0 2.936368,-0.85035 3.946181,-2.55107 1.036353,-1.72727 1.594398,-4.05246 1.674138,-6.97557 l 4.663669,0 c -0.186039,4.22521 -1.209122,7.5602 -3.069253,10.00497 -1.860171,2.44477 -4.291654,3.66715 -7.294456,3.66715 -3.640594,0 -6.377673,-1.66085 -8.211245,-4.98255 -1.807009,-3.34827 -2.710511,-8.3441 -2.710509,-14.98751 -2e-6,-6.53709 0.98322,-11.59935 2.949671,-15.18682 1.96644,-3.5874 4.703519,-5.38112 8.211246,-5.38116 3.507699,4e-5 6.151771,1.70075 7.932223,5.10213 1.780408,3.37488 2.670623,8.384 2.670648,15.02738 l 0,1.31539"
       style=""
       id="path2997" />
    <path
       d="m 63.27034,328.78707 4.823111,0 0,5.30143 c 0.717477,-1.83354 1.607692,-3.22865 2.670648,-4.18534 1.089504,-0.95661 2.338463,-1.48808 3.746879,-1.59442 l 0,5.22172 c -2.391639,0.1329 -4.065775,0.96997 -5.022413,2.5112 -0.930086,1.5413 -1.395124,4.37139 -1.395114,8.49027 l 0,23.35821 -4.823111,0 0,-39.10307"
       style=""
       id="path2999" />
    <path
       d="m 76.663447,328.78707 5.062272,0 4.942692,25.0722 c 0.345446,1.75387 0.637755,3.45458 0.876929,5.10213 0.265724,1.64757 0.4916,3.28185 0.677627,4.90283 0.265724,-1.59441 0.837056,-4.5175 1.713998,-8.76929 l 0.279023,-1.23567 5.141994,-25.0722 4.862968,0 -9.367195,39.10307 -5.301436,0 -8.888872,-39.10307"
       style=""
       id="path3001" />
    <path
       d="m 107.07694,313.28137 c 1.03636,5e-5 1.9,0.34551 2.59093,1.03637 0.71747,0.69096 1.07622,1.54132 1.07623,2.55106 -1e-5,0.9567 -0.35876,1.79377 -1.07623,2.51121 -0.7175,0.71754 -1.58114,1.07628 -2.59093,1.07623 -0.95666,5e-5 -1.79373,-0.35869 -2.51121,-1.07623 -0.71749,-0.74401 -1.07623,-1.60765 -1.07623,-2.59093 0,-0.98317 0.34545,-1.80695 1.03637,-2.47134 0.69091,-0.69086 1.54127,-1.03632 2.55107,-1.03637 m -2.43149,15.5057 4.90283,0 0,39.10307 -4.90283,0 0,-39.10307"
       style=""
       id="path3003" />
    <path
       d="m 134.5009,329.78358 0,5.62032 c -0.74408,-0.90347 -1.50142,-1.56781 -2.27204,-1.99302 -0.77065,-0.42515 -1.62101,-0.63773 -2.55107,-0.63777 -2.49793,4e-5 -4.31822,1.31543 -5.46087,3.94618 -1.14268,2.63082 -1.71401,6.81616 -1.714,12.55603 -1e-5,4.80984 0.58461,8.43713 1.75386,10.8819 1.16923,2.44477 2.92308,3.66716 5.26157,3.66715 1.00978,1e-5 1.92657,-0.23915 2.75037,-0.71748 0.82376,-0.5049 1.54125,-1.24896 2.15246,-2.23219 l 0,5.70004 c -0.90352,0.6112 -1.82031,1.06295 -2.75036,1.35526 -0.9301,0.29231 -1.92661,0.43846 -2.98954,0.43846 -3.428,0 -6.13851,-1.70071 -8.13152,-5.10213 -1.96645,-3.42799 -2.94968,-8.17137 -2.94967,-14.23017 -10e-6,-6.88254 1.00979,-12.0511 3.02939,-15.5057 2.01959,-3.48111 5.03569,-5.22168 9.04831,-5.22172 0.87692,4e-5 1.72727,0.13291 2.55107,0.39861 0.82376,0.2392 1.58111,0.59794 2.27204,1.07623 m -7.6532,38.10656 0,4.4245 0.63777,0 c 2.23217,0 3.95945,0.58462 5.18186,1.75386 1.22236,1.16923 1.83355,2.81679 1.83357,4.94269 -2e-5,2.33847 -0.66436,4.10561 -1.99302,5.30144 -1.32869,1.19579 -3.29514,1.7937 -5.89934,1.79372 -1.03638,-2e-5 -2.16576,-0.13289 -3.38813,-0.39861 -1.19582,-0.23918 -2.55108,-0.62449 -4.06577,-1.15595 l 0,-3.02939 c 1.64756,0.47831 3.08254,0.82377 4.30493,1.03637 1.22237,0.23915 2.29861,0.35873 3.22869,0.35874 1.32867,-10e-6 2.36504,-0.33218 3.10912,-0.99651 0.74404,-0.66435 1.11607,-1.58114 1.11609,-2.75037 -2e-5,-1.35526 -0.38534,-2.36506 -1.15595,-3.02939 -0.74408,-0.66434 -1.91332,-0.99651 -3.50772,-0.99651 -0.39862,0 -0.70421,0 -0.91679,0 -0.18603,0.0266 -0.35876,0.0531 -0.51819,0.0797 l 0,-7.33431 2.03288,0"
       style=""
       id="path3005" />
    <path
       d="m 149.56814,332.13534 c -2.15248,4e-5 -3.73361,1.27557 -4.74339,3.8266 -0.98323,2.5511 -1.47485,6.65672 -1.47484,12.31687 -1e-5,5.68677 0.49161,9.81896 1.47484,12.39659 1.00978,2.57765 2.59091,3.86647 4.74339,3.86646 2.0993,1e-5 3.65385,-1.31539 4.66367,-3.94618 1.03635,-2.65735 1.55453,-6.72311 1.55455,-12.19729 -2e-5,-5.50071 -0.5182,-9.57975 -1.55455,-12.23714 -1.00982,-2.6839 -2.56437,-4.02587 -4.66367,-4.02591 m -11.16092,16.14347 c 0,-6.7231 0.93007,-11.78536 2.79023,-15.18682 1.88672,-3.40138 4.70352,-5.10209 8.45041,-5.10213 3.64057,4e-5 6.40422,1.72732 8.29096,5.18185 1.88671,3.42803 2.83007,8.46373 2.83009,15.1071 -2e-5,6.69656 -0.94338,11.75883 -2.83009,15.18682 -1.86017,3.428 -4.62382,5.14199 -8.29096,5.14199 -3.74689,0 -6.56369,-1.70071 -8.45041,-5.10213 -1.86016,-3.40141 -2.79023,-8.47697 -2.79023,-15.22668"
       style=""
       id="path3007" />
    <path
       d="m 185.00405,309.69393 18.29593,0 0,4.90283 -12.95464,0 0,20.6477 12.7952,0 0,4.66366 -12.7952,0 0,27.98202 -5.34129,0 0,-58.19621"
       style=""
       id="path3009" />
    <path
       d="m 225.42251,345.52844 c -0.0266,-4.14545 -0.55807,-7.36086 -1.59442,-9.64622 -1.00981,-2.28529 -2.4315,-3.42796 -4.26506,-3.42799 -1.93989,3e-5 -3.49444,1.12941 -4.66367,3.38813 -1.14267,2.25879 -1.79373,5.48748 -1.95316,9.68608 l 12.47631,0 m 4.58395,3.98604 -17.06026,0 0,1.3154 c -1e-5,4.33151 0.55804,7.69307 1.67414,10.08468 1.11608,2.36506 2.65735,3.54758 4.6238,3.54758 1.62098,0 2.93637,-0.85035 3.94619,-2.55107 1.03635,-1.72727 1.59439,-4.05246 1.67413,-6.97557 l 4.66367,0 c -0.18604,4.22521 -1.20912,7.5602 -3.06925,10.00497 -1.86017,2.44477 -4.29165,3.66715 -7.29446,3.66715 -3.64059,0 -6.37767,-1.66085 -8.21124,-4.98255 -1.80701,-3.34827 -2.71051,-8.3441 -2.71051,-14.98751 0,-6.53709 0.98322,-11.59935 2.94967,-15.18682 1.96644,-3.5874 4.70352,-5.38112 8.21125,-5.38116 3.5077,4e-5 6.15177,1.70075 7.93222,5.10213 1.78041,3.37488 2.67062,8.384 2.67065,15.02738 l 0,1.31539"
       style=""
       id="path3011" />
    <path
       d="m 239.77226,348.55783 c -10e-6,6.11195 0.43846,10.32386 1.31539,12.63576 0.9035,2.28533 2.44477,3.428 4.62381,3.42799 2.0993,1e-5 3.58742,-1.18252 4.46437,-3.54757 0.90348,-2.39162 1.35523,-6.56367 1.35525,-12.51618 -2e-5,-5.97903 -0.45177,-10.16437 -1.35525,-12.55603 -0.87695,-2.41816 -2.36507,-3.62726 -4.46437,-3.62729 -2.17904,3e-5 -3.72031,1.16927 -4.62381,3.50771 -0.87693,2.33851 -1.3154,6.56371 -1.31539,12.67561 m 11.40008,19.33231 0,-3.58744 c -0.55806,1.35526 -1.43499,2.4182 -2.63079,3.18883 -1.16925,0.74406 -2.55108,1.11609 -4.14548,1.11609 -3.34828,0 -5.77977,-1.63427 -7.29446,-4.90283 -1.48812,-3.29512 -2.23218,-8.72942 -2.23218,-16.30291 0,-6.6168 0.75734,-11.45319 2.27204,-14.50919 1.54127,-3.05593 3.95946,-4.58391 7.2546,-4.58395 1.51468,4e-5 2.84336,0.3455 3.98604,1.03637 1.16922,0.66438 2.0993,1.64761 2.79023,2.94968 l 0,-26.1883 4.82311,0 0,61.78365 -4.82311,0"
       style=""
       id="path3013" />
    <path
       d="m 280.42989,345.52844 c -0.0266,-4.14545 -0.55806,-7.36086 -1.59441,-9.64622 -1.00982,-2.28529 -2.4315,-3.42796 -4.26507,-3.42799 -1.93988,3e-5 -3.49444,1.12941 -4.66367,3.38813 -1.14267,2.25879 -1.79372,5.48748 -1.95316,9.68608 l 12.47631,0 m 4.58395,3.98604 -17.06026,0 0,1.3154 c 0,4.33151 0.55804,7.69307 1.67414,10.08468 1.11608,2.36506 2.65735,3.54758 4.62381,3.54758 1.62098,0 2.93637,-0.85035 3.94618,-2.55107 1.03635,-1.72727 1.5944,-4.05246 1.67414,-6.97557 l 4.66367,0 c -0.18604,4.22521 -1.20912,7.5602 -3.06925,10.00497 -1.86018,2.44477 -4.29166,3.66715 -7.29446,3.66715 -3.6406,0 -6.37767,-1.66085 -8.21125,-4.98255 -1.80701,-3.34827 -2.71051,-8.3441 -2.7105,-14.98751 -1e-5,-6.53709 0.98322,-11.59935 2.94967,-15.18682 1.96644,-3.5874 4.70351,-5.38112 8.21124,-5.38116 3.5077,4e-5 6.15177,1.70075 7.93222,5.10213 1.78041,3.37488 2.67063,8.384 2.67065,15.02738 l 0,1.31539"
       style=""
       id="path3015" />
    <path
       d="m 291.5908,328.78707 4.82311,0 0,5.30143 c 0.71748,-1.83354 1.60769,-3.22865 2.67065,-4.18534 1.0895,-0.95661 2.33846,-1.48808 3.74688,-1.59442 l 0,5.22172 c -2.39164,0.1329 -4.06578,0.96997 -5.02242,2.5112 -0.93008,1.5413 -1.39512,4.37139 -1.39511,8.49027 l 0,23.35821 -4.82311,0 0,-39.10307"
       style=""
       id="path3017" />
    <path
       d="m 311.8399,348.55783 c 0,6.11195 0.43846,10.32386 1.3154,12.63576 0.90349,2.28533 2.44476,3.428 4.62381,3.42799 2.09929,1e-5 3.58742,-1.18252 4.46436,-3.54757 0.90349,-2.39162 1.35524,-6.56367 1.35526,-12.51618 -2e-5,-5.97903 -0.45177,-10.16437 -1.35526,-12.55603 -0.87694,-2.41816 -2.36507,-3.62726 -4.46436,-3.62729 -2.17905,3e-5 -3.72032,1.16927 -4.62381,3.50771 -0.87694,2.33851 -1.3154,6.56371 -1.3154,12.67561 m 11.4798,19.33231 0,-3.58744 c -0.58464,1.38183 -1.48814,2.44477 -2.71051,3.18883 -1.19582,0.74406 -2.57765,1.11609 -4.14548,1.11609 -3.34828,0 -5.77977,-1.63427 -7.29445,-4.90283 -1.48813,-3.29512 -2.23219,-8.72942 -2.23219,-16.30291 0,-6.6168 0.75735,-11.45319 2.27205,-14.50919 1.54126,-3.05593 3.95945,-4.58391 7.25459,-4.58395 1.48811,4e-5 2.8035,0.3455 3.94618,1.03637 1.14265,0.69096 2.11259,1.72733 2.90981,3.10912 l 0,-3.66716 4.74339,0 0,39.10307 -4.74339,0"
       style=""
       id="path3019" />
    <path
       d="m 337.27084,306.10649 4.90283,0 0,61.78365 -4.90283,0 0,-61.78365"
       style=""
       id="path3021" />
    <path
       d="m 370.51443,348.55783 c 0,6.11195 0.43846,10.32386 1.3154,12.63576 0.90349,2.28533 2.44476,3.428 4.62381,3.42799 2.09929,1e-5 3.58742,-1.18252 4.46436,-3.54757 0.90349,-2.39162 1.35524,-6.56367 1.35526,-12.51618 -2e-5,-5.97903 -0.45177,-10.16437 -1.35526,-12.55603 -0.87694,-2.41816 -2.36507,-3.62726 -4.46436,-3.62729 -2.17905,3e-5 -3.72032,1.16927 -4.62381,3.50771 -0.87694,2.33851 -1.3154,6.56371 -1.3154,12.67561 m 11.40008,19.33231 0,-3.58744 c -0.55806,1.35526 -1.43499,2.4182 -2.63079,3.18883 -1.16925,0.74406 -2.55108,1.11609 -4.14548,1.11609 -3.34828,0 -5.77977,-1.63427 -7.29445,-4.90283 -1.48813,-3.29512 -2.23219,-8.72942 -2.23219,-16.30291 0,-6.6168 0.75735,-11.45319 2.27205,-14.50919 1.54126,-3.05593 3.95945,-4.58391 7.25459,-4.58395 1.51468,4e-5 2.84336,0.3455 3.98604,1.03637 1.16922,0.66438 2.0993,1.64761 2.79023,2.94968 l 0,-26.1883 4.82311,0 0,61.78365 -4.82311,0"
       style=""
       id="path3023" />
    <path
       d="m 411.17205,345.52844 c -0.0266,-4.14545 -0.55806,-7.36086 -1.59442,-9.64622 -1.00981,-2.28529 -2.4315,-3.42796 -4.26506,-3.42799 -1.93989,3e-5 -3.49444,1.12941 -4.66367,3.38813 -1.14267,2.25879 -1.79372,5.48748 -1.95316,9.68608 l 12.47631,0 m 4.58395,3.98604 -17.06026,0 0,1.3154 c -10e-6,4.33151 0.55804,7.69307 1.67414,10.08468 1.11608,2.36506 2.65735,3.54758 4.62381,3.54758 1.62097,0 2.93636,-0.85035 3.94618,-2.55107 1.03635,-1.72727 1.5944,-4.05246 1.67414,-6.97557 l 4.66366,0 c -0.18603,4.22521 -1.20912,7.5602 -3.06925,10.00497 -1.86017,2.44477 -4.29165,3.66715 -7.29445,3.66715 -3.6406,0 -6.37768,-1.66085 -8.21125,-4.98255 -1.80701,-3.34827 -2.71051,-8.3441 -2.71051,-14.98751 0,-6.53709 0.98322,-11.59935 2.94967,-15.18682 1.96644,-3.5874 4.70352,-5.38112 8.21125,-5.38116 3.5077,4e-5 6.15177,1.70075 7.93222,5.10213 1.78041,3.37488 2.67063,8.384 2.67065,15.02738 l 0,1.31539"
       style=""
       id="path3025" />
    <path
       d="m 444.65479,314.43732 0,20.80714 2.90981,0 c 2.97623,3e-5 5.10212,-0.82375 6.37767,-2.47135 1.30208,-1.64753 1.95314,-4.35803 1.95316,-8.13152 -2e-5,-3.53425 -0.70422,-6.11189 -2.1126,-7.73293 -1.40842,-1.64751 -3.61403,-2.47129 -6.61683,-2.47134 l -2.51121,0 m -5.34129,-4.74339 7.45389,0 c 5.04897,6e-5 8.71613,1.24902 11.00148,3.74688 2.2853,2.4714 3.42797,6.44415 3.42799,11.91826 -2e-5,5.04903 -1.10283,8.75604 -3.30841,11.12106 -2.20563,2.33851 -5.67348,3.50774 -10.40357,3.50772 l -2.83009,0 0,27.90229 -5.34129,0 0,-58.19621"
       style=""
       id="path3027" />
    <path
       d="m 466.33888,328.78707 4.82311,0 0,5.30143 c 0.71747,-1.83354 1.60769,-3.22865 2.67064,-4.18534 1.08951,-0.95661 2.33847,-1.48808 3.74688,-1.59442 l 0,5.22172 c -2.39164,0.1329 -4.06577,0.96997 -5.02241,2.5112 -0.93009,1.5413 -1.39512,4.37139 -1.39511,8.49027 l 0,23.35821 -4.82311,0 0,-39.10307"
       style=""
       id="path3029" />
    <path
       d="m 492.52715,332.13534 c -2.15247,4e-5 -3.7336,1.27557 -4.74339,3.8266 -0.98323,2.5511 -1.47484,6.65672 -1.47483,12.31687 -10e-6,5.68677 0.4916,9.81896 1.47483,12.39659 1.00979,2.57765 2.59092,3.86647 4.74339,3.86646 2.0993,1e-5 3.65386,-1.31539 4.66367,-3.94618 1.03635,-2.65735 1.55454,-6.72311 1.55456,-12.19729 -2e-5,-5.50071 -0.51821,-9.57975 -1.55456,-12.23714 -1.00981,-2.6839 -2.56437,-4.02587 -4.66367,-4.02591 m -11.16091,16.14347 c -1e-5,-6.7231 0.93007,-11.78536 2.79022,-15.18682 1.88672,-3.40138 4.70352,-5.10209 8.45041,-5.10213 3.64057,4e-5 6.40422,1.72732 8.29097,5.18185 1.8867,3.42803 2.83006,8.46373 2.83009,15.1071 -3e-5,6.69656 -0.94339,11.75883 -2.83009,15.18682 -1.86017,3.428 -4.62383,5.14199 -8.29097,5.14199 -3.74689,0 -6.56369,-1.70071 -8.45041,-5.10213 -1.86015,-3.40141 -2.79023,-8.47697 -2.79022,-15.22668"
       style=""
       id="path3031" />
    <path
       d="m 526.56797,329.78358 0,5.62032 c -0.74408,-0.90347 -1.50142,-1.56781 -2.27204,-1.99302 -0.77065,-0.42515 -1.62101,-0.63773 -2.55107,-0.63777 -2.49793,4e-5 -4.31822,1.31543 -5.46087,3.94618 -1.14268,2.63082 -1.71401,6.81616 -1.714,12.55603 -10e-6,4.80984 0.58461,8.43713 1.75386,10.8819 1.16923,2.44477 2.92308,3.66716 5.26157,3.66715 1.00978,1e-5 1.92657,-0.23915 2.75037,-0.71748 0.82376,-0.5049 1.54125,-1.24896 2.15246,-2.23219 l 0,5.70004 c -0.90352,0.6112 -1.82031,1.06295 -2.75036,1.35526 -0.9301,0.29231 -1.92661,0.43846 -2.98954,0.43846 -3.428,0 -6.13851,-1.70071 -8.13152,-5.10213 -1.96645,-3.42799 -2.94968,-8.17137 -2.94967,-14.23017 -1e-5,-6.88254 1.00979,-12.0511 3.02939,-15.5057 2.01959,-3.48111 5.03569,-5.22168 9.04831,-5.22172 0.87692,4e-5 1.72727,0.13291 2.55107,0.39861 0.82376,0.2392 1.58111,0.59794 2.27204,1.07623"
       style=""
       id="path3033" />
    <path
       d="m 547.65411,345.52844 c -0.0266,-4.14545 -0.55807,-7.36086 -1.59442,-9.64622 -1.00981,-2.28529 -2.4315,-3.42796 -4.26506,-3.42799 -1.93989,3e-5 -3.49444,1.12941 -4.66367,3.38813 -1.14268,2.25879 -1.79373,5.48748 -1.95316,9.68608 l 12.47631,0 m 4.58395,3.98604 -17.06026,0 0,1.3154 c -1e-5,4.33151 0.55803,7.69307 1.67413,10.08468 1.11609,2.36506 2.65735,3.54758 4.62381,3.54758 1.62098,0 2.93637,-0.85035 3.94618,-2.55107 1.03636,-1.72727 1.5944,-4.05246 1.67414,-6.97557 l 4.66367,0 c -0.18604,4.22521 -1.20912,7.5602 -3.06925,10.00497 -1.86017,2.44477 -4.29166,3.66715 -7.29446,3.66715 -3.64059,0 -6.37767,-1.66085 -8.21124,-4.98255 -1.80701,-3.34827 -2.71051,-8.3441 -2.71051,-14.98751 0,-6.53709 0.98322,-11.59935 2.94967,-15.18682 1.96644,-3.5874 4.70352,-5.38112 8.21124,-5.38116 3.5077,4e-5 6.15178,1.70075 7.93223,5.10213 1.78041,3.37488 2.67062,8.384 2.67065,15.02738 l 0,1.31539"
       style=""
       id="path3035" />
    <path
       d="m 556.78213,360.19708 c 1.16923,1.35526 2.37833,2.37834 3.6273,3.06925 1.24895,0.69092 2.51119,1.03637 3.78674,1.03637 1.78042,0 3.24196,-0.57133 4.38464,-1.714 1.16923,-1.14266 1.75384,-2.61749 1.75386,-4.4245 -2e-5,-2.2056 -1.99303,-5.00912 -5.97906,-8.41055 l -0.55805,-0.47833 c -3.16226,-2.68391 -5.20843,-4.8098 -6.1385,-6.37766 -0.93008,-1.59439 -1.39512,-3.33496 -1.39512,-5.22172 0,-2.76362 0.9035,-5.03566 2.71051,-6.81613 1.807,-1.80697 4.1189,-2.71047 6.93571,-2.71051 1.1958,4e-5 2.36504,0.17277 3.50772,0.51819 1.16922,0.31892 2.31189,0.82382 3.428,1.51469 l 0,4.98256 c -0.98324,-0.95662 -2.0329,-1.68739 -3.14898,-2.19233 -1.1161,-0.50486 -2.21891,-0.75731 -3.30841,-0.75735 -1.56785,4e-5 -2.88325,0.50494 -3.94618,1.5147 -1.06295,1.00983 -1.59443,2.27208 -1.59442,3.78674 -10e-6,2.12592 1.84686,4.73013 5.5406,7.81264 l 0.31888,0.27902 c 3.48113,2.89655 5.7266,5.19516 6.73641,6.89586 1.00978,1.67415 1.51468,3.5343 1.5147,5.58045 -2e-5,3.10912 -0.98324,5.67347 -2.94967,7.69306 -1.96646,2.0196 -4.46438,3.0294 -7.49376,3.0294 -1.40841,0 -2.79024,-0.25245 -4.14548,-0.75735 -1.32869,-0.5049 -2.5245,-1.2091 -3.58744,-2.1126 l 0,-5.7399"
       style=""
       id="path3037" />
    <path
       d="m 578.30679,360.19708 c 1.16923,1.35526 2.37833,2.37834 3.6273,3.06925 1.24895,0.69092 2.51119,1.03637 3.78673,1.03637 1.78042,0 3.24197,-0.57133 4.38465,-1.714 1.16922,-1.14266 1.75384,-2.61749 1.75386,-4.4245 -2e-5,-2.2056 -1.99304,-5.00912 -5.97906,-8.41055 l -0.55805,-0.47833 c -3.16227,-2.68391 -5.20843,-4.8098 -6.1385,-6.37766 -0.93008,-1.59439 -1.39512,-3.33496 -1.39512,-5.22172 0,-2.76362 0.9035,-5.03566 2.71051,-6.81613 1.807,-1.80697 4.1189,-2.71047 6.93571,-2.71051 1.1958,4e-5 2.36504,0.17277 3.50772,0.51819 1.16922,0.31892 2.31189,0.82382 3.428,1.51469 l 0,4.98256 c -0.98325,-0.95662 -2.0329,-1.68739 -3.14898,-2.19233 -1.1161,-0.50486 -2.21891,-0.75731 -3.30841,-0.75735 -1.56786,4e-5 -2.88325,0.50494 -3.94618,1.5147 -1.06296,1.00983 -1.59443,2.27208 -1.59442,3.78674 -1e-5,2.12592 1.84686,4.73013 5.5406,7.81264 l 0.31888,0.27902 c 3.48113,2.89655 5.7266,5.19516 6.73641,6.89586 1.00978,1.67415 1.51468,3.5343 1.5147,5.58045 -2e-5,3.10912 -0.98325,5.67347 -2.94967,7.69306 -1.96647,2.0196 -4.46438,3.0294 -7.49376,3.0294 -1.40841,0 -2.79024,-0.25245 -4.14549,-0.75735 -1.32868,-0.5049 -2.52449,-1.2091 -3.58743,-2.1126 l 0,-5.7399"
       style=""
       id="path3039" />
    <path
       d="m 605.0531,348.55783 c -10e-6,6.11195 0.43846,10.32386 1.31539,12.63576 0.9035,2.28533 2.44476,3.428 4.62381,3.42799 2.0993,1e-5 3.58742,-1.18252 4.46437,-3.54757 0.90348,-2.39162 1.35523,-6.56367 1.35525,-12.51618 -2e-5,-5.97903 -0.45177,-10.16437 -1.35525,-12.55603 -0.87695,-2.41816 -2.36507,-3.62726 -4.46437,-3.62729 -2.17905,3e-5 -3.72031,1.16927 -4.62381,3.50771 -0.87693,2.33851 -1.3154,6.56371 -1.31539,12.67561 m 11.4798,19.33231 0,-3.58744 c -0.58464,1.38183 -1.48814,2.44477 -2.71051,3.18883 -1.19583,0.74406 -2.57765,1.11609 -4.14548,1.11609 -3.34829,0 -5.77977,-1.63427 -7.29446,-4.90283 -1.48812,-3.29512 -2.23219,-8.72942 -2.23218,-16.30291 -10e-6,-6.6168 0.75734,-11.45319 2.27204,-14.50919 1.54126,-3.05593 3.95946,-4.58391 7.2546,-4.58395 1.48811,4e-5 2.8035,0.3455 3.94618,1.03637 1.14265,0.69096 2.11258,1.72733 2.90981,3.10912 l 0,-3.66716 4.74339,0 0,39.10307 -4.74339,0"
       style=""
       id="path3041" />
    <path
       d="m 630.56379,328.78707 4.82311,0 0,3.58744 c 0.85035,-1.35522 1.91329,-2.36502 3.18883,-3.0294 1.27552,-0.69087 2.7105,-1.03633 4.30493,-1.03637 1.67412,4e-5 3.10909,0.41193 4.30492,1.23568 1.19579,0.82382 2.15244,2.07277 2.86995,3.74688 0.95663,-1.64753 2.12587,-2.8832 3.50772,-3.70702 1.40837,-0.85032 2.9895,-1.2755 4.74339,-1.27554 2.79019,4e-5 4.80979,0.98327 6.05878,2.94967 1.24892,1.93991 1.8734,5.11546 1.87344,9.52664 l 0,27.10509 -4.82311,0 0,-27.82257 c -3e-5,-3.05594 -0.35878,-5.15525 -1.07623,-6.29795 -0.71752,-1.14263 -1.96648,-1.71396 -3.74688,-1.714 -1.88675,4e-5 -3.32173,0.83711 -4.30492,2.51121 -0.98325,1.64759 -1.47486,4.07908 -1.47484,7.29445 l 0,26.02886 -4.82311,0 0,-27.82257 c -2e-5,-3.05594 -0.35876,-5.15525 -1.07623,-6.29795 -0.71751,-1.14263 -1.96646,-1.71396 -3.74688,-1.714 -1.88674,4e-5 -3.32171,0.83711 -4.30492,2.51121 -0.98324,1.64759 -1.47485,4.07908 -1.47484,7.29445 l 0,26.02886 -4.82311,0 0,-39.10307"
       style=""
       id="path3043" />
    <path
       d="m 690.19494,345.52844 c -0.0266,-4.14545 -0.55807,-7.36086 -1.59442,-9.64622 -1.00981,-2.28529 -2.4315,-3.42796 -4.26506,-3.42799 -1.93989,3e-5 -3.49444,1.12941 -4.66367,3.38813 -1.14267,2.25879 -1.79373,5.48748 -1.95316,9.68608 l 12.47631,0 m 4.58395,3.98604 -17.06026,0 0,1.3154 c -10e-6,4.33151 0.55804,7.69307 1.67414,10.08468 1.11608,2.36506 2.65735,3.54758 4.62381,3.54758 1.62097,0 2.93636,-0.85035 3.94618,-2.55107 1.03635,-1.72727 1.59439,-4.05246 1.67413,-6.97557 l 4.66367,0 c -0.18604,4.22521 -1.20912,7.5602 -3.06925,10.00497 -1.86017,2.44477 -4.29165,3.66715 -7.29446,3.66715 -3.64059,0 -6.37767,-1.66085 -8.21124,-4.98255 -1.80701,-3.34827 -2.71051,-8.3441 -2.71051,-14.98751 0,-6.53709 0.98322,-11.59935 2.94967,-15.18682 1.96644,-3.5874 4.70352,-5.38112 8.21125,-5.38116 3.5077,4e-5 6.15177,1.70075 7.93222,5.10213 1.78041,3.37488 2.67062,8.384 2.67065,15.02738 l 0,1.31539"
       style=""
       id="path3045" />
    <path
       d="m 701.3559,328.78707 4.82311,0 0,3.58744 c 0.85035,-1.35522 1.91329,-2.36502 3.18884,-3.0294 1.27552,-0.69087 2.71049,-1.03633 4.30492,-1.03637 2.76364,4e-5 4.76994,0.98327 6.01893,2.94967 1.2755,1.93991 1.91327,5.11546 1.9133,9.52664 l 0,27.10509 -4.82312,0 0,-27.82257 c -2e-5,-3.05594 -0.35876,-5.15525 -1.07623,-6.29795 -0.7175,-1.14263 -1.96646,-1.71396 -3.74688,-1.714 -1.88674,4e-5 -3.32171,0.83711 -4.30492,2.51121 -0.98323,1.64759 -1.47485,4.07908 -1.47484,7.29445 l 0,26.02886 -4.82311,0 0,-39.10307"
       style=""
       id="path3047" />
    <path
       d="m 731.17148,332.77311 -4.06576,0 0,-3.98604 4.06576,0 0,-10.92176 4.82311,0 0,10.92176 6.45739,0 0,3.98604 -6.45739,0 0,35.11703 -4.82311,0 0,-35.11703"
       style=""
       id="path3049" />
    <path
       d="m 755.9248,332.13534 c -2.15248,4e-5 -3.73361,1.27557 -4.74339,3.8266 -0.98324,2.5511 -1.47485,6.65672 -1.47484,12.31687 -1e-5,5.68677 0.4916,9.81896 1.47484,12.39659 1.00978,2.57765 2.59091,3.86647 4.74339,3.86646 2.0993,1e-5 3.65385,-1.31539 4.66366,-3.94618 1.03636,-2.65735 1.55454,-6.72311 1.55456,-12.19729 -2e-5,-5.50071 -0.5182,-9.57975 -1.55456,-12.23714 -1.00981,-2.6839 -2.56436,-4.02587 -4.66366,-4.02591 m -11.16092,16.14347 c 0,-6.7231 0.93007,-11.78536 2.79023,-15.18682 1.88672,-3.40138 4.70352,-5.10209 8.45041,-5.10213 3.64056,4e-5 6.40422,1.72732 8.29096,5.18185 1.88671,3.42803 2.83007,8.46373 2.83009,15.1071 -2e-5,6.69656 -0.94338,11.75883 -2.83009,15.18682 -1.86017,3.428 -4.62382,5.14199 -8.29096,5.14199 -3.74689,0 -6.56369,-1.70071 -8.45041,-5.10213 -1.86016,-3.40141 -2.79023,-8.47697 -2.79023,-15.22668"
       style=""
       id="path3051" />
    <path
       d="m 793.3537,348.55783 c -10e-6,6.11195 0.43845,10.32386 1.31539,12.63576 0.90349,2.28533 2.44476,3.428 4.62381,3.42799 2.0993,1e-5 3.58742,-1.18252 4.46437,-3.54757 0.90348,-2.39162 1.35523,-6.56367 1.35525,-12.51618 -2e-5,-5.97903 -0.45177,-10.16437 -1.35525,-12.55603 -0.87695,-2.41816 -2.36507,-3.62726 -4.46437,-3.62729 -2.17905,3e-5 -3.72032,1.16927 -4.62381,3.50771 -0.87694,2.33851 -1.3154,6.56371 -1.31539,12.67561 m 11.40008,19.33231 0,-3.58744 c -0.55807,1.35526 -1.435,2.4182 -2.63079,3.18883 -1.16926,0.74406 -2.55108,1.11609 -4.14548,1.11609 -3.34829,0 -5.77977,-1.63427 -7.29446,-4.90283 -1.48813,-3.29512 -2.23219,-8.72942 -2.23218,-16.30291 -10e-6,-6.6168 0.75734,-11.45319 2.27204,-14.50919 1.54126,-3.05593 3.95946,-4.58391 7.2546,-4.58395 1.51468,4e-5 2.84336,0.3455 3.98604,1.03637 1.16922,0.66438 2.09929,1.64761 2.79023,2.94968 l 0,-26.1883 4.82311,0 0,61.78365 -4.82311,0"
       style=""
       id="path3053" />
    <path
       d="m 834.01135,345.52844 c -0.0266,-4.14545 -0.55807,-7.36086 -1.59442,-9.64622 -1.00982,-2.28529 -2.4315,-3.42796 -4.26507,-3.42799 -1.93988,3e-5 -3.49444,1.12941 -4.66366,3.38813 -1.14268,2.25879 -1.79373,5.48748 -1.95316,9.68608 l 12.47631,0 m 4.58394,3.98604 -17.06025,0 0,1.3154 c -10e-6,4.33151 0.55803,7.69307 1.67413,10.08468 1.11608,2.36506 2.65735,3.54758 4.62381,3.54758 1.62098,0 2.93637,-0.85035 3.94618,-2.55107 1.03635,-1.72727 1.5944,-4.05246 1.67414,-6.97557 l 4.66367,0 c -0.18604,4.22521 -1.20912,7.5602 -3.06925,10.00497 -1.86017,2.44477 -4.29166,3.66715 -7.29446,3.66715 -3.64059,0 -6.37767,-1.66085 -8.21125,-4.98255 -1.807,-3.34827 -2.71051,-8.3441 -2.7105,-14.98751 -10e-6,-6.53709 0.98322,-11.59935 2.94967,-15.18682 1.96644,-3.5874 4.70352,-5.38112 8.21124,-5.38116 3.5077,4e-5 6.15177,1.70075 7.93223,5.10213 1.7804,3.37488 2.67062,8.384 2.67064,15.02738 l 0,1.31539"
       style=""
       id="path3055" />
    <path
       d="m 867.49409,314.51704 0,48.47027 1.03637,0 c 4.70351,0 7.95877,-1.6077 9.7658,-4.82311 1.83355,-3.2154 2.75034,-9.36718 2.75037,-18.45538 -3e-5,-10.17765 -0.87696,-16.91406 -2.63079,-20.20923 -1.75388,-3.32165 -4.94271,-4.9825 -9.5665,-4.98255 l -1.35525,0 m -5.3413,-4.82311 6.61683,0 c 6.61681,6e-5 11.22733,2.0728 13.83156,6.21822 2.60419,4.11896 3.90629,11.81201 3.90632,23.07918 -3e-5,10.70919 -1.34199,18.20294 -4.0259,22.48128 -2.68396,4.27835 -7.30776,6.41753 -13.87142,6.41753 l -6.45739,0 0,-58.19621"
       style=""
       id="path3057" />
    <path
       d="m 897.46911,348.55783 c 0,6.11195 0.43846,10.32386 1.3154,12.63576 0.90349,2.28533 2.44476,3.428 4.62381,3.42799 2.0993,1e-5 3.58742,-1.18252 4.46436,-3.54757 0.90349,-2.39162 1.35524,-6.56367 1.35526,-12.51618 -2e-5,-5.97903 -0.45177,-10.16437 -1.35526,-12.55603 -0.87694,-2.41816 -2.36506,-3.62726 -4.46436,-3.62729 -2.17905,3e-5 -3.72032,1.16927 -4.62381,3.50771 -0.87694,2.33851 -1.3154,6.56371 -1.3154,12.67561 m 11.4798,19.33231 0,-3.58744 c -0.58463,1.38183 -1.48814,2.44477 -2.7105,3.18883 -1.19583,0.74406 -2.57766,1.11609 -4.14549,1.11609 -3.34828,0 -5.77976,-1.63427 -7.29445,-4.90283 -1.48813,-3.29512 -2.23219,-8.72942 -2.23219,-16.30291 0,-6.6168 0.75735,-11.45319 2.27205,-14.50919 1.54126,-3.05593 3.95946,-4.58391 7.25459,-4.58395 1.48811,4e-5 2.8035,0.3455 3.94618,1.03637 1.14265,0.69096 2.11259,1.72733 2.90981,3.10912 l 0,-3.66716 4.74339,0 0,39.10307 -4.74339,0"
       style=""
       id="path3059" />
    <path
       d="m 926.16864,348.55783 c -10e-6,6.11195 0.43845,10.32386 1.31539,12.63576 0.9035,2.28533 2.44476,3.428 4.62381,3.42799 2.0993,1e-5 3.58742,-1.18252 4.46437,-3.54757 0.90348,-2.39162 1.35523,-6.56367 1.35525,-12.51618 -2e-5,-5.97903 -0.45177,-10.16437 -1.35525,-12.55603 -0.87695,-2.41816 -2.36507,-3.62726 -4.46437,-3.62729 -2.17905,3e-5 -3.72031,1.16927 -4.62381,3.50771 -0.87694,2.33851 -1.3154,6.56371 -1.31539,12.67561 m 11.40008,19.33231 0,-3.58744 c -0.55807,1.35526 -1.435,2.4182 -2.63079,3.18883 -1.16925,0.74406 -2.55108,1.11609 -4.14548,1.11609 -3.34829,0 -5.77977,-1.63427 -7.29446,-4.90283 -1.48813,-3.29512 -2.23219,-8.72942 -2.23218,-16.30291 -10e-6,-6.6168 0.75734,-11.45319 2.27204,-14.50919 1.54126,-3.05593 3.95946,-4.58391 7.2546,-4.58395 1.51468,4e-5 2.84336,0.3455 3.98604,1.03637 1.16922,0.66438 2.0993,1.64761 2.79023,2.94968 l 0,-26.1883 4.82311,0 0,61.78365 -4.82311,0"
       style=""
       id="path3061" />
    <path
       d="m 960.8073,332.13534 c -2.15247,4e-5 -3.7336,1.27557 -4.74339,3.8266 -0.98323,2.5511 -1.47484,6.65672 -1.47483,12.31687 -10e-6,5.68677 0.4916,9.81896 1.47483,12.39659 1.00979,2.57765 2.59092,3.86647 4.74339,3.86646 2.0993,1e-5 3.65386,-1.31539 4.66367,-3.94618 1.03635,-2.65735 1.55454,-6.72311 1.55456,-12.19729 -2e-5,-5.50071 -0.51821,-9.57975 -1.55456,-12.23714 -1.00981,-2.6839 -2.56437,-4.02587 -4.66367,-4.02591 m -11.16091,16.14347 c -10e-6,-6.7231 0.93007,-11.78536 2.79023,-15.18682 1.88672,-3.40138 4.70352,-5.10209 8.4504,-5.10213 3.64057,4e-5 6.40422,1.72732 8.29097,5.18185 1.8867,3.42803 2.83007,8.46373 2.83009,15.1071 -2e-5,6.69656 -0.94339,11.75883 -2.83009,15.18682 -1.86017,3.428 -4.62382,5.14199 -8.29097,5.14199 -3.74688,0 -6.56368,-1.70071 -8.4504,-5.10213 -1.86016,-3.40141 -2.79024,-8.47697 -2.79023,-15.22668"
       style=""
       id="path3063" />
    <path
       d="m 977.22982,360.19708 c 1.16924,1.35526 2.37834,2.37834 3.6273,3.06925 1.24895,0.69092 2.5112,1.03637 3.78674,1.03637 1.78042,0 3.24197,-0.57133 4.38465,-1.714 1.16922,-1.14266 1.75384,-2.61749 1.75385,-4.4245 -1e-5,-2.2056 -1.99303,-5.00912 -5.97906,-8.41055 l -0.55804,-0.47833 c -3.16227,-2.68391 -5.20844,-4.8098 -6.13851,-6.37766 -0.93008,-1.59439 -1.39512,-3.33496 -1.39511,-5.22172 -10e-6,-2.76362 0.9035,-5.03566 2.7105,-6.81613 1.807,-1.80697 4.11891,-2.71047 6.93572,-2.71051 1.1958,4e-5 2.36503,0.17277 3.50771,0.51819 1.16923,0.31892 2.31189,0.82382 3.428,1.51469 l 0,4.98256 c -0.98324,-0.95662 -2.0329,-1.68739 -3.14897,-2.19233 -1.11611,-0.50486 -2.21891,-0.75731 -3.30842,-0.75735 -1.56785,4e-5 -2.88324,0.50494 -3.94618,1.5147 -1.06295,1.00983 -1.59442,2.27208 -1.59442,3.78674 0,2.12592 1.84686,4.73013 5.5406,7.81264 l 0.31889,0.27902 c 3.48112,2.89655 5.72659,5.19516 6.73641,6.89586 1.00977,1.67415 1.51467,3.5343 1.51469,5.58045 -2e-5,3.10912 -0.98324,5.67347 -2.94967,7.69306 -1.96646,2.0196 -4.46438,3.0294 -7.49376,3.0294 -1.40841,0 -2.79023,-0.25245 -4.14548,-0.75735 -1.32869,-0.5049 -2.5245,-1.2091 -3.58744,-2.1126 l 0,-5.7399"
       style=""
       id="path3065" />
  </g>
</svg>
