<?xml version="1.0" encoding="UTF-8" standalone="no"?>
<!-- Created with Inkscape (http://www.inkscape.org/) -->

<svg
   xmlns:dc="http://purl.org/dc/elements/1.1/"
   xmlns:cc="http://creativecommons.org/ns#"
   xmlns:rdf="http://www.w3.org/1999/02/22-rdf-syntax-ns#"
   xmlns:svg="http://www.w3.org/2000/svg"
   xmlns="http://www.w3.org/2000/svg"
   xmlns:sodipodi="http://sodipodi.sourceforge.net/DTD/sodipodi-0.dtd"
   xmlns:inkscape="http://www.inkscape.org/namespaces/inkscape"
   width="400"
   height="200"
   id="svg4380"
   version="1.1"
   inkscape:version="0.48.4 r9939"
   inkscape:export-filename="/home/phls/phls/imagens/logo-curitibalivre.png"
   inkscape:export-xdpi="90"
   inkscape:export-ydpi="90"
   sodipodi:docname="Novo documento 5">
  <defs
     id="defs4382" />
  <sodipodi:namedview
     id="base"
     pagecolor="#ffffff"
     bordercolor="#666666"
     borderopacity="1.0"
     inkscape:pageopacity="0.0"
     inkscape:pageshadow="2"
     inkscape:zoom="0.98994949"
     inkscape:cx="350"
     inkscape:cy="194.57637"
     inkscape:document-units="px"
     inkscape:current-layer="layer1"
     showgrid="false"
     inkscape:window-width="1280"
     inkscape:window-height="724"
     inkscape:window-x="0"
     inkscape:window-y="24"
     inkscape:window-maximized="1" />
  <metadata
     id="metadata4385">
    <rdf:RDF>
      <cc:Work
         rdf:about="">
        <dc:format>image/svg+xml</dc:format>
        <dc:type
           rdf:resource="http://purl.org/dc/dcmitype/StillImage" />
        <dc:title></dc:title>
      </cc:Work>
    </rdf:RDF>
  </metadata>
  <g
     inkscape:label="Camada 1"
     inkscape:groupmode="layer"
     id="layer1"
     transform="translate(0,-852.36218)">
    <rect
       style="fill:#ffe680;fill-opacity:1;stroke:#ffff00;stroke-width:0.09391943;stroke-linecap:square;stroke-miterlimit:4;stroke-opacity:1;stroke-dasharray:none;stroke-dashoffset:0"
       id="rect7178"
       width="403.14575"
       height="206.90013"
       x="-0.38676015"
       y="848.43561"
       ry="1.0846038" />
    <g
       inkscape:export-ydpi="90"
       inkscape:export-xdpi="90"
       inkscape:export-filename="/home/joelson/ctba.png"
       transform="matrix(0.93005585,0,0,0.93005585,-159.01744,619.10257)"
       id="g3400">
      <path
         d="m 236.6875,276.96875 c -9.64413,3e-5 -17.7795,2.70607 -23.9375,8.1875 -6.158,5.48143 -10.23501,13.56212 -12.4375,24 a 2.50025,2.50025 0 0 0 -0.0625,0.53125 l 0,0.21875 0,0.0625 c -1.98013,10.22687 -1.30633,18.43627 2.8125,24.21875 4.18876,5.88067 11.60689,8.625 21.3125,8.625 l 22.5625,0 a 2.50025,2.50025 0 0 0 2.4375,-2 l 2.59375,-12.9375 a 2.50025,2.50025 0 0 0 -2.4375,-3 l -25.15625,0 c -3.50438,0 -5.09675,-0.89275 -6.125,-2.8125 -1.02825,-1.91975 -1.36432,-5.52016 -0.3125,-10.75 a 2.50025,2.50025 0 0 0 0.0313,-0.1875 l 0.0625,-0.5625 c 0.002,-0.0113 -0.002,-0.02 0,-0.0313 1.1758,-5.80086 3.0139,-9.8286 5.125,-12.15625 0.008,-0.009 0.0231,-0.0223 0.0313,-0.0313 2.2049,-2.34296 4.76814,-3.43746 8.3125,-3.4375 l 25.15625,0 a 2.50025,2.50025 0 0 0 2.4375,-2 l 2.59375,-12.9375 a 2.50025,2.50025 0 0 0 -2.4375,-3 l -22.5625,0 z m 30.1875,0 a 2.50025,2.50025 0 0 0 -2.1875,2 L 257.09375,316.5 a 2.50025,2.50025 0 0 0 0,0.0313 c -0.72853,3.70884 -0.84397,7.20379 -0.21875,10.46875 a 2.50025,2.50025 0 0 0 0.0313,0.0625 c 0.69499,3.197 2.06377,6.05062 4.0625,8.40625 A 2.50025,2.50025 0 0 0 261,335.5 c 2.08565,2.37335 4.8302,4.1782 8.09375,5.40625 0.009,0.003 0.0222,-0.003 0.0313,0 3.38041,1.30594 7.27616,1.90625 11.6875,1.90625 4.51604,0 8.62637,-0.57881 12.3125,-1.78125 0.009,-0.003 0.0218,0.003 0.0313,0 3.69718,-1.19175 6.96992,-2.91866 9.75,-5.15625 2.81489,-2.27876 5.12311,-5.00529 6.875,-8.09375 0.007,-0.0119 0.0244,-0.0193 0.0313,-0.0313 1.78898,-3.12318 3.08709,-6.60148 3.875,-10.34375 l 7.5,-37.4375 a 2.50025,2.50025 0 0 0 -2.4375,-3 l -12.96875,0 a 2.50025,2.50025 0 0 0 -2.4375,2 L 295.875,316.3125 a 2.50025,2.50025 0 0 0 -0.0313,0.0313 c -0.51169,2.60944 -1.67311,4.56384 -3.6875,6.1875 -0.0122,0.01 -0.019,0.0215 -0.0313,0.0313 -1.93052,1.48291 -4.62089,2.31251 -8.34375,2.3125 l -0.28125,0 c -3.66232,10e-6 -5.88915,-0.87849 -7.1875,-2.21875 -1.3613,-1.40519 -1.78071,-2.84654 -1.28125,-5.34375 L 282.5,279.96875 a 2.50025,2.50025 0 0 0 -2.4375,-3 l -12.9375,0 a 2.50025,2.50025 0 0 0 -0.25,0 z m 59.96875,0 a 2.50025,2.50025 0 0 0 -2.1875,2 l -12.1875,60.84375 a 2.50025,2.50025 0 0 0 2.4375,3 l 12.9375,0 a 2.50025,2.50025 0 0 0 2.4375,-2 L 333.59375,324 363.5,344.6875 a 2.50025,2.50025 0 0 0 3.875,-1.5625 l 3.15625,-15.53125 A 2.50025,2.50025 0 0 0 369.375,324.9375 l -12.125,-7.15625 c 1.4609,-0.31956 2.87528,-0.66628 4.0625,-1.1875 2.75735,-1.21055 5.1721,-2.77723 7.1875,-4.71875 l 0,-0.0313 c 2.02317,-1.89175 3.65878,-3.98615 4.84375,-6.34375 0.007,-0.0124 0.0247,-0.0188 0.0313,-0.0313 1.20164,-2.27774 2.0204,-4.60227 2.5,-7 a 2.50025,2.50025 0 0 0 0.0313,-0.0313 c 0.53794,-2.75727 0.63271,-5.40649 0.28125,-7.9375 -0.3577,-2.64636 -1.31012,-5.06843 -2.875,-7.09375 -0.009,-0.0119 -0.0224,-0.0194 -0.0313,-0.0313 -1.53589,-2.05801 -3.67076,-3.60331 -6.25,-4.71875 -2.70761,-1.17076 -5.90786,-1.68744 -9.59375,-1.6875 l -30.34375,0 a 2.50025,2.50025 0 0 0 -0.25,0 z m 57.46875,0 a 2.50025,2.50025 0 0 0 -2.1875,2 l -12.21875,60.84375 a 2.50025,2.50025 0 0 0 2.4375,3 l 12.9375,0 a 2.50025,2.50025 0 0 0 2.4375,-2 l 12.21875,-60.84375 a 2.50025,2.50025 0 0 0 -2.4375,-3 l -12.9375,0 a 2.50025,2.50025 0 0 0 -0.25,0 z m 19.46875,0 a 2.50025,2.50025 0 0 0 -2.1875,2 L 399,291.90625 a 2.50025,2.50025 0 0 0 2.4375,3 l 11.3125,0 -9.03125,44.90625 a 2.50025,2.50025 0 0 0 2.4375,3 l 12.9375,0 a 2.50025,2.50025 0 0 0 2.4375,-2 l 9.21875,-45.90625 11.46875,0 a 2.50025,2.50025 0 0 0 2.4375,-2 l 2.59375,-12.9375 a 2.50025,2.50025 0 0 0 -2.4375,-3 l -40.78125,0 a 2.50025,2.50025 0 0 0 -0.25,0 z m 47.1875,0 a 2.50025,2.50025 0 0 0 -2.1875,2 L 436.5625,339.8125 a 2.50025,2.50025 0 0 0 2.4375,3 l 12.96875,0 a 2.50025,2.50025 0 0 0 2.4375,-2 l 12.1875,-60.84375 a 2.50025,2.50025 0 0 0 -2.4375,-3 l -12.9375,0 a 2.50025,2.50025 0 0 0 -0.25,0 z m 21.3125,0 a 2.50025,2.50025 0 0 0 -2.1875,2 L 457.875,339.8125 a 2.50025,2.50025 0 0 0 2.4375,3 l 30.34375,0 c 3.80484,0 7.25599,-0.54253 10.3125,-1.71875 0.009,-0.003 0.0222,0.003 0.0313,0 3.01294,-1.14158 5.63284,-2.71154 7.75,-4.6875 2.10875,-1.97275 3.82339,-4.22139 5.125,-6.6875 1.27045,-2.40727 2.14266,-4.9212 2.625,-7.5 0.004,-0.0222 0.0272,-0.0403 0.0313,-0.0625 l -0.0313,0 c 0.48211,-2.45472 0.45683,-4.95901 -0.0937,-7.40625 -0.005,-0.0204 0.005,-0.0421 0,-0.0625 l -0.0313,0 c -0.36599,-1.76011 -1.32131,-3.26887 -2.5625,-4.65625 1.87625,-1.33002 3.54939,-2.80113 4.625,-4.59375 1.40196,-2.33666 2.37139,-4.63556 2.875,-6.9375 a 2.50025,2.50025 0 0 0 0.0313,-0.0625 c 1.20414,-6.22171 0.11512,-11.73278 -3.5,-15.59375 -0.01,-0.011 -0.0212,-0.0202 -0.0313,-0.0313 -3.49655,-3.8388 -8.64297,-5.71109 -14.875,-5.84375 a 2.50025,2.50025 0 0 0 -0.0625,0 l -30.34375,0 a 2.50025,2.50025 0 0 0 -0.25,0 z m 86.1875,0 c -3.28622,7e-5 -6.43547,0.80002 -9.3125,2.34375 a 2.50025,2.50025 0 0 0 -0.0313,0 c -2.90851,1.59973 -5.3041,4.08838 -7.15625,7.3125 a 2.50025,2.50025 0 0 0 -0.0313,0.0313 l -29.125,52.4375 A 2.50025,2.50025 0 0 0 515,342.8125 l 13.78125,0 A 2.50025,2.50025 0 0 0 531,341.5 l 3.75,-7 25.59375,0 1.03125,6.21875 a 2.50025,2.50025 0 0 0 2.46875,2.09375 l 13.6875,0 A 2.50025,2.50025 0 0 0 580,339.9375 L 571.78125,287.5 c -0.504,-3.38354 -2.04714,-6.24603 -4.5625,-8.03125 -2.41177,-1.71146 -5.41026,-2.49993 -8.75,-2.5 z M 339.5,294.90625 l 16.9375,0 c 0.77637,3e-5 0.88283,0.0734 1.28125,0.625 a 2.50025,2.50025 0 0 0 0.0313,0.0625 c 0.3746,0.48991 0.49473,0.81787 0.3125,1.65625 a 2.50025,2.50025 0 0 0 0,0.0313 c -0.20362,1.01796 -0.64323,1.7405 -1.5,2.46875 -0.8552,0.72691 -1.53666,0.96877 -2.4375,0.96875 l -15.8125,0 1.1875,-5.8125 z m 145.4375,0 16.90625,0 c 0.77637,3e-5 0.93214,0.0984 1.3125,0.625 a 2.50025,2.50025 0 0 0 0.0313,0.0625 c 0.3746,0.48991 0.49473,0.81787 0.3125,1.65625 a 2.50025,2.50025 0 0 0 0,0.0313 c -0.21016,1.05066 -0.63332,1.78047 -1.4375,2.5 -0.73032,0.65344 -1.46253,0.93752 -2.53125,0.9375 l -15.78125,0 1.1875,-5.8125 z m 69.90625,3.21875 2.75,18.40625 -13,0 10.25,-18.40625 z m -74.71875,20.5625 16.9375,0 c 0.77634,10e-6 0.88282,0.0734 1.28125,0.625 a 2.50025,2.50025 0 0 0 0.0313,0.0625 c 0.40869,0.53449 0.52371,0.86353 0.375,1.71875 -0.24746,1.08279 -0.71907,1.91583 -1.40625,2.65625 -0.0101,0.0109 -0.021,0.0204 -0.0313,0.0313 a 2.50025,2.50025 0 0 0 -0.125,0.0937 c -0.87386,0.74277 -1.57182,1.00001 -2.4375,1 l -15.84375,0 1.21875,-6.1875 z"
         id="path3402"
         style="font-size:46.24926376px;font-style:normal;font-weight:normal;line-height:125%;letter-spacing:0px;word-spacing:0px;fill:#ffffff;fill-opacity:1;stroke:none;font-family:Sans"
         inkscape:original="M 236.6875 279.46875 C 218.3111 279.46881 207.00492 289.52287 202.75 309.6875 L 202.75 309.96875 C 198.68006 330.1951 205.87528 340.3125 224.375 340.3125 L 246.9375 340.3125 L 249.53125 327.375 L 224.375 327.375 C 216.23511 327.37501 213.28002 321.85067 215.5 310.8125 L 215.59375 310.0625 C 216.82704 303.95763 218.75377 299.49291 221.34375 296.65625 C 223.99534 293.81967 227.36837 292.4063 231.5 292.40625 L 256.65625 292.40625 L 259.25 279.46875 L 236.6875 279.46875 z M 267.125 279.46875 L 259.53125 317 C 258.85292 320.4533 258.78875 323.63298 259.34375 326.53125 C 259.9604 329.36788 261.14835 331.80879 262.875 333.84375 C 264.66329 335.87872 267.04003 337.45252 270 338.5625 C 273.0216 339.73415 276.61921 340.3125 280.8125 340.3125 C 285.12906 340.3125 288.98335 339.76623 292.375 338.65625 C 295.82823 337.54627 298.81541 335.97247 301.34375 333.9375 C 303.93366 331.84087 306.02164 329.36788 307.625 326.53125 C 309.28992 323.63298 310.50995 320.42121 311.25 316.90625 L 318.75 279.46875 L 305.78125 279.46875 L 298.3125 316.8125 C 297.6958 319.95747 296.15408 322.52671 293.6875 324.5 C 291.22083 326.41165 287.91281 327.37501 283.78125 327.375 L 283.5 327.375 C 279.43004 327.37501 276.44286 326.37956 274.53125 324.40625 C 272.61959 322.43296 271.97707 319.8958 272.59375 316.8125 L 280.0625 279.46875 L 267.125 279.46875 z M 327.09375 279.46875 L 314.90625 340.3125 L 327.84375 340.3125 L 331.90625 319.78125 L 364.9375 342.625 L 368.09375 327.09375 L 349.59375 316.1875 C 354.21863 316.06419 357.78416 315.4225 360.3125 314.3125 C 362.84074 313.20254 364.99289 311.78917 366.78125 310.0625 C 368.63116 308.33589 370.07662 306.44041 371.125 304.34375 C 372.23492 302.24715 373.00578 300.12709 373.4375 297.96875 C 373.93076 295.4405 374.02702 293.06376 373.71875 290.84375 C 373.41036 288.56217 372.60742 286.57127 371.3125 284.90625 C 370.07913 283.24133 368.31282 281.92421 366.03125 280.9375 C 363.74957 279.95091 360.89073 279.46881 357.4375 279.46875 L 327.09375 279.46875 z M 384.5625 279.46875 L 372.34375 340.3125 L 385.28125 340.3125 L 397.5 279.46875 L 384.5625 279.46875 z M 404.03125 279.46875 L 401.4375 292.40625 L 415.78125 292.40625 L 406.15625 340.3125 L 419.09375 340.3125 L 428.71875 292.40625 L 442.21875 292.40625 L 444.8125 279.46875 L 404.03125 279.46875 z M 451.21875 279.46875 L 439 340.3125 L 451.96875 340.3125 L 464.15625 279.46875 L 451.21875 279.46875 z M 472.53125 279.46875 L 460.3125 340.3125 L 490.65625 340.3125 C 494.23282 340.3125 497.38042 339.79831 500.09375 338.75 C 502.86866 337.70168 505.18123 336.32039 507.03125 334.59375 C 508.94283 332.80545 510.48455 330.78247 511.65625 328.5625 C 512.82784 326.34255 513.63078 324.06206 514.0625 321.71875 C 514.4941 319.56047 514.46202 317.40832 513.96875 315.25 C 513.53703 313.09173 512.15574 311.22917 509.8125 309.6875 C 512.83406 308.14589 514.98621 306.31458 516.28125 304.15625 C 517.57617 301.99799 518.44328 299.94209 518.875 297.96875 C 519.98492 292.23389 519.02156 287.73792 516 284.53125 C 513.03999 281.26303 508.67152 279.59214 502.875 279.46875 L 472.53125 279.46875 z M 558.46875 279.46875 C 555.57042 279.46881 552.872 280.14341 550.34375 281.5 C 547.87709 282.8567 545.78994 284.97677 544.125 287.875 L 515 340.3125 L 528.78125 340.3125 L 533.21875 332 L 562.46875 332 L 563.84375 340.3125 L 577.53125 340.3125 L 569.3125 287.875 C 568.88079 284.97677 567.69283 282.8567 565.78125 281.5 C 563.86956 280.14341 561.42866 279.46881 558.46875 279.46875 z M 337.46875 292.40625 L 356.4375 292.40625 C 357.85576 292.4063 358.9483 292.95256 359.75 294.0625 C 360.5516 295.11086 360.80828 296.36298 360.5 297.78125 C 360.19162 299.32293 359.42077 300.60797 358.1875 301.65625 C 356.95414 302.7046 355.60493 303.21878 354.125 303.21875 L 335.25 303.21875 L 337.46875 292.40625 z M 482.90625 292.40625 L 501.84375 292.40625 C 503.26201 292.4063 504.3858 292.95256 505.1875 294.0625 C 505.9891 295.11086 506.24578 296.36298 505.9375 297.78125 C 505.62912 299.32293 504.89035 300.60797 503.71875 301.65625 C 502.54706 302.7046 501.13451 303.21878 499.53125 303.21875 L 480.6875 303.21875 L 482.90625 292.40625 z M 555.625 292.5 L 555.96875 292.5 C 556.09204 292.50005 556.34871 292.95006 556.71875 293.875 L 560.5 319.03125 L 540.34375 319.03125 L 554.59375 293.40625 C 554.9637 292.78964 555.31663 292.50005 555.625 292.5 z M 478.09375 316.1875 L 497.0625 316.1875 C 498.48077 316.18752 499.5733 316.73379 500.375 317.84375 C 501.17661 318.89209 501.46537 320.11296 501.21875 321.53125 C 500.84871 323.2579 500.04577 324.70337 498.8125 325.875 L 498.8125 325.78125 C 497.57915 326.82958 496.22994 327.37501 494.75 327.375 L 475.875 327.375 L 478.09375 316.1875 z "
         inkscape:radius="2.5"
         sodipodi:type="inkscape:offset"
         transform="translate(0,-6)" />
      <path
         transform="scale(1.0220064,0.97846746)"
         d="m 208.46875,357.125 a 2.8019028,2.8019028 0 0 0 -2.75,2.25 l -9.84375,48.6875 a 2.8019028,2.8019028 0 0 0 0,0.0313 c -1.18614,6.02192 -1.44662,11.53344 -0.6875,16.5625 0.75914,5.02937 2.56132,9.49094 5.40625,13.21875 a 2.8019028,2.8019028 0 0 0 0,0.0313 c 2.8667,3.65756 6.80215,6.47087 11.5625,8.375 4.88633,1.91622 10.66902,2.84375 17.3125,2.84375 l 26.65625,0 a 2.8019028,2.8019028 0 0 0 2.75,-2.28125 l 3.65625,-18.375 a 2.8019028,2.8019028 0 0 0 -2.75,-3.34375 l -27.03125,0 c -5.70908,2e-5 -9.23298,-1.45631 -11.375,-4 -2.04629,-2.61303 -2.74232,-6.30581 -1.625,-11.8125 L 229.59375,360.5 a 2.8019028,2.8019028 0 0 0 -2.75,-3.375 l -18.375,0 z m 75.375,0 a 2.8019028,2.8019028 0 0 0 -2.75,2.25 L 263.75,445.75 a 2.8019028,2.8019028 0 0 0 2.75,3.375 l 18.375,0 a 2.8019028,2.8019028 0 0 0 2.75,-2.25 L 304.96875,360.5 a 2.8019028,2.8019028 0 0 0 -2.75,-3.375 l -18.375,0 z m 26.3125,0 a 2.8019028,2.8019028 0 0 0 -2.78125,3.25 l 11.53125,74.5625 c 0.69939,4.49632 2.79761,8.24148 6.15625,10.625 3.3346,2.39677 7.47188,3.5625 12.125,3.5625 a 2.8019028,2.8019028 0 0 0 0.0625,0 c 4.66997,-0.0953 8.99578,-1.2004 12.8125,-3.25 0.008,-0.004 0.0234,0.004 0.0313,0 4.01188,-2.11283 7.24144,-5.53687 9.71875,-10 l 0.0313,0 c 0.004,-0.008 -0.004,-0.0235 0,-0.0313 L 401.3125,361.3125 a 2.8019028,2.8019028 0 0 0 -2.4375,-4.1875 l -19.4375,0 A 2.8019028,2.8019028 0 0 0 377,358.59375 l -35.1875,63.59375 -9.46875,-62.65625 A 2.8019028,2.8019028 0 0 0 329.5625,357.125 l -19.40625,0 z m 96.46875,0 a 2.8019028,2.8019028 0 0 0 -2.75,2.25 l -17.3125,86.375 a 2.8019028,2.8019028 0 0 0 2.75,3.375 l 18.375,0 a 2.8019028,2.8019028 0 0 0 2.75,-2.28125 l 4.9375,-24.9375 43.34375,30 a 2.8019028,2.8019028 0 0 0 4.34375,-1.75 l 4.46875,-22.0625 a 2.8019028,2.8019028 0 0 0 -1.3125,-2.96875 L 447.4375,414.03125 c 2.80964,-0.46745 5.31015,-1.12854 7.4375,-2.0625 3.82963,-1.6813 7.14917,-3.88249 9.9375,-6.5625 l 0.0313,0.0313 c 0.0167,-0.0156 0.0146,-0.0469 0.0313,-0.0625 2.80382,-2.627 5.0564,-5.5697 6.6875,-8.8125 0.006,-0.0128 0.0248,-0.0184 0.0313,-0.0313 0.005,-0.009 -0.005,-0.0226 0,-0.0313 1.67375,-3.17516 2.86685,-6.42842 3.53125,-9.75 a 2.8019028,2.8019028 0 0 0 0,-0.0313 c 0.749,-3.83906 0.92371,-7.49855 0.4375,-11 -0.49136,-3.63519 -1.80764,-6.92738 -3.9375,-9.6875 -0.0131,-0.0176 -0.0181,-0.0449 -0.0313,-0.0625 l -0.0313,0 c -2.08418,-2.78367 -4.99495,-4.95715 -8.5625,-6.5 -3.70934,-1.60391 -8.14808,-2.34367 -13.3125,-2.34375 l -43.0625,0 z m 108.15625,0 c -7.27195,8e-5 -13.18039,1.04339 -17.78125,3.34375 -4.40067,2.2004 -8.23102,5.35104 -11.4375,9.40625 -3.21585,4.06715 -5.37849,8.54868 -6.34375,13.375 -0.92283,4.61412 -1.10385,8.66515 -0.5,12.1875 a 2.8019028,2.8019028 0 0 0 0,0.0313 c 0.4792,2.71558 1.94086,5.1002 4.0625,7.1875 -2.64933,1.91441 -4.97024,4.00989 -6.5625,6.53125 -0.008,0.0122 -0.0236,0.019 -0.0313,0.0313 -2.09282,3.24377 -3.50685,6.71474 -4.1875,10.3125 -0.66269,3.40808 -0.81388,6.79602 -0.53125,10.1875 a 2.8019028,2.8019028 0 0 0 0,0.0937 c 0.39586,3.56278 1.57859,6.89055 3.59375,9.8125 a 2.8019028,2.8019028 0 0 0 0.0313,0.0313 c 2.06189,2.88666 5.00226,5.13433 8.5625,6.78125 l 0,0.0313 c 0.017,0.008 0.0455,-0.008 0.0625,0 3.74845,1.81087 8.3226,2.65625 13.75,2.65625 l 43.0625,0 a 2.8019028,2.8019028 0 0 0 2.75,-2.28125 l 3.65625,-18.375 a 2.8019028,2.8019028 0 0 0 -2.75,-3.34375 l -45.15625,0 c -1.37562,10e-6 -1.94336,-0.27998 -2.5625,-1.0625 -0.68916,-0.95419 -0.91294,-1.84161 -0.59375,-3.4375 a 2.8019028,2.8019028 0 0 0 0,-0.0313 c 0.32841,-1.70781 1.0488,-2.9618 2.34375,-4.0625 a 2.8019028,2.8019028 0 0 0 0.0625,-0.0313 c 1.35364,-1.21827 2.51106,-1.65623 3.78125,-1.65625 l 45.28125,0 a 2.8019028,2.8019028 0 0 0 2.75,-2.25 l 3.6875,-18.375 a 2.8019028,2.8019028 0 0 0 -2.75,-3.375 l -45.15625,0 c -1.67474,4e-5 -2.22879,-0.33709 -2.71875,-1.03125 -0.58218,-0.8247 -0.75923,-1.64327 -0.4375,-3.1875 0.31207,-1.49801 0.99861,-2.66911 2.34375,-3.8125 a 2.8019028,2.8019028 0 0 0 0.0625,-0.0313 c 1.36595,-1.22933 2.47979,-1.65621 3.75,-1.65625 l 45.28125,0 a 2.8019028,2.8019028 0 0 0 2.75,-2.25 l 3.6875,-18.375 a 2.8019028,2.8019028 0 0 0 -2.75,-3.375 l -43.0625,0 z m -91.15625,24 24.625,0 c 1.27006,4e-5 1.75206,0.23853 2.4375,1.1875 a 2.8019028,2.8019028 0 0 0 0.0625,0.0625 c 0.65291,0.85389 0.80349,1.57253 0.5,2.96875 a 2.8019028,2.8019028 0 0 0 0,0.0313 c -0.32025,1.60101 -1.01647,2.80931 -2.34375,3.9375 -1.3329,1.13296 -2.48794,1.53128 -3.9375,1.53125 l -23.34375,0 2,-9.71875 z"
         id="path3404"
         style="font-size:65.62609863px;font-style:normal;font-weight:normal;line-height:125%;letter-spacing:0px;word-spacing:0px;fill:#ffffff;fill-opacity:1;stroke:#ffffff;stroke-opacity:1;font-family:Sans"
         inkscape:original="M 208.46875 359.9375 L 198.625 408.625 C 197.48747 414.40013 197.26873 419.61245 197.96875 424.25 C 198.66875 428.88759 200.27494 432.86245 202.8125 436.1875 C 205.35002 439.42506 208.8124 441.93747 213.1875 443.6875 C 217.65004 445.43753 223.08111 446.3125 229.46875 446.3125 L 256.125 446.3125 L 259.78125 427.9375 L 232.75 427.9375 C 226.53736 427.93752 222.01876 426.26257 219.21875 422.9375 C 216.50617 419.52497 215.77495 414.78763 217 408.75 L 226.84375 359.9375 L 208.46875 359.9375 z M 283.84375 359.9375 L 266.5 446.3125 L 284.875 446.3125 L 302.21875 359.9375 L 283.84375 359.9375 z M 310.15625 359.9375 L 321.6875 434.5 C 322.29998 438.43757 323.97492 441.35622 326.6875 443.28125 C 329.48751 445.29378 332.98739 446.3125 337.1875 446.3125 C 341.47502 446.225 345.33739 445.24378 348.75 443.40625 C 352.25 441.56872 355.13115 438.61257 357.40625 434.5 L 398.875 359.9375 L 379.4375 359.9375 L 342.84375 426.09375 C 342.14369 427.23128 341.56246 427.78127 341.125 427.78125 L 340.59375 427.78125 C 340.06869 427.78127 339.73745 427.23128 339.5625 426.09375 L 329.5625 359.9375 L 310.15625 359.9375 z M 406.625 359.9375 L 389.3125 446.3125 L 407.6875 446.3125 L 413.46875 417.15625 L 460.3125 449.59375 L 464.78125 427.53125 L 438.53125 412.03125 C 445.0938 411.85628 450.16237 410.98131 453.75 409.40625 C 457.33749 407.83126 460.39988 405.82508 462.9375 403.375 C 465.56246 400.925 467.60614 398.22509 469.09375 395.25 C 470.66869 392.275 471.7624 389.25011 472.375 386.1875 C 473.07492 382.6 473.21867 379.24387 472.78125 376.09375 C 472.34365 372.85627 471.21244 370.05011 469.375 367.6875 C 467.62489 365.32504 465.11247 363.43135 461.875 362.03125 C 458.63737 360.63131 454.58751 359.93758 449.6875 359.9375 L 406.625 359.9375 z M 514.78125 359.9375 C 507.78109 359.93758 502.27503 360.9563 498.25 362.96875 C 494.2249 364.98136 490.72502 367.86251 487.75 371.625 C 484.77493 375.38763 482.84375 379.43749 481.96875 383.8125 C 481.09372 388.18763 480.94373 391.90625 481.46875 394.96875 C 481.99374 397.94384 483.96242 400.56875 487.375 402.84375 C 483.43742 405.03132 480.48752 407.65623 478.5625 410.71875 C 476.63746 413.69383 475.3625 416.82497 474.75 420.0625 C 474.13748 423.21257 473.98749 426.34996 474.25 429.5 C 474.6 432.65006 475.62496 435.49372 477.375 438.03125 C 479.12502 440.48129 481.63743 442.44998 484.875 443.9375 C 488.11253 445.51252 492.30614 446.3125 497.46875 446.3125 L 540.53125 446.3125 L 544.1875 427.9375 L 499.03125 427.9375 C 496.93118 427.93752 495.32499 427.17504 494.1875 425.6875 C 493.04995 424.11249 492.68747 422.25006 493.125 420.0625 C 493.56248 417.78749 494.65619 415.8938 496.40625 414.40625 C 498.15625 412.83125 500.04993 412.03128 502.0625 412.03125 L 547.34375 412.03125 L 551.03125 393.65625 L 505.875 393.65625 C 503.59992 393.6563 501.92498 392.92507 500.875 391.4375 C 499.82495 389.95003 499.53121 388.16259 499.96875 386.0625 C 500.40622 383.96252 501.49993 382.17509 503.25 380.6875 C 504.99999 379.11254 506.86243 378.31256 508.875 378.3125 L 554.15625 378.3125 L 557.84375 359.9375 L 514.78125 359.9375 z M 421.34375 378.3125 L 448.25 378.3125 C 450.26247 378.31256 451.83116 379.11254 452.96875 380.6875 C 454.1062 382.17509 454.43744 383.92503 454 385.9375 C 453.56242 388.12509 452.46871 389.95003 450.71875 391.4375 C 448.96866 392.92507 447.06872 393.6563 444.96875 393.65625 L 418.1875 393.65625 L 421.34375 378.3125 z "
         inkscape:radius="2.8016226"
         sodipodi:type="inkscape:offset" />
      <g
         style="font-size:46.24926376px;font-style:normal;font-weight:normal;line-height:125%;letter-spacing:0px;word-spacing:0px;fill:#000000;fill-opacity:1;stroke:#ffffff;stroke-opacity:1;font-family:Sans"
         id="text3406">
        <path
           inkscape:connector-curvature="0"
           d="m 246.95197,334.31747 -22.56964,0 c -18.49972,0 -25.71459,-10.11317 -21.64465,-30.33952 l 0,-0.27749 c 4.25492,-20.16464 15.57056,-30.24696 33.94696,-30.24702 l 22.56964,0 -2.58996,12.94979 -25.1596,0 c -4.13164,5e-5 -7.52324,1.41836 -10.17484,4.25493 -2.58998,2.83666 -4.50162,7.30742 -5.73491,13.41229 l -0.0925,0.73999 c -2.21998,11.03817 0.73997,16.55724 8.87986,16.55723 l 25.1596,0 -2.58996,12.9498"
           style="font-size:92.49852753px;font-style:italic;font-variant:normal;font-weight:bold;font-stretch:normal;stroke:#ffffff;font-family:Nasalization;-inkscape-font-specification:Nasalization Bold Italic"
           id="path3627" />
        <path
           inkscape:connector-curvature="0"
           d="m 311.24712,310.91534 c -0.74005,3.51496 -1.94253,6.72157 -3.60744,9.61985 -1.60336,2.83663 -3.7,5.30325 -6.2899,7.39988 -2.52834,2.03497 -5.51913,3.60744 -8.97236,4.71742 -3.39165,1.10999 -7.24575,1.66498 -11.56232,1.66498 -4.19329,0 -7.80073,-0.58583 -10.82232,-1.75747 -2.95997,-1.10999 -5.3341,-2.68246 -7.12239,-4.71743 -1.72665,-2.03496 -2.8983,-4.47075 -3.51494,-7.30738 -0.555,-2.89828 -0.49334,-6.07405 0.18499,-9.52735 l 7.58488,-37.5544 12.9498,0 -7.49238,37.3694 c -0.61668,3.0833 0.0308,5.61159 1.94247,7.58488 1.91161,1.97331 4.90239,2.95996 8.97235,2.95995 l 0.2775,0 c 4.13156,1e-5 7.43067,-0.9558 9.89734,-2.86745 2.46658,-1.97329 4.00822,-4.53241 4.62493,-7.67738 l 7.49238,-37.3694 12.94979,0 -7.49238,37.4619"
           style="font-size:92.49852753px;font-style:italic;font-variant:normal;font-weight:bold;font-stretch:normal;stroke:#ffffff;font-family:Nasalization;-inkscape-font-specification:Nasalization Bold Italic"
           id="path3629" />
        <path
           inkscape:connector-curvature="0"
           d="m 337.46467,286.40323 -2.21996,10.82233 18.8697,0 c 1.47993,3e-5 2.83657,-0.52412 4.06993,-1.57248 1.23327,-1.04828 2.00409,-2.34325 2.31247,-3.88493 0.30828,-1.41827 0.0616,-2.65159 -0.73999,-3.69995 -0.8017,-1.10993 -1.91168,-1.66492 -3.32995,-1.66497 l -18.9622,0 m 19.97969,-12.94979 c 3.45322,6e-5 6.32068,0.49338 8.60236,1.47997 2.28157,0.98671 4.03904,2.31252 5.27241,3.97744 1.29492,1.66503 2.09658,3.63832 2.40497,5.91991 0.30826,2.22001 0.21576,4.59413 -0.2775,7.12238 -0.43172,2.15834 -1.20254,4.2858 -2.31246,6.3824 -1.04838,2.09667 -2.49752,4.0083 -4.34743,5.73491 -1.78836,1.72666 -3.94666,3.14497 -6.4749,4.25493 -2.52834,1.11001 -6.10495,1.72666 -10.72983,1.84997 l 18.49971,10.91483 -3.14495,15.53975 -33.02198,-22.84714 -4.06993,20.53468 -12.9498,0 12.20981,-60.86403 30.33952,0"
           style="font-size:92.49852753px;font-style:italic;font-variant:normal;font-weight:bold;font-stretch:normal;stroke:#ffffff;font-family:Nasalization;-inkscape-font-specification:Nasalization Bold Italic"
           id="path3631" />
        <path
           inkscape:connector-curvature="0"
           d="m 372.3453,334.31747 12.2098,-60.86403 12.9498,0 -12.20981,60.86403 -12.94979,0"
           style="font-size:92.49852753px;font-style:italic;font-variant:normal;font-weight:bold;font-stretch:normal;stroke:#ffffff;font-family:Nasalization;-inkscape-font-specification:Nasalization Bold Italic"
           id="path3633" />
        <path
           inkscape:connector-curvature="0"
           d="m 428.72025,286.40323 -9.61985,47.91424 -12.94979,0 9.61984,-47.91424 -14.33727,0 2.58996,-12.94979 40.79185,0 -2.58996,12.94979 -13.50478,0"
           style="font-size:92.49852753px;font-style:italic;font-variant:normal;font-weight:bold;font-stretch:normal;stroke:#ffffff;font-family:Nasalization;-inkscape-font-specification:Nasalization Bold Italic"
           id="path3635" />
        <path
           inkscape:connector-curvature="0"
           d="m 439.00927,334.31747 12.2098,-60.86403 12.9498,0 -12.20981,60.86403 -12.94979,0"
           style="font-size:92.49852753px;font-style:italic;font-variant:normal;font-weight:bold;font-stretch:normal;stroke:#ffffff;font-family:Nasalization;-inkscape-font-specification:Nasalization Bold Italic"
           id="path3637" />
        <path
           inkscape:connector-curvature="0"
           d="m 482.89693,286.40323 -2.21996,10.82233 18.8697,0 c 1.60326,3e-5 2.99074,-0.52412 4.16243,-1.57248 1.1716,-1.04828 1.91159,-2.34325 2.21997,-3.88493 0.30827,-1.41827 0.0616,-2.65159 -0.73999,-3.69995 -0.8017,-1.10993 -1.91169,-1.66492 -3.32995,-1.66497 l -18.9622,0 m 15.90975,33.48447 c 1.23327,-1.17164 2.03492,-2.62078 2.40496,-4.34743 0.24662,-1.4183 -0.0309,-2.65161 -0.83249,-3.69994 -0.80169,-1.10997 -1.91167,-1.66496 -3.32994,-1.66498 l -18.9622,0 -2.21997,11.19232 18.8697,0 c 1.47994,1e-5 2.83658,-0.52414 4.06994,-1.57247 l 0,0.0925 m 4.06993,-46.43426 c 5.79653,0.12339 10.17479,1.81919 13.13479,5.08742 3.02156,3.20666 3.97738,7.67742 2.86746,13.41228 -0.43172,1.97334 -1.29504,4.03914 -2.58996,6.1974 -1.29504,2.15833 -3.45333,4.0083 -6.4749,5.54992 2.34324,1.54166 3.73072,3.39163 4.16244,5.54991 0.49326,2.15832 0.5241,4.31661 0.0925,6.47489 -0.43172,2.34331 -1.23337,4.62494 -2.40497,6.8449 -1.1717,2.21997 -2.71334,4.2241 -4.62492,6.0124 -1.85002,1.72664 -4.16248,3.11412 -6.93739,4.16243 -2.71333,1.04832 -5.85828,1.57248 -9.43485,1.57248 l -30.33952,0 12.20981,-60.86403 30.33951,0"
           style="font-size:92.49852753px;font-style:italic;font-variant:normal;font-weight:bold;font-stretch:normal;stroke:#ffffff;font-family:Nasalization;-inkscape-font-specification:Nasalization Bold Italic"
           id="path3639" />
        <path
           inkscape:connector-curvature="0"
           d="m 555.60945,286.49573 c -0.30837,4e-5 -0.64754,0.30837 -1.01749,0.92498 l -14.24477,25.6221 20.16468,0 -3.79244,-25.1596 c -0.37004,-0.92494 -0.6167,-1.38744 -0.73999,-1.38748 l -0.36999,0 m 6.84489,39.49687 -29.22954,0 -4.43993,8.32487 -13.78228,0 29.13704,-52.44667 c 1.66494,-2.89823 3.73074,-5.0257 6.1974,-6.3824 2.52825,-1.35658 5.24154,-2.0349 8.13987,-2.03496 2.9599,6e-5 5.3957,0.67838 7.30738,2.03496 1.91159,1.3567 3.08323,3.48417 3.51495,6.3824 l 8.23237,52.44667 -13.68979,0 -1.38747,-8.32487"
           style="font-size:92.49852753px;font-style:italic;font-variant:normal;font-weight:bold;font-stretch:normal;stroke:#ffffff;font-family:Nasalization;-inkscape-font-specification:Nasalization Bold Italic"
           id="path3641" />
      </g>
      <g
         transform="scale(1.0220064,0.97846746)"
         style="font-size:65.62609863px;font-style:normal;font-weight:normal;line-height:125%;letter-spacing:0px;word-spacing:0px;fill:#000000;fill-opacity:1;stroke:#ffffff;stroke-opacity:1;font-family:Sans"
         id="text3430">
        <path
           inkscape:connector-curvature="0"
           d="m 229.46954,446.29849 c -6.38764,-1e-5 -11.81273,-0.87502 -16.27527,-2.62505 -4.3751,-1.75003 -7.8314,-4.24382 -10.36892,-7.48137 -2.53756,-3.32505 -4.15633,-7.30636 -4.85633,-11.94395 -0.70003,-4.63756 -0.48127,-9.84389 0.65626,-15.61901 l 9.84391,-48.69457 18.37531,0 -9.84392,48.82582 c -1.22505,6.03763 -0.48128,10.7627 2.23129,14.17524 2.80001,3.32507 7.30633,4.98759 13.51898,4.98758 l 27.03795,0 -3.67506,18.37531 -26.6442,0"
           style="font-size:131.25219727px;font-style:italic;font-variant:normal;font-weight:bold;font-stretch:normal;stroke:#ffffff;font-family:Nasalization;-inkscape-font-specification:Nasalization Bold Italic"
           id="path3616" />
        <path
           inkscape:connector-curvature="0"
           d="m 266.51137,446.29849 17.32529,-86.36395 18.37531,0 -17.32529,86.36395 -18.37531,0"
           style="font-size:131.25219727px;font-style:italic;font-variant:normal;font-weight:bold;font-stretch:normal;stroke:#ffffff;font-family:Nasalization;-inkscape-font-specification:Nasalization Bold Italic"
           id="path3618" />
        <path
           inkscape:connector-curvature="0"
           d="m 341.12415,427.79193 c 0.43746,1e-5 1.00622,-0.56875 1.70628,-1.70628 l 36.61936,-66.15111 19.42533,0 -41.4757,74.55125 c -2.2751,4.11257 -5.16265,7.08762 -8.66264,8.92515 -3.41261,1.83753 -7.26268,2.80004 -11.5502,2.88755 -4.20011,-1e-5 -7.70016,-1.00627 -10.50017,-3.0188 -2.71258,-1.92503 -4.37511,-4.85633 -4.98759,-8.7939 l -11.55019,-74.55125 19.42533,0 9.97516,66.15111 c 0.17496,1.13753 0.52496,1.70629 1.05002,1.70628 l 0.52501,0"
           style="font-size:131.25219727px;font-style:italic;font-variant:normal;font-weight:bold;font-stretch:normal;stroke:#ffffff;font-family:Nasalization;-inkscape-font-specification:Nasalization Bold Italic"
           id="path3620" />
        <path
           inkscape:connector-curvature="0"
           d="m 421.32949,378.30985 -3.15006,15.35651 26.77545,0 c 2.09998,4e-5 4.02501,-0.74372 5.7751,-2.23129 1.74996,-1.48747 2.84373,-3.325 3.2813,-5.51259 0.43744,-2.01248 0.0874,-3.76251 -1.05001,-5.25009 -1.13759,-1.57496 -2.71261,-2.36248 -4.72508,-2.36254 l -26.9067,0 m 28.35047,-18.37531 c 4.90001,8e-5 8.96883,0.70009 12.20646,2.10004 3.23747,1.4001 5.73126,3.28138 7.48137,5.64384 1.83745,2.36261 2.97496,5.16266 3.41256,8.40014 0.43742,3.15012 0.30616,6.51892 -0.39376,10.10642 -0.6126,3.06261 -1.70636,6.0814 -3.2813,9.0564 -1.48761,2.9751 -3.54389,5.68764 -6.16886,8.13764 -2.53761,2.45008 -5.60016,4.46261 -9.18765,6.0376 -3.58763,1.57506 -8.66271,2.45007 -15.22525,2.62504 l 26.25043,15.48776 -4.46257,22.05037 -46.85703,-32.41929 -5.7751,29.13799 -18.37531,0 17.32529,-86.36395 43.05072,0"
           style="font-size:131.25219727px;font-style:italic;font-variant:normal;font-weight:bold;font-stretch:normal;stroke:#ffffff;font-family:Nasalization;-inkscape-font-specification:Nasalization Bold Italic"
           id="path3622" />
        <path
           inkscape:connector-curvature="0"
           d="m 502.06189,412.04166 c -2.01257,3e-5 -3.89385,0.78755 -5.64385,2.36254 -1.75006,1.48755 -2.84382,3.36883 -3.2813,5.64385 -0.43754,2.18755 -0.0875,4.06883 1.05002,5.64384 1.13748,1.48754 2.75626,2.2313 4.85633,2.23129 l 45.15075,0 -3.67506,18.37531 -43.05072,0 c -5.16261,-1e-5 -9.36268,-0.78752 -12.60021,-2.36254 -3.23757,-1.48753 -5.73136,-3.45631 -7.48138,-5.90635 -1.75004,-2.53754 -2.80005,-5.38133 -3.15005,-8.53139 -0.26251,-3.15004 -0.0875,-6.30009 0.52501,-9.45016 0.6125,-3.23753 1.88127,-6.34383 3.80631,-9.31891 1.92502,-3.06252 4.85632,-5.68756 8.7939,-7.87513 -3.41257,-2.275 -5.38136,-4.90004 -5.90635,-7.87513 -0.52502,-3.0625 -0.35002,-6.78131 0.52501,-11.15644 0.875,-4.37501 2.80003,-8.44382 5.7751,-12.20645 2.97502,-3.76249 6.47508,-6.65004 10.50017,-8.66265 4.02503,-2.01245 9.53762,-3.01872 16.53778,-3.0188 l 43.05072,0 -3.67506,18.37531 -45.28201,0 c -2.01257,6e-5 -3.89385,0.78758 -5.64384,2.36254 -1.75007,1.48758 -2.84384,3.28136 -3.28131,5.38134 -0.43754,2.10009 -0.13128,3.89387 0.91877,5.38134 1.04998,1.48757 2.7125,2.23133 4.98758,2.23129 l 45.15076,0 -3.67506,18.3753 -45.28201,0"
           style="font-size:131.25219727px;font-style:italic;font-variant:normal;font-weight:bold;font-stretch:normal;stroke:#ffffff;font-family:Nasalization;-inkscape-font-specification:Nasalization Bold Italic"
           id="path3624" />
      </g>
      <path
         inkscape:connector-curvature="0"
         inkscape:export-ydpi="90"
         inkscape:export-xdpi="90"
         inkscape:export-filename="/home/joelson/ctba.png"
         id="path3434"
         d="m 236.69196,273.44196 c -18.3764,6e-5 -29.71383,10.08537 -33.96875,30.25 l 0,0.28125 c -0.0871,0.43282 -0.17324,0.85769 -0.25,1.28125 4.31149,0.38279 8.60325,0.72896 12.78125,1.0625 0.0813,-0.49275 0.14603,-0.98304 0.25,-1.5 l 0.0937,-0.75 c 1.23329,-6.10487 3.12877,-10.56959 5.71875,-13.40625 2.65159,-2.83658 6.05587,-4.24995 10.1875,-4.25 l 25.15625,0 2.59375,-12.96875 -22.5625,0 z m 30.4375,0 -7.21875,35.6875 c 4.38064,0.19764 8.67709,0.38676 12.90625,0.53125 l 7.25,-36.21875 -12.9375,0 z m 38.65625,0 -7.375,36.78125 c 4.38837,0.0503 8.73648,0.095 12.96875,0.0937 l 7.375,-36.875 -12.96875,0 z m 21.3125,0 -7.375,36.8125 c 13.1481,-0.10497 25.58403,-0.4212 37.46875,-0.90625 1.1771,-0.27125 2.21781,-0.63297 3.125,-1.03125 2.52824,-1.10996 4.68039,-2.52333 6.46875,-4.25 1.84991,-1.72661 3.29537,-3.62209 4.34375,-5.71875 1.10992,-2.0966 1.88078,-4.24791 2.3125,-6.40625 0.49326,-2.52825 0.58952,-4.90499 0.28125,-7.125 -0.30839,-2.28158 -1.11133,-4.24123 -2.40625,-5.90625 -1.23337,-1.66492 -2.99968,-2.98204 -5.28125,-3.96875 -2.28168,-0.98659 -5.14052,-1.49994 -8.59375,-1.5 l -30.34375,0 z m 57.46875,0 -7,34.90625 c 4.42694,-0.24715 8.78891,-0.50799 13.09375,-0.78125 l 6.84375,-34.125 -12.9375,0 z m 19.46875,0 -2.59375,12.96875 14.34375,0 -3.96875,19.71875 c 4.41768,-0.31409 8.77894,-0.62386 13.125,-0.9375 l 3.78125,-18.78125 13.5,0 2.59375,-12.96875 -40.78125,0 z m 47.1875,0 -6.09375,30.375 c 4.37408,-0.29527 8.75522,-0.61181 13.125,-0.875 l 5.90625,-29.5 -12.9375,0 z m 21.3125,0 -5.8125,29.03125 c 15.29172,-0.82294 30.77749,-1.35377 47,-1.34375 1.06349,-0.91695 1.92171,-1.90081 2.5625,-2.96875 1.29492,-2.15826 2.16203,-4.24541 2.59375,-6.21875 1.10992,-5.73486 0.14656,-10.19958 -2.875,-13.40625 -2.96001,-3.26822 -7.32848,-4.97036 -13.125,-5.09375 l -30.34375,0 z m 85.9375,0 c -2.89833,6e-5 -5.59675,0.67466 -8.125,2.03125 -2.46666,1.3567 -4.55381,3.50802 -6.21875,6.40625 l -10.84375,19.5 c 4.35132,0.12482 8.75675,0.31517 13.25,0.53125 l 8.0625,-14.5 c 0.36995,-0.61661 0.69163,-0.9062 1,-0.90625 l 0.375,0 c 0.12329,5e-5 0.37996,0.45006 0.75,1.375 l 2.21875,14.71875 c 4.51125,0.29803 9.09966,0.63067 13.78125,1.03125 l -3.4375,-21.75 c -0.43171,-2.89823 -1.58842,-5.04955 -3.5,-6.40625 -1.91169,-1.35659 -4.35259,-2.03119 -7.3125,-2.03125 z m -221,12.96875 18.96875,0 c 1.41826,5e-5 2.5108,0.54631 3.3125,1.65625 0.8016,1.04836 1.05828,2.26923 0.75,3.6875 -0.30838,1.54168 -1.07923,2.85797 -2.3125,3.90625 -1.23336,1.04835 -2.58257,1.56253 -4.0625,1.5625 l -18.875,0 2.21875,-10.8125 z m 145.4375,0 18.9375,0 c 1.41826,5e-5 2.54205,0.54631 3.34375,1.65625 0.8016,1.04836 1.05828,2.26923 0.75,3.6875 -0.30838,1.54168 -1.04715,2.85797 -2.21875,3.90625 -1.17169,1.04835 -2.58424,1.56253 -4.1875,1.5625 l -18.84375,0 2.21875,-10.8125 z"
         style="font-size:46.24926376px;font-style:normal;font-weight:normal;line-height:125%;letter-spacing:0px;word-spacing:0px;fill:#ffffff;fill-opacity:0.15686275;stroke:none;font-family:Sans" />
      <path
         inkscape:connector-curvature="0"
         inkscape:export-ydpi="90"
         inkscape:export-xdpi="90"
         inkscape:export-filename="/home/joelson/ctba.png"
         id="path3436"
         d="m 213.0625,352.1875 -7.3125,34.59375 c 6.35686,-0.35369 12.69574,-0.65248 19,-0.875 l 7.09375,-33.71875 -18.78125,0 z m 77.03125,0 -6.96875,33.28125 c 6.24475,0.10048 12.47556,0.22908 18.6875,0.40625 l 7.0625,-33.6875 -18.78125,0 z m 26.875,0 5.5625,34.375 c 6.62702,0.26376 13.2417,0.55797 19.84375,0.875 l -5.5625,-35.25 -19.84375,0 z m 70.84375,0 -21.125,36.53125 c 6.37644,0.34762 12.75879,0.66978 19.125,1.03125 l 21.84375,-37.5625 -19.84375,0 z m 27.75,0 -8.125,38.8125 c 22.05337,1.24122 44.08576,2.38863 66.25,3.15625 2.40858,-2.2572 4.3405,-4.7387 5.75,-7.4375 1.6096,-2.91094 2.71767,-5.84709 3.34375,-8.84375 0.71533,-3.51025 0.85329,-6.82396 0.40625,-9.90625 -0.44723,-3.16777 -1.62212,-5.90701 -3.5,-8.21875 -1.78863,-2.31159 -4.31628,-4.13004 -7.625,-5.5 -3.30888,-1.3698 -7.49216,-2.06242 -12.5,-2.0625 l -44,0 z m 110.5625,0 c -7.15421,8e-5 -12.79264,0.96838 -16.90625,2.9375 -4.11367,1.96928 -7.67826,4.81853 -10.71875,8.5 -3.04054,3.68161 -5.012,7.6567 -5.90625,11.9375 -0.89429,4.28092 -1.06783,7.90969 -0.53125,10.90625 0.53655,2.91103 2.54358,5.49274 6.03125,7.71875 -0.38568,0.20514 -0.75821,0.41199 -1.125,0.625 21.24204,0.42659 42.61609,0.36347 64.25,-0.4375 l 1.9375,-9.1875 -46.15625,0 c -2.32514,5e-5 -4.02066,-0.73196 -5.09375,-2.1875 -1.07316,-1.45544 -1.38467,-3.19513 -0.9375,-5.25 0.4471,-2.05476 1.55517,-3.8257 3.34375,-5.28125 1.7885,-1.54105 3.72439,-2.31244 5.78125,-2.3125 l 46.28125,0 3.75,-17.96875 -44,0 z m -95.53125,17.96875 27.5,0 c 2.05675,6e-5 3.68113,0.77145 4.84375,2.3125 1.16248,1.45555 1.50956,3.18711 1.0625,5.15625 -0.44721,2.14049 -1.55528,3.91956 -3.34375,5.375 -1.78861,1.45554 -3.76007,2.18755 -5.90625,2.1875 l -27.375,0 3.21875,-15.03125 z"
         style="font-size:65.62609863px;font-style:normal;font-weight:normal;line-height:125%;letter-spacing:0px;word-spacing:0px;fill:#ffffff;fill-opacity:0.15686275;stroke:none;font-family:Sans" />
    </g>
  </g>
</svg>
